<?xml version="1.0" encoding="UTF-8"?><svg id="Layer_2" xmlns="http://www.w3.org/2000/svg" viewBox="0 0 141.3 141.3"><defs><style>.cls-1,.cls-2{fill:#fff;}.cls-3{fill:#58595b;}.cls-4{fill:none;}.cls-4,.cls-2{stroke:#58595b;stroke-miterlimit:10;stroke-width:.86px;}</style></defs><g id="Square"><g><circle class="cls-2" cx="70.65" cy="70.65" r="70.22"/><circle class="cls-4" cx="70.65" cy="70.65" r="47.7"/><g><path class="cls-1" d="m100.58,72.32c-.14.53-.32,1.05-.47,1.57-.31,1.14-1.01,2.04-1.71,2.95-1.7,2.21-3.73,4.11-5.9,5.85-1.28,1.01-2.62,1.94-3.92,2.92-.37.28-.76.39-1.2.4-1.19.02-2.38.07-3.56.06-.9-.01-1.8-.12-2.63-.47-.29-.12-.56-.3-.79-.51-.14-.13-.23-.36-.26-.56-.06-.4.05-.52.43-.64,2.97-.98,5.58-2.52,7.64-4.9.79-.91,1.43-1.91,1.94-3,.32-.68.36-1.4.41-2.11.11-1.53.22-3.07.21-4.61-.02-3.54-.49-7.03-1.51-10.43-.03-.09-.06-.17-.15-.26-.02.11-.04.23-.06.34-.69,3.17-2.03,6.04-4.05,8.58-2.64,3.33-6.09,5.5-10.07,6.9-1.65.58-3.34.92-5.07,1.11-1.42.15-2.84.3-4.26.46-.26.03-.46-.05-.66-.21-.84-.68-1.36-1.59-1.84-2.52-1.07-2.09-1.79-4.3-2.43-6.55-.37-1.3-.74-2.61-.99-3.93-.16-.82-.17-1.69-.13-2.53.18-4.74,1.76-9.07,3.87-13.25.3-.6.64-1.18,1-1.84-.16.07-.26.11-.36.16-2.36,1.27-4.47,2.88-6.4,4.73-2.31,2.21-4.31,4.67-6.03,7.36-.53.83-.74,1.77-.93,2.71-.47,2.26-.45,4.53-.2,6.81.24,2.13.68,4.23,1.34,6.27.01.04.01.07.03.19-.37-.03-.74-.03-1.09-.08-1.7-.27-3.03-1.21-4.14-2.45-1.74-1.94-2.85-4.23-3.68-6.67-.04-.1-.05-.23-.03-.34.93-5.55,2.55-10.89,4.76-16.06.27-.64.56-1.27.85-1.89.46-.98,1.13-1.76,2.09-2.32,2.59-1.53,5.3-2.79,8.05-3.98,1.47-.64,2.96-1.25,4.45-1.85.7-.28,1.41-.58,2.14-.75,1.78-.41,3.38.03,4.8,1.15.36.28.68.62,1.05.97,1.18-.74,2.44-1.39,3.76-1.92,2.27-.91,4.6-1.51,7.06-1.41,3.03.12,5.56,1.31,7.53,3.62,1.62,1.9,2.6,4.14,3.32,6.5.47,1.56.79,3.15,1.05,4.75,0,.02.01.04.03.07.38-.1.77-.22,1.16-.3,1.42-.28,2.77-.16,3.97.72.96.69,1.52,1.67,1.91,2.76.78,2.19,1.17,4.45,1.24,6.77.12,3.98-.51,7.85-1.54,11.68"/><path class="cls-1" d="m84.24,86.22c-.14,0-.28,0-.42,0-1.08-.01-1.93-.16-2.69-.48-.29-.12-.58-.31-.83-.54-.15-.14-.27-.38-.31-.64-.08-.51.13-.68.53-.81,3.17-1.04,5.65-2.63,7.57-4.86.76-.88,1.4-1.88,1.91-2.96.3-.63.34-1.33.39-2v-.19c.12-1.47.22-2.98.21-4.47-.02-3.58-.51-7.01-1.45-10.21-.71,3.17-2.07,6.04-4.05,8.53-2.5,3.15-5.82,5.43-10.14,6.95-1.56.55-3.23.92-5.1,1.12l-1.06.11c-1.07.11-2.13.23-3.2.35-.28.03-.53-.05-.77-.24-.89-.71-1.42-1.66-1.88-2.57-1.13-2.22-1.87-4.57-2.44-6.58-.41-1.45-.75-2.67-1-3.94-.17-.89-.16-1.84-.14-2.56.15-4.12,1.39-8.35,3.88-13.32.2-.41.42-.81.66-1.23.04-.07.08-.15.12-.22-2.22,1.21-4.28,2.74-6.3,4.68-2.28,2.19-4.3,4.66-6.01,7.34-.53.83-.73,1.8-.91,2.66-.42,2-.48,4.21-.19,6.76.24,2.15.69,4.25,1.33,6.24,0,.03.01.06.02.11l.04.29h-.19c-.12-.02-.24-.03-.35-.03-.26-.01-.5-.03-.75-.07-1.56-.25-2.95-1.07-4.23-2.5-1.56-1.74-2.74-3.88-3.71-6.72-.04-.13-.06-.28-.03-.41.9-5.37,2.5-10.79,4.77-16.09.27-.62.55-1.26.85-1.9.49-1.04,1.2-1.82,2.15-2.38,2.77-1.64,5.64-2.93,8.07-3.99,1.61-.7,3.23-1.35,4.46-1.85l.22-.09c.63-.25,1.28-.52,1.94-.67,1.76-.41,3.42-.01,4.93,1.18.25.2.48.42.72.65.08.08.17.16.26.25,1.16-.72,2.4-1.35,3.68-1.87,2.63-1.06,4.9-1.51,7.13-1.43,3.09.12,5.66,1.36,7.63,3.68,1.43,1.68,2.5,3.77,3.34,6.56.41,1.34.74,2.82,1.04,4.68.07-.02.14-.04.22-.06.26-.07.53-.15.8-.2,1.62-.32,2.96-.08,4.09.74.88.64,1.5,1.53,1.96,2.83.76,2.13,1.18,4.42,1.25,6.82.11,3.63-.39,7.46-1.55,11.72-.07.26-.15.52-.23.78-.08.26-.16.52-.24.79-.31,1.15-1.02,2.07-1.71,2.96l-.03.04c-1.54,2-3.48,3.92-5.93,5.87-.78.62-1.59,1.21-2.38,1.79-.52.38-1.03.75-1.54,1.14-.37.28-.8.42-1.29.43-.35,0-.7.02-1.06.02-.68.02-1.39.04-2.09.04m4.76-27.96l.2.2c.11.11.16.22.19.33.99,3.28,1.5,6.8,1.52,10.47.01,1.5-.1,3.02-.2,4.49v.19c-.06.7-.11,1.42-.43,2.1-.52,1.11-1.18,2.13-1.96,3.03-1.96,2.27-4.48,3.89-7.71,4.95-.33.11-.37.18-.33.48.03.19.11.38.22.47.23.21.48.38.74.49.72.3,1.54.44,2.58.46.83.01,1.68-.01,2.5-.03.35,0,.71-.02,1.06-.02.43,0,.79-.13,1.11-.37.51-.39,1.03-.76,1.55-1.14.78-.57,1.6-1.16,2.37-1.78,2.44-1.94,4.36-3.84,5.88-5.82l.03-.04c.67-.87,1.36-1.77,1.65-2.86.07-.27.16-.54.24-.8.08-.26.16-.51.23-.77l.14.04-.14-.04c1.15-4.23,1.65-8.03,1.54-11.63-.07-2.37-.49-4.63-1.23-6.73-.44-1.23-1.03-2.09-1.86-2.68-1.06-.77-2.32-.99-3.86-.69-.26.05-.53.13-.78.2-.12.04-.25.07-.37.1l-.13.03-.05-.13s-.03-.07-.03-.1c-.3-1.88-.64-3.38-1.05-4.73-.84-2.75-1.88-4.8-3.29-6.45-1.92-2.26-4.41-3.46-7.42-3.57-2.19-.09-4.41.36-7,1.41-1.3.52-2.56,1.16-3.73,1.9l-.1.06-.08-.08c-.12-.11-.23-.22-.35-.33-.23-.23-.45-.44-.69-.63-1.43-1.13-3.01-1.51-4.67-1.12-.65.15-1.28.41-1.9.66l-.22.09c-1.23.49-2.84,1.15-4.45,1.85-2.42,1.05-5.27,2.34-8.03,3.97-.9.53-1.56,1.27-2.03,2.26-.3.63-.59,1.27-.85,1.89-2.26,5.28-3.86,10.67-4.75,16.02-.01.08,0,.18.02.27.95,2.8,2.11,4.91,3.65,6.62,1.24,1.38,2.56,2.17,4.06,2.41.23.04.47.05.72.06.06,0,.11,0,.17.01-.65-2.01-1.1-4.12-1.34-6.28-.29-2.58-.22-4.82.2-6.85.18-.88.39-1.88.95-2.76,1.72-2.7,3.75-5.19,6.05-7.39,2.06-1.98,4.16-3.53,6.43-4.76.07-.03.13-.06.22-.1l.55-.25-.21.39c-.12.22-.23.42-.34.62-.23.42-.45.81-.65,1.22-2.51,4.99-3.7,9.06-3.85,13.19-.03.71-.03,1.63.13,2.49.24,1.26.58,2.47.99,3.92.57,1.99,1.3,4.33,2.42,6.52.45.88.96,1.8,1.8,2.47.18.14.35.2.55.18,1.06-.12,2.13-.23,3.2-.35l1.06-.11c1.85-.2,3.5-.56,5.04-1.1,4.26-1.51,7.54-3.75,10-6.85,1.97-2.48,3.32-5.35,4.02-8.52.02-.07.03-.15.04-.23l.07-.39Z"/><path class="cls-3" d="m89.83,89.57c.71.82,1.2,1.74,1.41,2.79.07.38.09.77.11,1.16-.94-1.05-2.22-1.12-3.45-1.31-1.45-.22-2.9-.01-4.35,0-1.71,0-3.43.07-5.14.02-2.55-.07-5.1-.16-7.64-.33-2.96-.2-5.91-.57-8.81-1.24-.58-.13-.57-.13-.77.42-.89,2.52-2,4.93-3.58,7.1-.67.92-1.42,1.77-2.29,2.51-.39.34-.87.39-1.34.46-2.83.41-5.22-.5-7.26-2.46-.02-.02-.04-.04-.05-.07-.01-.01-.01-.03-.02-.06,4.55-2,6.85-5.75,8.02-10.37-.48-.19-.92-.34-1.35-.53-1.76-.78-3.35-1.85-4.86-3.03-1.26-1-2.48-2.04-3.69-3.1-.7-.62-1.13-1.45-1.56-2.27-1.3-2.51-2.2-5.17-2.99-7.87-.31-1.07-.87-2.01-1.41-2.95-.84-1.48-1.74-2.93-2.89-4.2-.45-.49-.97-.93-1.49-1.35-.38-.31-.85-.45-1.35-.47,1.78-1.02,3.69-1.25,5.7-.93.14-.65.28-1.28.42-1.9.77-3.32,1.76-6.58,2.88-9.8.62-1.78,1.24-3.55,1.95-5.29.9-2.2,2.2-4.15,4.21-5.48,1.26-.84,2.62-1.54,3.96-2.24,3.37-1.76,6.87-3.21,10.42-4.56,1.04-.4,2.07-.82,3.17-1.01,1.32-.22,2.62-.21,3.84.47,1.13.63,1.79,1.62,2.18,2.86.13-.05.27-.09.39-.15,2.33-1.21,4.78-2.07,7.37-2.5,2.42-.4,4.82-.36,7.18.41,2.7.89,4.77,2.6,6.37,4.91,1.52,2.2,2.47,4.65,3.15,7.21.24.89.42,1.79.63,2.67.44-.09.88-.21,1.33-.26,1.8-.23,3.31.36,4.51,1.72.83.94,1.33,2.06,1.72,3.23.53,1.57.97,3.17,1.25,4.82.36,2.07.5,4.16.45,6.27-.1,3.83-.77,7.56-1.95,11.2-.58,1.77-1.56,3.31-2.81,4.68-3.53,3.86-7.36,7.39-11.41,10.69-.04.03-.07.07-.13.13m-18.74-50.49c-.37-.34-.68-.68-1.04-.97-1.41-1.12-3.01-1.56-4.78-1.15-.73.17-1.43.47-2.13.75-1.49.6-2.97,1.21-4.44,1.85-2.74,1.19-5.45,2.45-8.02,3.98-.95.56-1.62,1.34-2.08,2.32-.29.63-.58,1.26-.85,1.89-2.2,5.17-3.82,10.51-4.74,16.06-.02.11,0,.23.03.34.83,2.44,1.94,4.73,3.67,6.67,1.11,1.25,2.43,2.18,4.13,2.46.35.06.71.06,1.08.08-.02-.11-.02-.15-.03-.19-.66-2.04-1.09-4.14-1.33-6.27-.26-2.28-.27-4.55.2-6.81.19-.94.4-1.88.93-2.71,1.71-2.69,3.71-5.15,6.01-7.36,1.92-1.85,4.02-3.46,6.37-4.73.09-.05.19-.09.35-.16-.36.66-.69,1.24-.99,1.84-2.09,4.18-3.68,8.52-3.85,13.25-.03.84-.02,1.71.13,2.53.25,1.33.62,2.63.99,3.93.64,2.25,1.36,4.46,2.42,6.55.48.94,1,1.85,1.84,2.52.2.16.4.24.66.21,1.41-.16,2.83-.31,4.24-.46,1.72-.19,3.41-.53,5.05-1.11,3.96-1.4,7.4-3.57,10.03-6.9,2.01-2.54,3.34-5.42,4.03-8.58.02-.11.04-.23.06-.34.09.09.12.17.15.26,1.02,3.4,1.49,6.89,1.51,10.43,0,1.54-.1,3.08-.21,4.61-.05.71-.09,1.44-.41,2.11-.51,1.09-1.15,2.09-1.93,3-2.05,2.39-4.65,3.93-7.61,4.9-.38.13-.49.25-.43.64.03.2.12.43.26.56.23.21.5.39.78.51.84.35,1.73.46,2.62.47,1.18.01,2.37-.04,3.55-.06.44,0,.83-.13,1.2-.4,1.3-.98,2.63-1.91,3.9-2.92,2.17-1.73,4.19-3.63,5.88-5.85.69-.91,1.4-1.81,1.7-2.95.14-.53.32-1.05.46-1.57,1.03-3.82,1.66-7.7,1.54-11.68-.07-2.32-.46-4.58-1.24-6.77-.39-1.09-.95-2.06-1.9-2.76-1.2-.87-2.55-1-3.96-.72-.39.08-.77.2-1.15.3-.01-.03-.02-.05-.02-.07-.26-1.6-.57-3.19-1.05-4.75-.72-2.36-1.69-4.6-3.3-6.5-1.96-2.32-4.48-3.51-7.5-3.62-2.46-.1-4.78.5-7.04,1.42-1.31.53-2.57,1.17-3.75,1.91m-15.45,18.39c-.87,1.55-1.83,6.35-1.53,8.85.41,3.47,2.26,6.08,3.48,7.51-1.3-2.5-2.01-5.18-2.29-7.96-.28-2.79-.18-5.58.34-8.4m23.93,21.24c1.95-.59,3.9-1.27,5.13-2.5,1.34-1.34,1.89-3.26,2.23-4.8-1.6,3.3-4.12,5.66-7.36,7.3"/><path class="cls-3" d="m56.07,48.11c.11-.53.19-1.07.33-1.59.28-1.1.71-2.13,1.42-3.03,1.2-1.53,2.8-2.09,4.68-1.85.77.1,1.53.36,2.29.54.11.02.26,0,.35-.06.49-.35,1-.65,1.6-.77.72-.14,1.35.04,1.91.51.53.45,1.08,1.36,1.28,2.11-.1-.07-.17-.11-.24-.16-.58-.42-1.21-.76-1.93-.87-.97-.15-1.76.19-2.38.94-.07.08-.13.16-.2.25,0,0-.02.01,0,0-.5-.21-.96-.46-1.46-.61-1.72-.54-3.29-.22-4.7.88-1.2.93-2.01,2.16-2.7,3.48-.05.09-.1.18-.14.27-.03,0-.05-.02-.08-.02"/><path class="cls-3" d="m72.65,66.95c.11.32.19.64.32.93.53,1.28,1.5,1.74,2.83,1.34.04-.01.09-.02.15-.03-.74,1.27-1.9,1.61-3.04.82-.34-.24-.65-.54-.93-.85-.15-.16-.26-.19-.46-.11-1.01.38-2.05.6-3.13.53-1.84-.12-3.26-1.01-4.32-2.48-.26-.36-.48-.76-.71-1.14.02-.01.04-.03.06-.04.24.26.47.54.73.78,1.8,1.74,3.91,2.07,6.22,1.31.73-.24,1.41-.64,2.11-.97.06-.03.11-.06.17-.1"/><path class="cls-3" d="m91.66,54.68c.43-.02.86-.08,1.28-.05.67.05,1.35.09,1.99.27,1.6.43,2.42,1.48,2.47,3.13.04,1.11-.27,2.16-.69,3.19.04-.32.09-.64.1-.96,0-.34,0-.68-.05-1.01-.22-1.48-1.04-2.58-2.28-3.38-.77-.49-1.61-.81-2.49-1.04-.11-.03-.22-.06-.33-.09v-.06Z"/><path class="cls-3" d="m47.74,67.15c-.48-.34-.96-.61-1.37-.96-.95-.81-1.16-1.91-.6-3.02.14-.29.33-.56.54-.81-.07.3-.16.6-.21.91-.14.96.21,1.74,1.02,2.25.55.34,1.17.56,1.79.86-.03.29-.09.67-.09,1.05,0,.41.04.83.14,1.23.16.69.59,1.19,1.31,1.52-1.8-.23-2.64-1.29-2.53-3.02"/><path class="cls-3" d="m85.48,82.52c2.03.45,3.83.27,5.07-1.7-.01.1-.02.21-.04.31-.02.11-.04.23-.08.33-.21.46-.37.96-.65,1.37-.44.65-1.11.89-1.89.79-.91-.12-1.68-.57-2.41-1.1"/><path class="cls-1" d="m55.64,57.48c-.87,1.55-1.83,6.35-1.53,8.85.41,3.47,2.26,6.08,3.48,7.51-1.3-2.5-2.01-5.17-2.29-7.96-.28-2.79-.18-5.58.34-8.4"/><path class="cls-1" d="m79.57,78.72c1.95-.59,3.9-1.27,5.13-2.5,1.34-1.34,1.89-3.26,2.23-4.8-1.6,3.3-4.12,5.66-7.36,7.3"/></g><g><path class="cls-3" d="m31.59,92.02l-1.7-6.95h1.35l.66,3.15c.18.85.34,1.73.45,2.42h.02c.11-.73.31-1.56.51-2.43l.75-3.14h1.33l.69,3.2c.17.82.32,1.6.42,2.35h.02c.12-.76.29-1.56.47-2.41l.72-3.13h1.29l-1.88,6.95h-1.35l-.72-3.27c-.18-.79-.3-1.45-.39-2.21h-.02c-.11.74-.25,1.41-.45,2.21l-.8,3.27h-1.37Z"/><path class="cls-3" d="m44.35,91.82c-.3.14-.96.31-1.8.31-2.21,0-3.55-1.38-3.55-3.5,0-2.29,1.6-3.67,3.72-3.67.83,0,1.42.18,1.68.31l-.27,1.01c-.33-.14-.79-.27-1.36-.27-1.41,0-2.43.89-2.43,2.56,0,1.54.89,2.5,2.42,2.5.5,0,1.04-.1,1.38-.25l.21,1Z"/></g><g><path class="cls-3" d="m99.1,85.07v4.05c0,1.36.57,1.99,1.42,1.99.92,0,1.46-.63,1.46-1.99v-4.05h1.27v3.97c0,2.14-1.1,3.09-2.77,3.09s-2.65-.9-2.65-3.08v-3.98h1.27Z"/><path class="cls-3" d="m106.04,86.13h-1.98v-1.06h5.24v1.06h-2v5.88h-1.27v-5.88Z"/></g><g><path class="cls-3" d="m57.66,107.61h-2.04v1.59h2.28v.81h-3.27v-5.42h3.15v.81h-2.16v1.4h2.04v.8Z"/><path class="cls-3" d="m58.75,108.93c.31.18.8.34,1.31.34.63,0,.98-.3.98-.74,0-.41-.27-.65-.96-.9-.9-.32-1.47-.8-1.47-1.57,0-.89.74-1.56,1.92-1.56.59,0,1.01.13,1.29.27l-.23.8c-.2-.1-.58-.26-1.08-.26-.63,0-.89.33-.89.65,0,.42.31.61,1.04.89.94.35,1.39.83,1.39,1.61,0,.88-.66,1.63-2.05,1.63-.58,0-1.17-.16-1.47-.34l.22-.82Z"/><path class="cls-3" d="m63.97,105.42h-1.54v-.83h4.09v.83h-1.56v4.59h-.99v-4.59Z"/><path class="cls-3" d="m70.15,105.68h-.02l-.96.48-.17-.75,1.28-.63h.82v5.22h-.96v-4.33Z"/><path class="cls-3" d="m73.81,107.29c-.55-.27-.8-.7-.8-1.16,0-.85.76-1.43,1.74-1.43,1.13,0,1.64.67,1.64,1.32,0,.44-.23.9-.8,1.18v.02c.57.22,1,.67,1,1.32,0,.93-.79,1.56-1.9,1.56-1.22,0-1.86-.71-1.86-1.44,0-.64.38-1.08.98-1.35v-.02Zm1.78,1.33c0-.53-.39-.82-.97-.98-.49.14-.77.48-.77.91-.02.45.32.85.88.85.52,0,.87-.33.87-.78Zm-1.63-2.53c0,.43.35.68.85.82.36-.1.65-.39.65-.79,0-.36-.22-.74-.75-.74-.5,0-.76.33-.76.71Z"/><path class="cls-3" d="m80.54,105.61h-2.01l-.15,1.04c.11-.02.22-.02.37-.02.46,0,.92.1,1.27.34.39.25.68.69.68,1.33,0,1-.83,1.81-2.11,1.81-.61,0-1.12-.15-1.39-.31l.2-.75c.22.12.67.27,1.15.27.58,0,1.13-.33,1.13-.95s-.44-1-1.48-1c-.3,0-.51.02-.72.05l.34-2.64h2.71v.82Z"/><path class="cls-3" d="m85.11,104.79v.64l-2.21,4.59h-1.04l2.2-4.39v-.02h-2.47v-.82h3.51Z"/></g><polygon class="cls-3" points="52.87 110.01 52.87 106.16 45.47 107.73 52.87 110.01"/><polygon class="cls-3" points="86.85 110.01 86.85 106.16 94.25 107.73 86.85 110.01"/><g><path class="cls-3" d="m15.04,74.27c-.15.08-.28.16-.39.24-.14.1-.26.21-.37.32l-.24-3.22c.11.11.24.2.39.28.12.07.26.13.41.17s.3.06.44.05l.8-.06c.43-.03.84.02,1.23.15.39.13.73.33,1.03.59.3.26.55.56.75.92.2.36.31.75.34,1.17l.04.58c.03.43-.02.83-.15,1.21-.13.38-.33.72-.6,1.02-.26.3-.58.54-.93.73-.36.19-.75.3-1.18.33l-3,.23c-.1.02-.21.07-.33.16-.12.09-.22.19-.32.3-.12.13-.24.27-.36.42-.16-.18-.31-.32-.46-.42-.15-.1-.29-.17-.41-.21s-.22-.06-.3-.07c-.08,0-.12,0-.14,0l-2.96.22c-.43.03-.84-.02-1.23-.15-.39-.13-.73-.33-1.03-.59-.3-.26-.55-.56-.75-.92-.2-.36-.31-.75-.34-1.17l-.05-.6c-.03-.43.02-.83.16-1.21.14-.38.34-.72.6-1.01.26-.29.57-.53.93-.72.36-.19.76-.3,1.19-.33l.58-.04c.18-.01.35-.06.5-.14.15-.08.28-.16.39-.24.14-.1.25-.21.35-.34l.24,3.24c-.11-.11-.24-.2-.37-.28-.11-.07-.24-.13-.39-.19s-.31-.07-.49-.06l-.66.05c-.3.02-.54.14-.73.37-.19.22-.27.48-.25.76l.04.6c.02.3.14.54.36.72.22.19.47.27.77.25l2.96-.22s.07,0,.15-.02c.07-.01.16-.05.28-.11.11-.06.24-.15.37-.27.14-.12.27-.28.39-.49.14.13.28.25.42.36.11.1.23.18.36.25.13.07.25.1.35.11l3-.22c.29-.02.52-.14.71-.36s.27-.47.25-.77l-.04-.58c-.02-.3-.14-.54-.36-.72-.22-.19-.47-.27-.77-.24l-.7.05c-.18.01-.35.06-.5.14Z"/><path class="cls-3" d="m12.47,62.89c.12.15.24.29.36.42.1.11.2.21.32.3.12.09.23.14.33.16l3.02.21c.43.03.82.14,1.18.33.36.19.67.43.94.74.27.31.47.65.6,1.03.14.38.19.78.16,1.21l-.02.58c-.03.43-.14.82-.34,1.18-.19.36-.44.67-.74.93-.3.26-.64.46-1.03.6s-.8.19-1.23.16l-3.02-.21c-.11.02-.22.06-.35.13-.13.07-.25.15-.36.25-.14.11-.28.22-.42.34-.13-.2-.26-.36-.39-.48-.13-.11-.25-.2-.35-.26s-.2-.1-.29-.12c-.08-.02-.14-.03-.16-.03l-2.94-.21c-.43-.03-.82-.14-1.18-.33-.36-.19-.67-.43-.94-.74-.27-.3-.47-.65-.6-1.03-.14-.38-.19-.78-.16-1.21l.04-.6c.03-.43.14-.82.33-1.18.19-.36.44-.66.74-.92.31-.26.65-.45,1.03-.59.38-.14.79-.19,1.21-.16l2.94.21s.08,0,.16,0,.18-.03.3-.08c.12-.04.25-.11.4-.21.14-.09.29-.23.45-.42Zm4.89,4.25c.02-.3-.09-.56-.33-.78-.24-.22-.5-.34-.79-.36l-2.94-.21c-.11.02-.22.06-.34.13-.12.07-.24.15-.35.25-.14.11-.27.22-.4.34-.13-.2-.26-.37-.39-.49-.13-.12-.25-.21-.36-.27s-.21-.1-.29-.12c-.08-.02-.13-.03-.15-.03l-2.83-.2c-.29-.02-.56.07-.83.26-.27.19-.41.43-.43.72l-.04.61c-.02.3.09.56.33.78s.5.34.79.36l2.83.2s.08,0,.16,0c.08,0,.18-.03.3-.08.12-.04.25-.11.4-.21s.29-.23.45-.42c.12.14.24.27.36.4.1.11.2.21.32.31.12.09.23.15.33.17l2.9.2c.29.02.57-.06.84-.25.27-.18.42-.43.44-.72l.02-.59Z"/><path class="cls-3" d="m10.24,53.23c-.23.13-.44.28-.64.43-.18.13-.34.28-.49.44-.15.16-.24.31-.28.47l-.31,1.39,3.89.87s.08.01.16.02c.08,0,.18,0,.3-.02.13-.02.27-.07.42-.14.16-.08.33-.2.51-.35.1.17.19.32.3.46.08.13.17.24.28.34.11.1.21.17.31.21l4.88,1.1c.11.03.24.02.37-.02.14-.04.26-.08.38-.13.15-.06.29-.14.42-.25l-.72,3.21c-.09-.14-.19-.27-.29-.39-.08-.1-.18-.19-.29-.28-.11-.09-.22-.15-.35-.18l-4.84-1.09c-.1-.01-.23,0-.37.06-.14.05-.28.11-.4.19-.15.09-.31.18-.47.29-.1-.22-.2-.4-.32-.54-.11-.14-.22-.25-.33-.32-.1-.08-.19-.13-.27-.15s-.12-.04-.13-.04l-3.89-.88-.29,1.31c-.03.15-.02.33.05.54.07.21.15.4.26.59.11.22.24.45.39.67l-2.8-1.19,1.52-6.74,3.03.12Z"/><path class="cls-3" d="m13.64,44.1c-.25.1-.48.21-.7.33-.19.1-.38.22-.55.36-.17.14-.29.27-.34.42l-.52,1.32,3.71,1.46s.07.02.15.04c.08.02.18.03.3.03.13,0,.27-.03.44-.08s.35-.14.56-.27c.07.18.14.35.22.51.06.14.13.26.23.38.09.12.19.21.28.26l4.65,1.84c.11.04.23.06.37.04.14-.01.27-.04.4-.07.15-.04.3-.1.45-.18l-1.21,3.06c-.07-.15-.14-.29-.23-.43-.07-.11-.15-.22-.24-.32s-.2-.18-.32-.23l-4.61-1.82c-.1-.03-.23-.03-.38,0-.15.02-.29.07-.43.12-.16.06-.33.13-.51.22-.06-.23-.14-.43-.23-.58-.09-.15-.18-.28-.27-.37-.09-.09-.17-.15-.24-.19-.07-.03-.11-.05-.12-.06l-3.71-1.47-.49,1.25c-.06.15-.07.33-.04.54.03.22.09.42.16.62.07.24.17.48.28.72l-2.58-1.61,2.54-6.42,2.98.59Z"/><path class="cls-3" d="m21.86,37.92c.04.19.09.37.14.53.04.14.09.28.16.41.07.13.14.23.23.29l2.61,1.53c.37.22.68.49.92.81.24.33.41.69.51,1.08.1.39.13.79.09,1.19-.05.4-.18.79-.39,1.16l-.28.51c-.22.37-.49.67-.82.91-.33.23-.69.4-1.08.51-.39.11-.78.13-1.19.08-.41-.05-.8-.18-1.17-.4l-2.62-1.53c-.1-.03-.23-.04-.37-.04-.15,0-.29.03-.43.06-.17.04-.35.08-.52.12-.03-.24-.07-.44-.14-.6-.07-.16-.13-.29-.2-.39s-.14-.18-.2-.23-.11-.09-.13-.1l-2.55-1.49c-.37-.22-.68-.49-.92-.81s-.41-.69-.51-1.08c-.1-.39-.13-.79-.09-1.19.05-.4.18-.79.39-1.16l.3-.52c.22-.37.49-.67.81-.91.33-.24.68-.4,1.07-.5.39-.1.78-.12,1.19-.07.4.05.79.18,1.16.4l2.55,1.49s.07.03.15.06.17.05.3.06.28.01.45-.01.37-.08.59-.18Zm2.51,5.98c.15-.26.17-.54.05-.84-.12-.3-.3-.53-.55-.67l-2.55-1.49c-.1-.03-.22-.04-.36-.03-.14,0-.28.03-.42.07-.17.04-.34.08-.51.13-.03-.24-.07-.44-.13-.61-.06-.16-.13-.3-.21-.4-.08-.1-.14-.18-.2-.23-.06-.05-.1-.08-.13-.1l-2.45-1.43c-.25-.14-.53-.19-.86-.14s-.56.2-.7.45l-.31.52c-.15.26-.17.54-.05.84.12.3.3.53.55.67l2.45,1.43s.07.03.14.06c.07.03.17.05.3.06s.28.01.45,0,.37-.08.59-.18c.05.18.1.35.15.52.04.14.09.28.15.42s.14.23.22.3l2.51,1.47c.25.14.53.19.86.15s.57-.2.72-.45l.28-.52Z"/><path class="cls-3" d="m32.34,34.91c.15.04.3.07.44.08.17.02.33.02.5,0l-2.1,2.55c0-.18-.03-.36-.09-.53-.05-.14-.14-.29-.25-.45-.12-.16-.29-.27-.51-.35l-7.47-2.36,5.83,4.79c.14.12.29.2.45.24.16.05.3.07.43.08.16.01.32,0,.47-.02l-2.03,2.47c0-.16-.04-.31-.09-.48-.04-.14-.1-.27-.17-.42s-.18-.27-.31-.38l-3.71-3.05v.02c-.1-.06-.22-.09-.37-.12s-.3-.03-.44-.01c-.17,0-.36.03-.55.05.02-.25,0-.46-.04-.63-.04-.17-.1-.31-.15-.43-.06-.11-.11-.2-.17-.25s-.09-.09-.1-.09l-3.71-3.05c-.07-.06-.17-.1-.31-.13s-.28-.05-.42-.06c-.17-.02-.34-.03-.5-.03l2.22-2.71c.02.18.05.35.11.52.05.14.12.28.2.42.08.14.2.24.34.31l7.14,2.26-5.52-4.54c-.09-.07-.21-.13-.35-.16-.14-.03-.28-.05-.41-.06-.16-.01-.32-.01-.48,0l2.02-2.47c.02.17.05.32.09.48.03.13.08.26.14.39.06.13.14.24.23.31l3.7,3.04s.05.04.11.08c.06.05.16.08.28.12.12.04.28.06.46.07.19.01.4-.01.63-.07.01.19.03.38.05.55.02.15.05.29.09.43s.1.25.18.32l3.73,3.06c.13.11.27.18.42.22Z"/><path class="cls-3" d="m37.09,22.33c-.03.19-.05.37-.06.55-.02.15-.02.29,0,.44.02.15.05.26.11.35l1.89,2.37c.27.34.45.7.56,1.09.1.39.14.78.09,1.16-.04.38-.16.75-.34,1.11-.19.36-.45.67-.78.94l-3.06,2.44c-.03-.2-.06-.39-.1-.59-.04-.17-.08-.34-.14-.52s-.15-.34-.26-.48l-2.83-3.54c-.07-.07-.18-.13-.32-.18-.14-.05-.28-.08-.43-.1-.17-.03-.35-.05-.55-.06.06-.23.09-.44.09-.62s-.02-.33-.05-.46c-.03-.12-.07-.22-.11-.28-.04-.06-.07-.1-.08-.11l-2.78-3.48c-.07-.08-.18-.17-.33-.26-.16-.09-.31-.17-.46-.23-.18-.08-.37-.16-.57-.25l3.04-2.43c.33-.27.7-.45,1.09-.56.4-.11.79-.14,1.17-.09.39.05.76.17,1.12.36.36.19.67.45.94.79l1.74,2.18s.05.06.1.11.13.11.25.17c.11.06.26.11.43.15.18.04.38.06.63.05Zm.19,6.42c.22-.18.35-.41.38-.69.03-.28-.04-.54-.22-.76l-1.89-2.37c-.08-.07-.19-.13-.34-.16s-.3-.06-.45-.08c-.18-.02-.38-.03-.58-.04.06-.23.1-.44.1-.63,0-.19,0-.35-.03-.47-.03-.13-.06-.23-.09-.3s-.05-.11-.06-.13l-1.74-2.18c-.19-.23-.42-.37-.7-.4-.28-.03-.54.04-.76.22l-1.05.84,2.4,3.01s.15.11.38.25c.23.13.6.19,1.1.17-.04.2-.07.39-.09.57-.02.15-.02.3-.02.46,0,.16.03.28.08.37l2.53,3.18,1.05-.84Z"/><path class="cls-3" d="m45.46,25.6c.04-.19.07-.37.07-.54,0-.15-.01-.32-.05-.49-.03-.18-.11-.34-.22-.48s-.23-.29-.34-.44c-.12-.15-.22-.28-.32-.39-.11-.13-.21-.27-.32-.4l-2.24,1.29.61,1.5c.06.15.15.28.28.39.13.11.26.21.4.28.16.09.32.17.49.23l-2.75,1.58c.04-.14.06-.28.07-.42,0-.12,0-.25,0-.37,0-.13-.02-.24-.05-.34l-1.77-4.37c-.07-.17-.18-.31-.33-.42-.15-.11-.3-.2-.45-.28-.18-.08-.36-.15-.55-.22.17-.26.28-.49.33-.69.06-.2.08-.37.07-.52,0-.16-.04-.31-.1-.44-.51-1.25-.92-2.27-1.23-3.06-.31-.78-.47-1.21-.48-1.28-.05-.14-.14-.25-.27-.35s-.26-.18-.39-.26c-.15-.08-.31-.16-.49-.23l4.18-2.4c-.04.2-.06.39-.06.55,0,.15,0,.31.03.47.02.16.08.28.16.37l2.91,3.71c.04.05.11.11.19.19.08.07.18.14.31.21s.27.11.44.14c.17.03.36.04.59.01-.05.2-.09.38-.11.56-.01.16-.01.33.01.51s.09.35.21.51c.32.4.64.81.97,1.24.32.42.62.81.89,1.16s.5.65.68.88.29.37.32.39c.08.09.18.17.3.25s.24.15.34.21c.13.07.27.14.42.19l-2.77,1.59Zm-2.39-4.32l-4.45-5.71,2.69,6.72,1.75-1.01Z"/><path class="cls-3" d="m50.5,7.74c-.08.13-.15.26-.22.4-.06.12-.12.25-.16.39s-.06.27-.05.41c0,.07.01.27.04.6.02.33.05.74.08,1.22s.06,1,.1,1.56c.04.57.07,1.12.1,1.67,0,.14.04.27.13.39.07.11.19.23.35.34.16.12.4.21.71.29-.14.14-.27.3-.4.47-.11.15-.22.34-.34.55-.12.21-.21.45-.28.71v.04s.02.46.02.46l1.46,3.75c.05.13.14.26.26.39.12.13.24.25.37.35.14.11.3.23.47.34l-2.97,1.16c.05-.2.09-.39.11-.57.02-.16.03-.32.04-.49s-.01-.3-.05-.41l-1.49-3.84s-.05-.05-.08-.09c-.03-.03-.06-.07-.09-.11-.03-.04-.07-.09-.12-.14-.24-.15-.47-.26-.7-.35-.23-.09-.43-.15-.62-.19-.21-.04-.42-.07-.63-.07.17-.25.28-.47.32-.66.04-.19.06-.35.05-.47-.01-.12-.04-.21-.08-.28-.04-.07-.07-.11-.07-.14-.35-.44-.71-.88-1.07-1.32-.36-.45-.7-.86-1-1.23s-.57-.69-.78-.95c-.21-.26-.34-.42-.38-.49-.09-.1-.2-.19-.32-.26-.12-.07-.23-.13-.35-.17-.13-.05-.27-.08-.42-.11l3.21-1.25c-.1.15-.17.3-.22.46-.05.13-.07.27-.08.41s.04.27.14.39l3.08,3.83-.31-4.93c0-.11-.05-.22-.16-.33s-.22-.19-.34-.26c-.14-.08-.3-.16-.46-.22l3.21-1.25Z"/><path class="cls-3" d="m58.77,12.99c.26.17.52.35.78.56.25.2.49.43.7.68.22.25.41.54.58.86.17.32.3.69.39,1.11.53,2.35-.23,3.76-2.31,4.23-.53.12-1.01.17-1.43.15-.42-.02-.8-.14-1.13-.35-.33-.21-.61-.53-.84-.95-.24-.42-.43-.97-.58-1.64l-.09-.38c-.03-.13-.09-.25-.18-.36-.09-.11-.19-.21-.29-.3-.12-.11-.25-.2-.38-.27l3.15-.72c-.09.14-.16.28-.22.43-.05.12-.1.25-.13.39-.03.14-.04.27-.01.38l.12.51c.11.48.31.82.59,1.01.28.19.59.25.94.17.33-.07.59-.26.77-.56.18-.3.22-.68.11-1.17s-.32-.88-.63-1.19c-.31-.31-.67-.59-1.07-.85-.1-.04-.23-.06-.38-.04-.15.01-.29.04-.43.07-.17.04-.33.08-.51.14-.03-.42-.11-.72-.26-.91s-.25-.31-.31-.36c-.52-.34-.99-.74-1.41-1.21s-.73-1.1-.91-1.89c-.28-1.23-.22-2.19.17-2.86.39-.68,1.11-1.13,2.16-1.37,1.04-.24,1.88-.13,2.53.3.65.44,1.12,1.27,1.4,2.51.04.17.1.31.2.43.09.12.19.22.29.3.12.11.24.19.38.26l-3.13.71c.09-.13.17-.26.23-.41.05-.12.1-.25.13-.39.03-.14.04-.28,0-.4l-.04-.19c-.11-.5-.31-.84-.58-1.03-.28-.19-.58-.25-.91-.17-.34.08-.6.26-.76.55-.17.29-.19.68-.08,1.18.1.42.27.78.51,1.07.25.3.54.56.87.79.12.05.25.09.4.11.14.02.3.02.49,0,.19-.02.4-.08.65-.18.03.19.07.37.12.53.04.14.1.28.15.42.06.14.13.24.21.3Z"/><path class="cls-3" d="m65.66,11.51c-.08-1.29.92-2.37,2.21-2.43,1.28-.06,2.36.91,2.42,2.22.06,1.31-.93,2.37-2.23,2.43-1.26.06-2.34-.89-2.4-2.22Z"/><path class="cls-3" d="m84.85,12.05s-.02.08-.04.16c-.02.08-.02.19,0,.33.02.14.07.29.15.45s.22.35.43.56c-.24.1-.46.21-.67.32-.18.1-.34.22-.51.37-.16.14-.27.3-.33.48l-1.54,4.23c-.06.18-.08.35-.06.51.02.17.05.32.09.44.05.15.13.29.22.42h-.02s-3.2-.56-3.2-.56l.05-.03s.08-.08.15-.14.14-.14.21-.24c.07-.1.13-.22.18-.35s.08-.28.08-.44v-6.41s-2.19,6.03-2.19,6.03c-.05.15-.07.3-.07.44s.03.28.06.4c.03.12.07.22.12.3s.08.14.1.18l.03.05-3.2-.56h-.02c.13-.09.25-.19.35-.32.08-.1.16-.23.23-.39s.1-.32.11-.51l-.03-4.5c0-.18-.05-.37-.16-.56s-.23-.36-.34-.52c-.15-.17-.32-.35-.5-.52.29-.14.5-.28.63-.43.13-.15.23-.28.29-.41.06-.13.09-.27.09-.42l-.02-4.64c0-.19-.04-.35-.1-.5-.06-.15-.13-.28-.22-.4-.09-.14-.2-.27-.31-.39l3.12.54c-.11.1-.21.21-.3.34-.08.1-.15.22-.21.35-.06.13-.08.27-.08.41v7.69s2.49-7.04,2.49-7.04c0-.03.01-.04.02-.05,0,0,.01-.02.02-.05.05-.16.06-.32,0-.48-.05-.16-.12-.31-.2-.46-.1-.16-.22-.32-.35-.48l.4.07,2.72.47.4.07c-.18.1-.33.21-.47.33-.12.1-.24.21-.35.35-.11.13-.16.27-.16.42,0,.05,0,.08,0,.1l-.02,7.53,2.58-7.24c.05-.14.07-.28.06-.42s-.03-.27-.08-.4c-.04-.15-.09-.29-.16-.42l3.12.54c-.15.08-.29.17-.42.26-.12.09-.23.19-.34.31s-.19.27-.25.44l-1.59,4.38Z"/><path class="cls-3" d="m89.12,22.43c.17-.09.33-.18.46-.28.12-.09.24-.21.35-.35.11-.14.19-.3.23-.48.04-.18.08-.36.12-.55.04-.19.08-.35.1-.49.04-.17.07-.34.11-.5l-2.42-.92-.77,1.42c-.08.14-.12.29-.12.46,0,.17,0,.33.04.48.03.18.07.35.13.53l-2.97-1.12c.13-.06.26-.13.37-.21.1-.07.19-.15.29-.24.09-.08.17-.17.23-.26l2.25-4.14c.09-.16.13-.33.11-.52-.01-.19-.04-.36-.07-.53-.05-.19-.11-.38-.18-.57.31-.04.55-.1.74-.18.19-.08.34-.17.45-.27.12-.11.22-.22.28-.35.64-1.19,1.17-2.15,1.58-2.89.41-.74.64-1.13.69-1.18.07-.12.11-.27.1-.43,0-.16-.03-.32-.05-.47-.03-.17-.08-.34-.13-.53l4.51,1.71c-.18.1-.33.2-.47.3-.12.09-.23.2-.34.32s-.17.24-.19.36l-1.01,4.61c-.01.07-.02.15-.03.26,0,.11,0,.23.04.37.03.14.09.28.17.43s.2.3.37.46c-.18.08-.35.17-.5.27-.13.09-.26.2-.39.33-.13.13-.21.3-.26.49-.11.5-.22,1.01-.34,1.53s-.23,1-.33,1.43c-.1.43-.19.8-.25,1.08s-.1.45-.1.49c-.02.12-.02.25,0,.4.01.14.03.28.06.4.03.15.07.3.12.44l-2.98-1.13Zm1.82-4.59l1.59-7.06-3.48,6.35,1.89.72Z"/><path class="cls-3" d="m100.23,19.8c.08.3.15.61.2.93.05.32.07.65.07.98,0,.33-.06.67-.15,1.02-.09.35-.24.71-.45,1.09-1.18,2.1-2.69,2.63-4.55,1.59-.47-.27-.86-.55-1.16-.85-.3-.3-.5-.64-.6-1.02-.1-.38-.1-.8,0-1.27.11-.47.33-1.01.67-1.61l.19-.34c.06-.11.1-.24.11-.39,0-.15,0-.28-.02-.41-.02-.16-.05-.31-.1-.46l2.82,1.58c-.16.05-.31.1-.45.17-.12.05-.24.12-.36.2-.12.08-.21.17-.27.28l-.26.46c-.24.43-.32.81-.24,1.14s.28.58.58.75c.29.16.61.2.95.1.34-.1.62-.36.87-.79.24-.43.35-.87.33-1.3-.02-.44-.1-.89-.23-1.35-.05-.1-.13-.2-.25-.29-.12-.09-.24-.17-.37-.24-.15-.08-.3-.16-.47-.24.26-.33.4-.62.42-.85s.02-.39.01-.48c-.16-.59-.24-1.21-.24-1.85s.2-1.3.59-2.01c.62-1.1,1.3-1.77,2.04-2.01.74-.24,1.58-.1,2.52.43.93.52,1.49,1.16,1.68,1.92.19.76-.02,1.7-.64,2.8-.08.15-.13.3-.14.45-.01.15,0,.29.01.42.02.16.05.31.11.44l-2.8-1.57c.15-.03.3-.09.44-.15.12-.05.24-.12.36-.2.12-.08.21-.18.28-.29l.09-.17c.25-.44.33-.83.26-1.15-.08-.33-.26-.57-.56-.74-.31-.17-.62-.2-.94-.1s-.6.38-.85.82c-.21.37-.32.76-.34,1.14s.02.78.11,1.17c.05.12.13.24.23.35.09.11.21.22.36.33.15.11.35.21.6.3-.11.16-.2.32-.27.48-.06.13-.11.27-.16.41s-.07.26-.05.36Z"/><path class="cls-3" d="m105.13,31.18c-.05.16-.08.31-.09.45-.02.17-.01.33.02.48l-2.5-1.96c.15-.03.31-.07.47-.13.13-.04.27-.1.41-.18.14-.07.26-.18.37-.31l2.93-3.73-2.23-1.75-2.91,3.7c-.11.14-.19.29-.24.45-.05.16-.08.31-.09.45-.02.17-.01.33.02.48l-2.49-1.96c.15-.03.31-.07.47-.13.13-.04.27-.1.41-.17.14-.07.26-.18.37-.31l2.98-3.8c.05-.09.09-.21.1-.35s.01-.29,0-.44c-.01-.17-.03-.36-.06-.55.24,0,.45-.01.63-.06.17-.04.32-.1.43-.16.11-.06.2-.12.25-.18.05-.06.08-.09.09-.1l2.91-3.7c.09-.11.15-.24.18-.39s.06-.29.07-.43c.02-.17.02-.33.01-.49l2.5,1.96c-.16.01-.31.03-.45.07-.13.03-.25.09-.38.16-.13.07-.25.18-.36.32l-3.18,4.06,2.24,1.75,3.17-4.04c.09-.11.15-.24.18-.39.03-.15.06-.29.07-.43.02-.17.02-.33.01-.49l2.49,1.96c-.16.01-.31.03-.45.07-.13.03-.25.09-.38.16-.13.07-.25.18-.36.32l-2.91,3.7s-.03.05-.08.11c-.04.07-.08.16-.12.28-.04.12-.06.27-.06.45,0,.18.03.4.1.65-.19.02-.38.04-.55.07-.15.02-.29.05-.44.1-.15.05-.25.12-.32.2l-2.94,3.75c-.11.14-.19.29-.25.45Z"/><path class="cls-3" d="m107.98,33.98c-.07.15-.12.3-.15.43-.04.17-.05.33-.04.48l-2.28-2.29c.16,0,.32-.03.48-.07.14-.03.28-.07.43-.12.15-.05.28-.14.4-.26l3.41-3.39c.06-.08.11-.2.15-.34.03-.14.05-.29.05-.43.01-.17.01-.36,0-.55.24.04.45.04.63.02s.33-.06.45-.1c.12-.05.21-.09.27-.14.06-.05.09-.08.1-.09l3.34-3.32c.1-.1.18-.22.24-.37.06-.15.1-.29.13-.43.04-.17.06-.33.07-.48l2.28,2.29c-.15-.02-.3-.01-.46.01-.13.02-.26.06-.41.12s-.27.15-.39.27l-3.36,3.35s-.05.06-.1.11c-.05.05-.09.14-.14.26-.05.12-.08.27-.11.45-.02.18-.02.39.02.63-.19,0-.38,0-.55,0-.15,0-.29.02-.43.05-.14.03-.26.08-.34.15l-3.38,3.36c-.13.13-.23.27-.3.42Z"/><path class="cls-3" d="m113.89,41.1c-.07.14-.13.28-.18.41-.06.16-.1.32-.12.48l-2.02-2.62c.18.04.36.05.54.03.15-.02.31-.07.49-.15.18-.08.33-.22.46-.41l3.98-6.75-5.97,4.6c-.14.11-.26.24-.33.38-.08.14-.14.28-.17.4-.05.15-.08.31-.09.46l-1.95-2.53c.15.03.31.04.48.02.14-.01.29-.04.45-.07.16-.04.3-.11.44-.21l3.81-2.93v-.02c.06-.07.13-.18.18-.32s.09-.28.11-.43c.03-.17.06-.35.07-.55.24.08.45.11.63.11s.33-.02.45-.05c.12-.03.22-.07.29-.11.07-.04.1-.07.11-.08l3.81-2.93c.07-.06.14-.15.2-.27.06-.13.11-.26.16-.39.06-.16.11-.32.15-.48l2.14,2.77c-.18-.02-.36-.03-.53-.01-.15.02-.3.05-.45.1-.15.05-.28.14-.38.26l-3.81,6.45,5.66-4.36c.09-.07.17-.17.23-.3s.11-.26.15-.38c.05-.15.08-.31.1-.47l1.95,2.53c-.16-.02-.33-.03-.48-.02-.13,0-.27.02-.41.05-.14.03-.26.08-.35.15l-3.79,2.92s-.04.04-.1.09c-.06.05-.12.14-.18.25s-.12.26-.17.44-.07.39-.07.63c-.19-.03-.37-.06-.55-.07-.15-.02-.29-.02-.44,0-.15.01-.26.05-.35.1l-3.82,2.94c-.13.1-.24.22-.31.36Z"/><path class="cls-3" d="m121.98,42.02l1.57,2.91-1.72.93-1.98,1.07c-.38.2-.77.32-1.18.36-.41.04-.8,0-1.18-.11-.38-.11-.73-.29-1.06-.53-.32-.24-.59-.55-.79-.93l-.28-.51c-.2-.38-.32-.77-.35-1.17-.03-.41.02-.8.13-1.18.11-.38.3-.73.55-1.05.26-.32.57-.59.95-.79l2.63-1.42c.09-.06.16-.16.24-.28.07-.13.13-.26.17-.4.06-.16.11-.34.16-.53.22.1.42.17.6.2.18.03.33.04.46.03.13-.01.23-.03.3-.06.07-.03.11-.05.13-.06l2.61-1.41c.38-.2.77-.33,1.18-.36.41-.04.8,0,1.18.11.38.11.73.29,1.06.54.32.24.59.55.79.93l.29.53c.2.38.32.77.35,1.17s-.02.79-.13,1.17c-.12.37-.3.72-.56,1.04-.26.32-.57.59-.95.79l-.64.34c-.16.09-.29.2-.4.33-.11.13-.19.26-.26.38-.08.15-.14.3-.18.45l-1.55-2.86c.15.05.3.09.46.11.13.02.27.02.43.01.16-.01.31-.06.46-.14l.72-.39c.26-.14.44-.36.53-.64.09-.29.07-.55-.07-.8l-.29-.53c-.14-.26-.36-.43-.64-.51s-.56-.04-.82.1l-2.61,1.41s-.06.04-.13.08c-.06.04-.13.11-.21.21-.08.1-.15.23-.23.4-.07.16-.13.37-.16.61-.18-.06-.36-.12-.53-.16-.14-.04-.28-.07-.43-.08-.15-.01-.27,0-.37.04l-2.63,1.42c-.26.14-.44.35-.53.63-.09.28-.07.55.07.81l.28.51c.14.26.35.43.64.51s.56.04.82-.1l1.96-1.06c-.08-.17-.17-.3-.29-.42s-.23-.21-.34-.28c-.11-.07-.2-.13-.28-.16s-.13-.04-.14-.03l2.18-1.18Z"/><path class="cls-3" d="m130.92,52.77c.12-.24.22-.47.31-.71.08-.21.14-.42.18-.63.04-.21.03-.39-.02-.54l-.48-1.34-3.75,1.34s-.07.03-.14.07c-.07.04-.15.1-.25.18-.1.08-.19.2-.28.35-.09.15-.17.34-.24.57-.17-.09-.34-.17-.5-.23-.13-.06-.27-.11-.42-.14s-.27-.03-.38-.01l-4.71,1.68c-.11.04-.21.11-.31.21-.09.1-.18.21-.25.32-.09.13-.17.27-.22.43l-1.11-3.1c.15.07.3.13.45.17.12.04.26.07.39.09s.27,0,.39-.04l4.67-1.67c.09-.05.19-.13.28-.25.1-.12.18-.24.24-.38.08-.15.16-.32.24-.5.2.14.39.23.56.29s.32.09.45.1c.13,0,.23,0,.31-.02.08-.02.12-.03.13-.04l3.75-1.34-.45-1.26c-.05-.15-.16-.29-.33-.43-.17-.14-.34-.26-.53-.36-.21-.13-.44-.25-.69-.35l3-.49,2.33,6.5-2.63,1.52Z"/><path class="cls-3" d="m128.82,62.85c-.16-.12-.31-.22-.46-.31-.12-.08-.25-.15-.39-.2-.14-.05-.26-.08-.36-.07l-2.97.58c-.42.08-.83.08-1.23-.01-.4-.09-.76-.25-1.1-.47s-.62-.5-.85-.84c-.23-.33-.39-.71-.47-1.13l-.13-.57c-.08-.42-.07-.83.02-1.22s.25-.76.47-1.09c.22-.33.5-.62.84-.85.34-.23.72-.39,1.14-.47l2.97-.58c.1-.05.2-.12.31-.22s.2-.21.28-.33c.11-.14.21-.29.31-.44.18.16.34.28.5.36.15.08.29.13.41.16.12.03.22.04.31.04s.14,0,.17-.01l2.89-.56c.42-.08.83-.08,1.23.01.4.09.76.25,1.1.47s.62.5.85.84c.23.33.39.71.47,1.13l.11.59c.08.42.08.83-.01,1.22-.09.39-.25.76-.48,1.08s-.51.61-.84.84c-.33.23-.71.39-1.13.47l-2.89.56s-.08.02-.15.05c-.07.03-.16.08-.27.15s-.21.17-.33.3c-.11.13-.22.3-.33.52Zm-5.82-2.84c.06.29.23.52.52.67s.57.2.85.14l2.9-.56c.1-.05.2-.12.3-.22.1-.1.19-.21.27-.33.11-.14.2-.28.29-.43.18.16.34.29.5.37s.3.14.42.17c.12.03.23.04.31.04.08,0,.13,0,.16-.01l2.78-.54c.28-.05.53-.21.74-.46.21-.25.29-.52.23-.8l-.11-.6c-.06-.29-.23-.52-.52-.67s-.57-.2-.85-.14l-2.78.54s-.08.02-.15.05c-.07.03-.16.08-.27.15-.1.07-.21.17-.33.3-.11.13-.22.3-.33.52-.15-.1-.3-.2-.45-.29-.12-.08-.25-.15-.39-.21-.14-.06-.26-.09-.36-.08l-2.86.55c-.28.05-.53.21-.75.45-.22.25-.3.52-.24.82l.13.57Z"/><path class="cls-3" d="m122.93,72.03c-.14.07-.27.15-.38.23-.14.1-.27.2-.38.32l-.11-3.31c.12.14.26.25.42.34.13.07.29.13.48.17.19.04.39.02.61-.07l7.17-3.15-7.53.25c-.18,0-.35.04-.5.11s-.27.15-.37.23c-.13.09-.24.2-.34.32l-.1-3.19c.11.11.23.21.38.3.12.07.26.14.41.2.15.06.31.09.48.08l4.8-.16v-.02c.1-.02.22-.07.35-.15.13-.08.24-.18.34-.28.13-.12.25-.25.38-.4.15.2.3.35.44.45s.28.17.4.22c.12.05.22.07.3.08.08,0,.12,0,.14,0l4.8-.16c.09,0,.2-.04.32-.11s.24-.14.35-.23c.14-.1.27-.2.4-.31l.11,3.5c-.13-.13-.27-.23-.42-.32-.13-.07-.28-.13-.43-.18-.15-.05-.3-.05-.46,0l-6.86,3.01,7.14-.23c.12,0,.24-.04.37-.11.13-.07.24-.14.34-.23.13-.09.25-.2.36-.32l.1,3.19c-.12-.11-.25-.21-.38-.3-.11-.07-.23-.14-.36-.2-.13-.06-.26-.09-.37-.08l-4.78.16s-.06,0-.14.01-.17.04-.29.1c-.12.06-.25.14-.39.26s-.29.27-.42.47c-.14-.14-.27-.26-.4-.38-.11-.1-.22-.19-.35-.26-.13-.07-.24-.12-.35-.13l-4.82.16c-.17,0-.32.04-.47.11Z"/><path class="cls-3" d="m125.42,81.01c.17-.04.31-.08.44-.14.16-.06.3-.14.43-.22l-.56,3.18c-.08-.13-.19-.26-.31-.37-.1-.1-.22-.19-.36-.27-.14-.08-.28-.14-.42-.16l-.79-.14c-.42-.07-.81-.22-1.15-.45s-.63-.5-.86-.82c-.23-.32-.39-.68-.5-1.07-.1-.39-.12-.8-.04-1.22l.1-.58c.07-.42.22-.8.45-1.14.22-.34.5-.62.83-.84.33-.23.69-.39,1.09-.48s.8-.11,1.23-.03l2.96.52c.1,0,.22-.02.36-.08.14-.06.26-.13.38-.21.15-.09.3-.2.45-.32.11.22.22.39.34.52.12.13.24.24.34.31.11.07.2.12.27.14.08.02.12.03.13.03l2.92.51c.42.07.81.22,1.15.45.34.22.63.5.86.82.23.32.39.68.5,1.07.1.39.12.8.04,1.22l-.1.59c-.07.42-.23.8-.46,1.14-.23.33-.51.61-.83.83-.32.22-.68.38-1.08.47-.4.09-.81.1-1.24.03l-.58-.1c-.18-.03-.35-.03-.52,0-.16.04-.31.08-.44.14-.16.06-.3.15-.42.24l.56-3.2c.08.13.18.26.29.37.09.09.2.19.33.27.13.09.28.15.46.18l.65.11c.3.05.56,0,.79-.18.23-.17.38-.39.43-.68l.1-.59c.05-.29,0-.56-.17-.79-.16-.23-.39-.38-.69-.43l-2.92-.51s-.07-.01-.15-.02-.17,0-.29.04-.27.09-.43.17c-.16.08-.33.21-.5.38-.1-.16-.21-.31-.32-.45-.08-.12-.18-.23-.29-.33-.11-.1-.21-.16-.31-.19l-2.96-.52c-.28-.05-.54,0-.77.17-.23.16-.38.39-.43.69l-.1.57c-.05.29,0,.56.17.79.16.23.39.38.69.43l.69.12c.18.03.35.03.52,0Z"/><path class="cls-3" d="m120.57,86.12c-.17.01-.32.04-.45.08-.16.05-.31.11-.44.19l.92-3.1c.08.13.18.26.29.39.09.11.19.21.31.32.12.1.26.18.42.23l4.61,1.37c.1.02.22,0,.37-.03s.28-.09.41-.16c.16-.08.32-.16.48-.26.08.23.18.41.28.56.11.15.21.26.31.34.1.08.18.14.26.17.07.03.12.04.13.05l4.51,1.34c.14.04.28.05.44.03.16-.02.3-.05.44-.09.16-.05.32-.1.46-.17l-.92,3.1c-.05-.14-.13-.27-.23-.39-.08-.1-.18-.2-.3-.3-.12-.1-.26-.17-.42-.22l-4.55-1.35s-.07-.02-.14-.03c-.07-.01-.17-.01-.3,0-.13.02-.28.06-.44.12-.17.06-.35.17-.54.32-.08-.17-.17-.33-.26-.48-.07-.13-.15-.25-.25-.36s-.19-.19-.29-.23l-4.57-1.35c-.18-.05-.35-.07-.51-.06Z"/><path class="cls-3" d="m126.82,98.92c.25-.09.49-.19.71-.31.2-.1.39-.21.56-.34.18-.13.29-.27.36-.41l.56-1.3-3.66-1.58s-.07-.03-.15-.04c-.08-.02-.18-.03-.3-.04-.13,0-.27.02-.44.06-.17.05-.36.13-.57.25-.06-.18-.13-.35-.2-.51-.05-.14-.13-.27-.21-.39-.09-.12-.18-.21-.27-.26l-4.59-1.98c-.11-.05-.23-.06-.37-.05-.14.01-.27.03-.4.06-.16.03-.31.09-.45.16l1.3-3.02c.06.15.13.3.22.43.06.11.14.22.23.33.09.11.19.19.31.24l4.56,1.96c.1.03.23.03.38.01.15-.02.29-.06.43-.11.17-.06.34-.12.51-.2.05.24.13.43.21.59.09.16.18.28.26.38s.17.16.23.2c.07.04.11.06.12.06l3.66,1.58.53-1.23c.06-.14.08-.32.05-.54-.03-.22-.08-.42-.15-.62-.07-.24-.15-.48-.26-.73l2.53,1.68-2.73,6.34-2.96-.68Z"/><path class="cls-3" d="m124.37,108.87c-.02-.15-.04-.3-.06-.45-.02-.14-.06-.27-.1-.41-.05-.14-.11-.25-.2-.36-.04-.06-.17-.21-.39-.46-.22-.25-.48-.56-.79-.93s-.65-.77-1.02-1.19c-.37-.43-.73-.85-1.08-1.27-.08-.11-.2-.19-.34-.23-.12-.05-.29-.07-.49-.06-.2,0-.45.07-.74.19.03-.2.04-.4.04-.62,0-.19-.03-.4-.06-.64-.03-.24-.1-.49-.21-.74l-.03-.02-.28-.36-3.41-2.13c-.12-.08-.27-.13-.44-.16-.17-.03-.34-.05-.5-.06-.18,0-.37,0-.58,0l1.69-2.71c.08.19.16.36.25.52.08.14.17.28.26.41.09.13.19.23.29.29l3.5,2.18s.07.01.12.03c.04,0,.09.02.14.04.05.02.11.03.18.04.28-.03.53-.07.77-.14s.44-.14.61-.22c.2-.09.38-.2.55-.32.01.3.06.54.14.72s.16.31.24.4c.08.09.16.15.23.18.07.03.12.05.14.07.54.14,1.09.28,1.65.42.56.14,1.07.27,1.54.39.47.12.87.22,1.2.3s.52.14.6.17c.14.03.28.03.41.02.14-.01.26-.04.38-.07.13-.04.27-.09.4-.16l-1.82,2.92c-.01-.18-.05-.34-.1-.5-.04-.13-.1-.26-.18-.38-.08-.12-.19-.19-.34-.23l-4.76-1.23,3.2,3.76c.07.09.18.14.32.17.15.02.29.02.42,0,.17-.02.33-.05.5-.1l-1.82,2.92Z"/></g><g><path class="cls-3" d="m12.47,83.42c1.05-.29,2.13.37,2.4,1.42.27,1.05-.36,2.12-1.43,2.39-1.06.27-2.13-.37-2.4-1.44-.26-1.04.36-2.1,1.44-2.37Z"/><path class="cls-3" d="m21.28,91.81l-3.85,1.73.75,1.66v.02c.05.1.13.2.23.29.1.09.21.17.32.23.13.08.27.15.42.2l-2.8,1.26c.05-.13.09-.27.13-.41.03-.12.04-.25.05-.39s-.02-.27-.08-.4v-.02s-.75-1.66-.75-1.66l-4.15,1.87c-.14.06-.26.15-.37.26s-.2.22-.27.34c-.09.14-.16.28-.22.43l-1.25-2.79c.17.03.33.06.49.09.15.02.29.03.44.03.15,0,.29-.03.42-.08l4.21-1.89c.09-.05.17-.14.25-.25.08-.12.14-.24.19-.38.07-.15.13-.32.19-.5.2.11.39.19.56.23s.32.06.44.06c.12,0,.22-.01.29-.04.07-.03.11-.04.12-.05l4.26-1.91c.1-.05.2-.12.28-.23s.16-.21.22-.32c.08-.13.15-.27.21-.4l2.37,5.28-2.19,1.56c.05-.19.1-.37.14-.56.04-.17.05-.34.05-.53,0-.18-.04-.36-.11-.52l-.99-2.21Z"/><path class="cls-3" d="m17.86,106.12c.16.09.3.17.44.23.16.06.32.11.5.15l-2.51.96-3.1-4.94c.18,0,.36,0,.53,0,.16-.01.32-.03.48-.06s.31-.09.44-.17l3.81-2.39c.08-.06.15-.16.21-.29.06-.13.11-.26.14-.4.05-.16.09-.33.12-.52.22.09.41.14.57.15.17.01.31.01.43,0,.12-.02.22-.04.29-.07.07-.03.12-.05.14-.06l3.84-2.41c.11-.07.2-.16.29-.29.08-.13.15-.25.21-.38.07-.15.13-.3.19-.45l3.08,4.91-1.95,1.84c.03-.19.05-.38.06-.55,0-.16,0-.33-.02-.5s-.06-.33-.13-.49l-.03-.05-1.29-2.06-3.57,2.24.97,1.54v.02c.08.12.18.21.29.29.11.08.23.14.35.18.13.05.28.09.42.11l-2.6,1.63c.05-.12.08-.24.1-.37.02-.11.02-.24,0-.39-.02-.14-.07-.29-.16-.44l-.98-1.56-3.28,2.06,1.35,2.16c.1.14.23.26.39.35Z"/><path class="cls-3" d="m23.28,113.13c.17.07.32.13.47.17.16.04.34.07.51.08l-2.35,1.29-3.75-4.46c.18-.02.35-.05.53-.08.15-.03.31-.07.47-.13s.3-.13.41-.22l3.44-2.89c.07-.07.13-.18.17-.31.04-.13.07-.27.08-.41.02-.17.04-.34.05-.53.23.05.42.08.59.07.17,0,.31-.03.43-.06.12-.04.21-.07.28-.11.07-.04.11-.07.13-.08l3.47-2.92c.1-.08.18-.19.24-.33s.12-.27.16-.4c.05-.16.09-.31.12-.47l3.73,4.43-1.68,2.1c0-.2,0-.38-.02-.55-.02-.16-.05-.32-.09-.49s-.1-.32-.2-.47l-.04-.04-1.57-1.87-3.23,2.71,1.17,1.39v.02c.1.1.21.19.33.25.12.06.25.1.37.13.14.03.28.05.44.05l-2.35,1.97c.03-.12.04-.25.05-.38,0-.11-.02-.24-.05-.38-.04-.14-.11-.28-.22-.41l-1.18-1.41-2.97,2.49,1.64,1.95c.12.13.27.22.43.3Z"/><path class="cls-3" d="m29.04,118.86c.18.06.36.11.54.13s.34.04.49.04c.15,0,.27,0,.34-.02l-2.37,1.63-3.91-3.56c.18-.04.36-.08.53-.13.15-.05.3-.11.45-.19s.28-.17.38-.28l.03-.03,3-3.3c.06-.08.1-.19.13-.33.02-.14.03-.28.03-.42,0-.17,0-.35-.02-.53.23.02.43.02.6-.01.17-.03.31-.07.43-.12.11-.05.2-.1.25-.15.06-.05.09-.08.1-.09l3.01-3.31c.13-.14.22-.29.27-.44.05-.15.09-.29.1-.42.02-.15.02-.29,0-.43l2.31,2.11c-.23-.04-.46-.01-.69.09s-.4.21-.52.34l-3.07,3.37s-.05.06-.09.12c-.04.06-.08.15-.12.27-.04.12-.07.26-.08.42-.02.16,0,.36.05.59-.18,0-.35.02-.52.04-.14,0-.28.03-.42.06-.14.03-.25.08-.33.15l-2.67,2.94,1.3,1.19c.12.11.27.19.45.26Z"/><path class="cls-3" d="m38.5,119.81c.05.3.09.6.11.91s.01.63-.02.94c-.04.32-.11.64-.23.97-.12.33-.3.66-.53,1-1.32,1.91-2.82,2.29-4.51,1.13-.43-.3-.78-.6-1.04-.92-.26-.32-.42-.66-.49-1.03-.06-.37-.02-.78.12-1.22s.41-.94.78-1.48l.21-.31c.07-.1.12-.22.14-.36s.03-.27.02-.4c0-.15-.02-.3-.05-.45l2.56,1.76c-.16.03-.31.07-.45.13-.12.04-.24.09-.36.16s-.22.15-.28.24l-.29.42c-.27.39-.38.75-.33,1.07.05.32.21.58.49.77.27.18.57.25.9.18.33-.06.63-.29.9-.68s.41-.8.43-1.22c.02-.42-.02-.86-.1-1.31-.04-.1-.11-.2-.22-.3-.11-.1-.22-.18-.33-.26-.13-.09-.28-.18-.43-.27.28-.3.44-.55.48-.78.04-.22.06-.38.05-.46-.1-.58-.12-1.18-.06-1.79.05-.61.3-1.23.74-1.88.69-1,1.4-1.59,2.14-1.75s1.53.05,2.38.63c.84.58,1.32,1.25,1.44,1.99.11.75-.17,1.62-.86,2.63-.09.13-.15.27-.17.42-.02.14-.03.28-.03.4,0,.15.02.3.07.43l-2.55-1.75c.15-.02.3-.06.44-.11.12-.04.24-.09.36-.16.12-.07.22-.15.29-.26l.11-.16c.28-.4.39-.77.35-1.08-.05-.32-.2-.57-.47-.76-.28-.19-.58-.25-.89-.18-.32.07-.61.31-.89.71-.23.34-.38.7-.43,1.07-.05.37-.05.75,0,1.13.04.12.1.24.19.36.07.11.18.23.32.34.14.12.32.23.55.34-.12.15-.22.29-.3.43-.07.12-.13.25-.19.38-.06.13-.09.25-.08.35Z"/><path class="cls-3" d="m46.39,129.61c.19,0,.37-.01.55-.04.18-.03.34-.07.48-.12.14-.05.25-.09.32-.13l-1.73,2.3-4.84-2.14c.16-.09.32-.19.46-.29.13-.1.25-.2.37-.32s.21-.25.27-.38l.02-.03,1.8-4.08c.03-.1.03-.21.01-.35s-.06-.28-.11-.41c-.05-.16-.11-.33-.19-.5.23-.05.42-.12.57-.2.15-.08.28-.17.37-.25s.16-.16.19-.22c.04-.07.06-.11.06-.12l1.81-4.1c.08-.17.12-.34.12-.5,0-.16,0-.31-.04-.43-.03-.15-.07-.29-.13-.41l2.86,1.26c-.23.03-.44.13-.62.3s-.31.33-.38.49l-1.84,4.17s-.02.07-.04.15-.03.17-.03.3.02.27.06.43c.04.16.11.34.23.54-.17.06-.32.13-.48.2-.13.05-.26.11-.38.19s-.21.16-.26.25l-1.6,3.63,1.61.71c.15.07.32.1.51.1Z"/><path class="cls-3" d="m51.48,132.73c0,.16.03.31.07.44.04.16.1.3.18.43l-2.96-.95c.13-.08.26-.17.38-.27.11-.08.21-.18.31-.3.1-.11.18-.25.23-.4l1.41-4.41c.02-.1.01-.22-.02-.35-.04-.14-.09-.27-.15-.39-.07-.15-.15-.31-.24-.47.22-.07.4-.16.55-.26.14-.1.26-.2.34-.29s.14-.17.17-.24c.03-.07.05-.11.05-.12l1.38-4.32c.04-.13.05-.27.04-.42-.02-.15-.05-.29-.08-.42-.04-.16-.09-.31-.15-.44l2.96.95c-.13.05-.26.12-.38.21-.1.07-.2.17-.3.28-.09.11-.17.25-.22.41l-1.39,4.36s-.02.07-.03.14c-.02.07-.02.16,0,.29.01.12.05.27.11.43.06.16.16.34.29.53-.17.08-.33.16-.47.25-.13.07-.24.14-.35.23s-.18.18-.22.27l-1.4,4.37c-.05.17-.08.33-.07.49Z"/><path class="cls-3" d="m59.47,135.3c.09-.07.19-.15.28-.24.09-.1.17-.21.24-.33s.09-.24.06-.36l-1.03-5.17-1.47,1.85-.5,2.74c-.03.14-.02.28,0,.42.03.15.07.28.13.41.06.15.14.3.22.44l-3.01-.55c.12-.12.24-.24.35-.36.09-.1.18-.21.27-.32.08-.12.14-.24.16-.36l.84-4.59c0-.1-.04-.22-.09-.36-.05-.14-.12-.26-.2-.38-.09-.14-.18-.28-.29-.42.21-.09.37-.19.49-.3s.22-.22.29-.32c.07-.1.12-.19.15-.27.03-.08.04-.13.05-.15l.85-4.63c.02-.11.01-.23-.03-.35s-.09-.24-.15-.35c-.07-.13-.14-.26-.21-.38l3,.55c-.13.1-.26.21-.37.33-.09.1-.18.2-.26.31-.08.11-.12.2-.14.29l-.94,5.13,3.62-4.58c.16-.2.21-.42.14-.66s-.17-.41-.31-.5l3.47.64c-.19.08-.37.17-.53.27-.16.09-.31.19-.45.3-.15.11-.28.24-.39.37l-3.1,3.93-.02.02c.01.15.06.31.17.45.08.13.21.26.39.4s.44.27.78.39c-.16.2-.3.4-.42.61-.1.17-.18.36-.27.56-.08.2-.11.39-.07.56.12.6.23,1.16.33,1.68.1.52.19.98.26,1.37.07.39.13.7.18.94.05.24.08.38.09.44.03.13.08.27.16.42s.16.29.24.42c.1.16.2.31.32.46l-3.47-.64s.07-.05.16-.11Z"/><path class="cls-3" d="m70.8,134.38c.16-.08.31-.16.44-.24.14-.1.27-.21.4-.33l-.6,2.62-5.83-.16c.1-.15.2-.3.29-.44.08-.14.15-.28.22-.44.07-.16.1-.31.11-.46l.12-4.5c-.01-.1-.05-.21-.12-.33-.07-.12-.16-.23-.25-.34-.11-.13-.23-.26-.36-.39.19-.13.34-.26.44-.39.1-.13.18-.25.23-.36s.09-.2.1-.28c.01-.07.02-.13.02-.15l.12-4.53c0-.13-.02-.26-.08-.4-.06-.14-.12-.27-.2-.38-.08-.14-.17-.27-.27-.4l5.79.16.45,2.65c-.15-.13-.29-.25-.42-.35-.14-.09-.28-.18-.42-.26-.15-.08-.31-.13-.48-.16h-.06s-2.44-.07-2.44-.07l-.11,4.21,1.82.05h.02c.14,0,.27-.02.4-.07.13-.05.24-.12.34-.19.11-.08.22-.18.33-.29l-.08,3.07c-.07-.1-.16-.2-.25-.29-.09-.08-.19-.15-.32-.22-.13-.07-.28-.1-.46-.11l-1.84-.05-.1,3.88,2.55.07c.18,0,.35-.05.51-.13Z"/><path class="cls-3" d="m84.75,134.16c.08.14.17.26.26.36.11.12.23.22.36.3l-3.01.53c.08-.13.15-.27.21-.42.05-.12.1-.26.14-.41s.04-.3.01-.46l-.79-4.5-2.7.47.79,4.47c.03.17.09.33.17.47.08.14.17.26.26.36.11.12.23.22.36.3l-3.01.53c.08-.13.15-.27.21-.42.05-.12.1-.26.14-.41s.04-.3.01-.46l-.81-4.58c-.03-.1-.09-.2-.19-.3-.09-.1-.2-.2-.32-.28-.13-.1-.28-.21-.43-.31.16-.17.28-.33.36-.48.08-.15.14-.29.17-.41.03-.12.04-.22.03-.29,0-.08-.01-.12-.01-.13l-.79-4.47c-.02-.14-.08-.26-.16-.38-.08-.12-.17-.23-.27-.33-.11-.12-.22-.23-.34-.32l3.01-.53c-.09.12-.17.24-.24.37-.06.11-.1.24-.13.38s-.03.3,0,.47l.86,4.89,2.7-.47-.86-4.87c-.02-.14-.08-.26-.16-.38-.08-.12-.17-.23-.27-.33-.11-.12-.22-.23-.34-.32l3.01-.53c-.09.12-.17.24-.24.37-.06.11-.1.24-.13.38-.03.14-.03.3,0,.47l.79,4.47s.01.06.03.13.06.16.12.27c.06.1.16.21.29.33.13.12.3.23.53.35-.11.15-.21.29-.3.44-.08.12-.15.24-.21.38-.06.14-.08.26-.06.35l.8,4.52c.03.17.09.33.17.47Z"/><path class="cls-3" d="m92.97,125.2c-.09.16-.17.32-.23.48-.06.13-.11.26-.14.4-.03.14-.04.26-.02.35l.95,2.76c.14.39.19.78.16,1.17-.03.39-.13.76-.3,1.11-.17.35-.4.66-.68.92s-.62.46-1.01.6l-.53.2c-.39.14-.78.18-1.17.15-.39-.04-.76-.14-1.11-.31-.35-.17-.65-.39-.92-.69-.27-.29-.47-.64-.6-1.03l-.95-2.76c-.06-.09-.14-.17-.25-.26-.11-.09-.23-.16-.35-.23-.15-.08-.3-.16-.46-.24.13-.19.22-.37.28-.52.05-.16.08-.29.1-.41.01-.12.01-.22,0-.3s-.03-.13-.03-.16l-.93-2.69c-.13-.39-.19-.78-.16-1.17.03-.39.13-.76.3-1.11.17-.35.4-.66.68-.92s.62-.46,1.01-.6l.55-.19c.39-.14.78-.19,1.17-.15.39.03.75.14,1.1.31.34.17.65.4.91.69s.46.63.6,1.02l.93,2.69s.03.07.07.14.1.15.18.24c.08.09.19.18.33.27.14.09.32.17.54.24Zm-1.92,5.94c.27-.09.46-.29.57-.58.1-.29.11-.57.02-.83l-.93-2.69c-.06-.09-.14-.17-.25-.25-.11-.08-.23-.15-.35-.22-.15-.08-.3-.16-.45-.22.13-.19.23-.37.28-.53.06-.16.09-.3.1-.42.01-.12,0-.22,0-.3-.01-.08-.02-.13-.03-.15l-.89-2.58c-.09-.26-.27-.47-.54-.64-.27-.17-.54-.2-.8-.11l-.55.19c-.27.09-.46.29-.57.58-.1.3-.11.57-.02.83l.89,2.58s.03.07.07.14.1.15.18.24c.08.09.19.18.33.27.14.09.32.17.54.24-.08.16-.15.32-.21.47-.06.13-.11.26-.15.4s-.05.26-.03.36l.91,2.65c.09.26.27.48.53.65.27.17.54.21.81.12l.53-.2Z"/><path class="cls-3" d="m104.92,125.37c.08.14.18.26.3.36.12.1.24.18.36.24.14.08.29.14.45.18l-2.67,1.49c.03-.16.05-.31.06-.47.02-.12.02-.26.02-.4,0-.14-.03-.25-.08-.34l-3.87-6.94,1.74,7.71-5.62-5.53,3.76,6.74c.09.15.19.28.32.38.13.1.25.18.37.25.14.08.29.14.44.18l-2.68,1.5c.03-.19.04-.37.04-.54,0-.16-.01-.31-.03-.47-.02-.16-.05-.29-.11-.4l-2.23-3.99c-.06-.08-.15-.16-.28-.22s-.25-.12-.39-.16c-.16-.05-.33-.1-.51-.15.1-.21.16-.4.18-.58.03-.17.03-.32.02-.44-.01-.12-.03-.22-.06-.29s-.05-.11-.06-.12l-2.26-4.06c-.05-.09-.13-.17-.25-.25-.12-.08-.23-.14-.34-.2-.14-.07-.28-.12-.44-.17l3.14-1.75c-.05.14-.08.29-.1.44-.02.13-.02.25,0,.39.02.13.08.25.18.35l4.09,4.03-1.27-5.56c-.05-.13-.12-.25-.22-.34-.1-.09-.21-.17-.32-.22-.14-.07-.28-.12-.44-.17l3.14-1.75c-.04.16-.06.33-.07.49,0,.15,0,.3.03.46.02.16.08.31.16.47l2.13,3.83s.03.05.07.11.11.13.21.21c.1.07.23.15.39.21s.36.12.59.15c-.06.18-.11.35-.14.51-.04.14-.06.27-.07.42s0,.26.05.35l2.25,4.04Z"/><path class="cls-3" d="m111.91,119.11c.08-.17.13-.32.18-.47.04-.16.07-.33.09-.51l1.25,2.38-4.54,3.66c-.02-.18-.04-.36-.06-.53-.03-.15-.07-.31-.12-.47-.05-.16-.12-.3-.22-.42l-2.83-3.5c-.07-.07-.18-.13-.31-.17-.13-.05-.27-.08-.41-.09-.17-.03-.34-.05-.53-.06.06-.22.09-.42.08-.59s-.02-.31-.06-.43c-.03-.12-.07-.21-.1-.28s-.06-.11-.08-.13l-2.85-3.53c-.08-.1-.19-.18-.32-.25-.14-.07-.27-.12-.4-.16-.15-.05-.31-.1-.47-.13l4.51-3.64,2.06,1.72c-.2,0-.38,0-.55,0-.16.02-.33.04-.49.08-.16.04-.32.1-.47.19l-.04.04-1.9,1.53,2.65,3.28,1.41-1.14h.01c.11-.1.19-.2.25-.33.06-.12.11-.24.14-.37.03-.14.05-.28.06-.43l1.93,2.39c-.12-.03-.25-.05-.38-.05-.12,0-.24.01-.39.05-.14.03-.28.1-.42.21l-1.43,1.15,2.43,3.02,1.98-1.6c.13-.12.23-.26.31-.43Z"/><path class="cls-3" d="m113.97,111.64c-.83-.71-.9-1.97-.18-2.78.72-.82,1.95-.9,2.78-.17.82.72.9,1.97.17,2.8-.71.8-1.94.89-2.77.16Z"/></g></g></g></svg>