<?xml version="1.0" encoding="UTF-8"?><svg id="Layer_2" xmlns="http://www.w3.org/2000/svg" viewBox="0 0 96.26 96.26"><defs><style>.cls-1{fill:#58595b;}.cls-2{fill:#82c886;}.cls-2,.cls-3,.cls-4,.cls-5{fill-rule:evenodd;}.cls-3{fill:#17743b;}.cls-4{fill:#e8e9e8;}.cls-5{fill:#fff;}</style></defs><g id="_11x17_Poster"><g><path class="cls-5" d="m48.13,0c26.58,0,48.13,21.55,48.13,48.13s-21.55,48.13-48.13,48.13S0,74.71,0,48.13,21.55,0,48.13,0"/><path class="cls-2" d="m46.66,96.26c5.22,0,8.09-.14,13.22-1.41,3.02-.75,6.01-1.83,8.59-3.07.35-.17.62-.27.97-.44,1.39-.69,3.39-1.79,4.64-2.63,7-4.7,11.38-9.26,15.69-16.38.86-1.42,1.32-2.42,2.01-3.85,2.54-5.27,4.48-12.78,4.48-18.83,0-5.22-.14-8.09-1.41-13.22-.8-3.25-2.11-6.75-3.51-9.55-.17-.34-.32-.68-.5-.99-1.35-2.32-1.7-3.1-3.34-5.42-3.2-4.54-7.12-8.45-11.66-11.66-2.67-1.89-4.49-2.89-7.38-4.28-2.58-1.24-5.56-2.32-8.59-3.07-1.54-.38-3.17-.72-4.84-.95-6.3-.89-12.6-.54-18.74.98-2.1.52-4.68,1.39-6.68,2.23-1.54.65-3.02,1.37-4.46,2.15-2.53,1.36-5.31,3.28-7.53,5.09-1.37,1.12-2.61,2.3-3.87,3.56l-1.74,1.89c-.17.18-.19.19-.35.39-.22.28-.46.52-.69.8-.24.28-.43.53-.66.83-.24.3-.42.54-.65.84-.43.57-.86,1.15-1.24,1.73-.4.6-.79,1.16-1.17,1.8l-1.1,1.87c-.97,1.9-1.47,2.67-2.44,4.98l-1.21,3.25c-.5,1.5-.94,2.98-1.3,4.64C.47,40.71-.05,44.31,0,48.13c.11,7.4,1.27,12.89,4.13,19.52.3.69.59,1.31.92,1.98.97,1.94,2.12,3.82,3.31,5.6.8,1.2,1.65,2.27,2.54,3.4l2.09,2.36c.25.32.44.49.72.77,1.67,1.67,2.84,2.74,4.65,4.19.14.12.27.19.42.32l1.27.95c1.71,1.28,4.51,2.97,6.46,3.94.35.18.66.35,1,.48l2.05.92c1.89.81,4.66,1.73,6.67,2.24,3.08.77,7.18,1.45,10.43,1.45M2.11,48.88c-.2-2.91.46-7.63,1.04-10.46.16-.76.35-1.52.55-2.27,1.55-5.78,4.04-10.7,7.54-15.48,1.26-1.73,1.98-2.44,3.27-3.93.75-.86,2.85-2.88,3.68-3.52,1.21-.94,1.77-1.5,3.25-2.54,4.61-3.25,10.03-5.93,15.77-7.25,7.12-1.64,13.44-1.76,20.65-.28,7.38,1.52,13.7,4.89,19.38,9.36.9.71,1.52,1.34,2.3,2.01.75.66,2.96,2.96,3.52,3.68.96,1.22,1.47,1.75,2.54,3.25,4.32,6.05,7.14,13.02,8.15,20.58.73,5.51.49,10.41-.63,15.84-1.13,5.51-3.81,11.71-6.92,16.1-1.25,1.76-3.61,4.9-5.17,6.34-1.51,1.41-2.06,1.99-3.72,3.4l-2.49,1.9c-6.08,4.33-12.99,7.14-20.58,8.15-8.58,1.14-16.72-.08-24.54-3.44-5.19-2.23-8.24-4.53-12.25-7.87l-1.5-1.4c-.9-.97-1.95-1.93-2.76-2.96-.22-.28-.4-.47-.65-.76-.23-.28-.4-.52-.66-.83-4.96-6.13-8.32-14.22-9.39-22.24-.25-1.87-.29-3.51-.41-5.38Z"/><path class="cls-2" d="m47.3,78.56c-.03.56-.35,1.84.17,2.11,6.88,0,12.38-1.61,17.28-4.55,9.6-5.78,15.92-16.15,15.91-27.75,0-5.08-.9-9.04-2.83-13.51-.36-.84-1.42-2.99-1.9-3.55.08.76.2,1.48.21,2.28,0,.51-.15,2.17-.09,2.44l.72,1.82c1.2,3.26,1.92,7.4,1.79,10.96-.23,6.24-1.94,11.27-4.72,15.6-1.39,2.16-1.79,2.54-3.28,4.3-.39.47-.89.86-1.3,1.3-.27.29-.35.39-.64.62-1.94,1.6-2.69,2.34-5.13,3.78-4.56,2.69-9.85,4.25-16.2,4.15"/><path class="cls-2" d="m42.37,80.15c-.55-.95-.38-.9-.47-2.23-5.92-1.1-10.5-4.03-14.45-7.46-.37-.32-.73-.75-1.07-1.08-.21-.21-.38-.33-.56-.55-.2-.24-.29-.35-.52-.59-.94-.96-3.19-4.13-3.64-5.17-.54.04-1.51.29-2.02-.74-.43-.85,0-1.74.6-1.98-.06-.31-.24-.64-.36-.94-1.18-2.97-1.97-6.38-2.11-9.62-.07-1.52-.63-1.9-1.29-3.91l-.55-2.01c-.42.87-.28,6.17-.16,7.39.76,7.83,4.5,15.44,10.08,20.53,3.13,2.86,6.16,4.96,10.32,6.61,1.59.63,4.36,1.57,6.21,1.76"/><g><path class="cls-3" d="m25.99,28.14c-2.1.3-3.49.67-4.86,1.82-5.64,4.73-5.42,13.88-1.63,19.65.5.76.9,1.28,1.42,1.92.23.29.58.66.81.9.3.3.6.54.88.83,1.44,1.49,4.29,3.01,6.35,3.67.55.18,2.25.66,2.66.66-4.01.96-7.32,1.76-10.95,3.81l.03.51c.58.18,3.55-.81,6.6-.49,3.94.42,7.21,3.13,11.87.3,1.75-1.07,3.63-3.02,6.09-3.03.76,0,1.01.07,1.34.5.18.24.63.75.69,1.08.43,2.14-.22,2.47-1.08,4.19-1.32,2.65-2.21,5.32-2.71,8.34-.34,2.04-.49,3.93-.37,6.01.02.41,0,.56.44.53.19-.79.11-4.21,1.11-7.95.48-1.8,1.05-3.27,1.82-4.93.15-.32.68-1.32.72-1.51l-1.33,4.03c-.92,3.16-1.62,6.17-1.27,9.51.1.98.69,4.02,1.72,3.71.28-.44-.07-1.12-.23-1.59-.28-.86.33-4.42.49-5.34.73-4.15,2.43-8.23,4.3-11.9.47-.93.94-1.7,1.38-2.7.51-1.18.07-1.78,2.04-2.04,2.77-.37,3.67,1.5,5.66,2.41,2.13.98,4.63.9,6.65-.14,2.28-1.16,3.02-2.92,5.62-4.47.34-.2.99-.56,1.28-.79.31-.24.12-.23.52-.44.26-.14.42-.21.65-.39.27-.21.94-.73.82-1.22-.52-.15-1.16.2-1.62.42-1.22.57-3.8,1.38-5,1.38,1.33-.56,2.97-2.1,3.89-3.31,1.02-1.34,1.79-3,2.32-4.96.56-2.09.7-4.39.56-6.68-.08-1.2-.65-.76-.78-.52-.26.49-.31.78-.64,1.21-.4.51-1.33,1.33-2.12,1.62.25-.59,1.09-1.62,1.77-3.23,1.62-3.87,1.42-8.86-.59-12.36-1.08-1.88-2.83-4.02-5.56-4.47-3.29-.54-3.05-2.7-7.34-2.7-.24-.44-1.1-1.36-1.5-1.67-.81-.63-.91-.78-1.95-1.32-1.76-.92-2.39-.79-3.67-1.16-2.64-.77-4.06-.39-6.68.54-2.8.99-1.62,1.41-3.35,1.44-.56.01-1.04,0-1.6.07-1.43.16-2.64.27-3.85.98-.43.25-.6.44-.9.74-1.47,1.49-1.66.03-5.1,1.36-1.92.74-2.55,1.24-3.88,2.58-.48.48-.98,1.34-1.29,1.98-.48.99-.44,1.52-.64,2.63m19.65-10.19c1.45-.58,3.52-1.05,5.26-1.05,1.58,0,2.85.54,4.19,1.36,1.12.69,1.92,1.39,2.62,2.26-.18.18-.31.22-.6.35-.72.35-1.18.85-1.54,1.1-.64-.23-.93-.54-2.31-1-1.44-.48-2.44-.54-3.91-.48-.27-.73-.87-1.3-1.5-1.69-.35-.22-.66-.38-1.04-.52-.37-.13-.86-.21-1.18-.34Zm-18.97,10.12c.2-.92.74-2.05,1.19-2.74.54-.84,1.16-1.43,1.88-1.98,2.59-1.96,4.71-1.07,6.15-1.57,1.39-.48,2.51-1.96,5.26-2.45,1.16-.21,2.35-.1,3.35.25,1.48.52,1.52.9,2.28,1.51-.39.25-.89.44-1.3.71-.89.59-.63.59-1.25.5-2.09-.28-4.56.45-6,1.75-.73.66-1.49,1.69-1.88,2.07-1.74-.42-3.6-.28-5.24.3-.81.28-1.31.69-1.98,1.07-.86.48-1.28.5-2.45.59Zm40.8-2.8c1.18.29,1.95.59,2.73,1.27.62.54,1.22,1.39,1.64,2.37.88,2.08,1.16,4.37,1.02,6.91-.14,2.39-.9,4.41-1.88,6.11-.26.46-.52.77-.83,1.17-.58.74-.15.53-1.16.85-1.76.55-2.53,1.31-3.68,2.33-3.33,2.94-5.22.77-7.73,2.29-.23.14-.41.27-.61.43-.51.39-1.24,1.45-1.34,1.48-.07-1.97-.09-2.84.96-4.01,2.13-2.38,4.2-3.85,4.73-7.89.04-.29.05-.9.13-1.14.09-.27.28-.55.38-.88.39-1.35.32-3.2.18-4.63-.17-1.75-.34-2.58-1.04-4.03-.82-1.69-2.2-3.44-3.6-4.64l-1.05-.81.08-.07s.03-.02.04-.03c.64-.45,2.11-.83,2.86-.9,4.39-.39,4.75,2.98,8.17,3.82Zm-30.4,1.05c.34-.51.75-.8,1.31-1.17.49-.32,1.09-.58,1.68-.77,1.75-.57,2.89-.16,4.32-.06,2.06.14,1.86-3.17,7.3-1.88,1.3.31,2.44.76,3.49,1.4,1.34.82,2.38,1.73,3.23,2.86.16.21.35.45.5.69.83,1.31,1.9,3.9,1.76,5.34,0-.39-1.24-2.76-1.5-3.13-.23-.02-.28.01-.44,0-.29-.03.05-.13-.24-.02-.11.1.08.58.11.91.17,2.06-1.09,4.37-2.23,5.89-1.27,1.7-2.85,3-5.15,4.13-2.58,1.27-4.54.73-5.8,3.49-1.01,2.2-.97,5.65.19,7.69-.4-.09-2.75-1.23-3.22-1.48-4.08-2.25-1.65-4.51-3.96-5.47-1.73-.72-3.11.84-6.21-3.22-1.36-1.78-3.45-3.13-5.65-3.71-.94-.25-3.14-.41-3.92.13-.14.1-.03,0-.11.11.28.15.57.1.84.2.13.05.44.31.6.43,1.77,1.22,1.89,1.21,3.41,2.83,1.4,1.49,2.07,5.64,3.91,8.57,2.75,4.39,6.68,4.17,7.62,4.75l-3.75,1.87c-1.03.42-1.23.28-2.32.06-.78-.16-1.5-.32-2.25-.56-2.21-.7-3.91-1.42-5.62-2.84-.29-.24-.48-.39-.77-.64-.15-.14-.26-.18-.41-.33-.16-.16-.18-.21-.33-.34-.93-.87-1.81-1.81-2.62-3.02-2.63-3.9-3.58-8.78-2.03-13.35.94-2.79,2.68-5.09,5.37-5.91,1.57-.48,3.49-.1,4.96-.68,1.35-.53,2.31-1.44,3.71-1.93,2.81-.99,5.96,1.1,7.57,3.11,1.43,1.8,2.05,3.33,2.98,5.49.27.63.66,1.89,1.06,1.44.23-.46-.7-3.01-.92-3.58-.41-1.08-.98-2.23-1.54-3.06-.31-.46-.65-.95-.97-1.33-1.95-2.26-3.18-2.31-3.96-2.89Zm12.6,32.41c-.12-.61-.04-1.34-.27-2.47-.28-1.35-.93-2.57-1.96-3.39-.93-.74-.65-.36-.98-1.68-.39-1.58-.62-3.05-.3-4.81.59-3.22,1.95-3.3,4.12-3.96,3.83-1.17,6.86-4.05,8.42-7.69.23-.54.47-1.48.71-1.96.65,1.8.21,5.11-.66,6.99-.84,1.8-2.18,3.42-3.32,4.85-3.41,4.26-.82,6.57-2.28,9.9-.25.57-1.29,2.16-1.72,2.32-.09-2.7-2.14-4.64-2.57-6.71-.58-2.75,1.65-4.81,2.7-6.26-.41.29-.96.93-1.35,1.32-1.49,1.45-2.34,3.58-1.85,5.8.3,1.41,1.02,2.48,1.5,3.77.25.67.49,1.37.5,2.16.04,1.6-.42,1.36-.7,1.82Zm-7.49-4.51c-.38-.05-1.1-.32-1.58-.45-3.99-1.11-6.6-1.33-8.45-5.73-.92-2.18-1.23-3.76-2.54-5.56-1.11-1.53-1.8-1.96-3.04-3.05-.47-.41-1.07-.73-1.16-.85,7.13,1.73,5.96,7.28,11.6,7.12,2.08-.06,1.03,1.66,2.39,3.54,2.65,3.66,9.13,2.69,8.87,8.82-.12-.09-.66-1.2-1.05-1.72-1.4-1.86-2.74-2.53-5-3.39-1.31-.5-2.82-.95-3.99-1.58-2.33-1.25-2.62-2.32-2.88-2.44,0,0-.04,0-.04,0h-.09c-.07.43.81,1.54,1.12,1.9,1.3,1.51,3.96,2.61,5.85,3.38Zm13.56-1.76c0-.43.54-.82.78-1.06,2.47-2.49,6.27-1.53,8.96-3.51.72-.53,1.24-1.11,1.96-1.67,2.28-1.78,5-1.06,7.27-3.38.08,1.52-.97,4.12-1.58,5.21-.76,1.37-1.93,2.9-2.99,3.77-.67.55-1.18.97-1.96,1.46-1.09.68-3.66,1.86-5.01,1.69-.46-.06-2.54-.36-2.82-.52l2.99-.36c2.13-.33,6.04-1.54,6.21-3.85-.85.18-1.48,1.61-4.41,2.37-1.3.34-4.77.68-6.06.66.92-.29,2.23-.53,3.2-.77.47-.12,2.65-.86,2.85-1.06-1.81-.08-5.49.55-7.27.87l-2.13.52v-.35Zm10.97,4.46c2.43-.1,4.8-.79,5.03-.8-.58.48-1.16.87-1.73,1.35-.57.48-1.06.94-1.63,1.41-1.19,1-2.17,1.76-4.11,2.05-4.54.69-5.68-3.21-8.93-3.21-.6,0-1.05,0-1.53.13.62-.58,2.5-.7,3.48-.51,2.56.51,3.25,2.67,5.64,2.97,3.03.38,6.81-3.24,3.51-1.59-.84.42-2.11,1.01-3.3.92-2.27-.18-2.21-2.01-5.55-2.96,3.36.2,5.74.37,9.1.24Zm-43.05,3.74c.59-.35,1.63-.67,2.3-.9,2.94-1,5.52-.68,8.14-1.28,3.61-.83,6.4-3.91,9.34-2.02-3.63.46-4.24,2-7.1,3.15-.44.18-.85.31-1.31.39-.19.03-.63.09-.79.08-.61,0-.49-.16-.59.13,3.08.97,6.91-2.62,9.42-2.45-2.33,1.12-1.78.84-3.86,2.32-1.23.88-2.59,1.61-4.59,1.57-2.23-.05-6.08-1.01-8.24-1.04l-2.73.05Z"/><path class="cls-4" d="m37.06,26.31c.78.58,2.01.63,3.96,2.89.33.38.67.87.97,1.33.56.83,1.13,1.98,1.54,3.06.22.57,1.15,3.12.92,3.58-.39.46-.79-.8-1.06-1.44-.92-2.16-1.55-3.69-2.98-5.49-1.61-2.02-4.76-4.11-7.57-3.11-1.41.5-2.36,1.4-3.71,1.93-1.47.58-3.39.21-4.96.68-2.69.82-4.43,3.12-5.37,5.91-1.55,4.57-.6,9.46,2.03,13.35.81,1.21,1.69,2.15,2.62,3.02.14.13.17.18.33.34.15.15.26.2.41.33.29.25.47.4.77.64,1.71,1.42,3.41,2.15,5.62,2.84.75.24,1.47.4,2.25.56,1.09.22,1.28.36,2.32-.06l3.75-1.87c-.94-.59-4.87-.37-7.62-4.75-1.84-2.93-2.51-7.07-3.91-8.57-1.51-1.62-1.64-1.61-3.41-2.83-.16-.11-.47-.38-.6-.43-.28-.1-.56-.05-.84-.2.08-.12-.03-.01.11-.11.78-.54,2.97-.38,3.92-.13,2.21.58,4.29,1.92,5.65,3.71,3.1,4.06,4.48,2.5,6.21,3.22,2.31.96-.12,3.22,3.96,5.47.46.25,2.81,1.39,3.22,1.48-1.16-2.04-1.2-5.49-.19-7.69,1.26-2.75,3.22-2.22,5.8-3.49,2.29-1.13,3.87-2.43,5.15-4.13,1.14-1.52,2.41-3.82,2.23-5.89-.03-.33-.22-.81-.11-.91.29-.11-.05,0,.24.02.16.01.21-.02.44,0,.26.37,1.5,2.74,1.5,3.13.13-1.44-.94-4.04-1.76-5.34-.15-.24-.34-.48-.5-.69-.85-1.13-1.89-2.04-3.23-2.86-1.05-.64-2.19-1.09-3.49-1.4-5.44-1.29-5.24,2.02-7.3,1.88-1.43-.09-2.57-.5-4.32.06-.59.19-1.19.45-1.68.77-.56.37-.97.66-1.31,1.17m10.11-2.3c.15-.59,3.67-1.08,6.16.68,1.39.98,3.22,3.17,2.85,4.83-.62.18-.64-.38-.88-.93-.18-.4-.36-.82-.6-1.25-2.45-4.38-7.13-3.16-7.53-3.33Zm-3.83,6.04c-.42-.03-.66-.44-1.04-.94-1.16-1.54-2.89-2.1-3.15-2.54,1.51.14,4.13,2.23,4.19,3.48Zm-1.12,6.59c-.47.05-.42.04-.9-1.06-1.15-2.65-1.76-3.61-3.96-5.48-1.78-1.52-2.35-.92-2.68-1.14-.03-.41,1.15-.27,1.46-.17.53.16.95.43,1.32.69.25.17.37.24.6.44.19.16.32.3.51.46.39.31.69.61,1.01,1l.92,1.09c.68.9,2,3.09,1.72,4.18Zm-21.83,1.18c.24,4.91,1.05,7.7,3.4,11.13.64.93,1.03,1.26,1.66,1.98.49.57,1.28,1.22,1.91,1.73,1.29,1.03,2.03,1.35,3.4,2.09.36.19.96.42.93.85-1.13.44-4.31-2.04-4.82-2.45-1.41-1.16-2.46-2.26-3.58-3.84-1.99-2.81-3.58-7.51-3.06-11.1.04-.26.06-.28.16-.39Z"/><path class="cls-4" d="m56.31,22.45l1.05.81c1.4,1.2,2.77,2.95,3.6,4.64.7,1.44.87,2.27,1.04,4.03.14,1.43.21,3.27-.18,4.63-.1.33-.29.61-.38.88-.08.24-.09.85-.13,1.14-.54,4.04-2.6,5.51-4.73,7.89-1.05,1.17-1.04,2.04-.96,4.01.1-.03.82-1.09,1.34-1.48.21-.16.38-.29.61-.43,2.52-1.52,4.41.65,7.73-2.29,1.15-1.02,1.92-1.79,3.68-2.33,1-.31.57-.11,1.16-.85.31-.4.57-.71.83-1.17.99-1.71,1.75-3.72,1.88-6.11.14-2.54-.14-4.83-1.02-6.91-.42-.99-1.02-1.84-1.64-2.37-.78-.67-1.55-.98-2.73-1.27-3.42-.84-3.78-4.21-8.17-3.82-.74.07-2.22.45-2.86.9-.01,0-.03.02-.04.03l-.08.07Zm13.05,5.61c.36.03.45.25.8.74,3.91,5.47.88,13.32-3.76,15.99-.51.3-.82,0-.45-.45l1.57-1.55c2.67-2.66,4.23-6.16,3.57-10.18-.43-2.63-1.67-4-1.74-4.55Zm-.42,6.61c.27.18.32.7.37,1.01.35,2.23-.76,4.37-2.19,5.97l-.66.75c-.64.77-1.35,1.35-2.09,2-.67.6-3.62,2.69-4.36,2.5,0-.42.11-.34.67-.69,1.38-.87,3.41-2.24,4.55-3.47.23-.25.43-.45.68-.66.67-.57,1.86-2.28,2.29-3.06.6-1.07.99-2.56.72-3.8-.05-.22-.13-.37,0-.55Z"/><path class="cls-2" d="m49.66,58.73c.28-.47.74-.22.7-1.82-.02-.79-.25-1.49-.5-2.16-.48-1.29-1.2-2.36-1.5-3.77-.48-2.22.37-4.36,1.85-5.8.39-.38.94-1.03,1.35-1.32-1.05,1.45-3.28,3.5-2.7,6.26.43,2.07,2.48,4.01,2.57,6.71.43-.16,1.47-1.75,1.72-2.32,1.46-3.33-1.12-5.64,2.28-9.9,1.14-1.43,2.48-3.05,3.32-4.85.87-1.88,1.31-5.19.66-6.99-.25.48-.48,1.42-.71,1.96-1.57,3.64-4.59,6.52-8.42,7.69-2.17.67-3.53.75-4.12,3.96-.32,1.76-.1,3.23.3,4.81.33,1.32.06.95.98,1.68,1.03.82,1.68,2.04,1.96,3.39.23,1.13.15,1.86.27,2.47m.78-9.62c0-1.45.65-2.68,1.31-3.59.4-.54,1.96-2.29,2.42-2.5-.06.32-.66.9-.97,1.27-2.01,2.36-2.52,4.18-1.64,7.12.11.37.23.72.33,1.08.06.21.1.33.15.52.1.42.03.41.03.45l-.04.12c-.4.18-.52-.35-.68-.69-.55-1.17-.89-2.43-.89-3.78Z"/><path class="cls-2" d="m55.72,52.45v.35s2.13-.52,2.13-.52c1.78-.32,5.46-.95,7.27-.87-.2.2-2.38.94-2.85,1.06-.96.24-2.28.48-3.2.77,1.29.02,4.75-.32,6.06-.66,2.93-.76,3.56-2.19,4.41-2.37-.17,2.32-4.08,3.52-6.21,3.85l-2.99.36c.28.16,2.36.46,2.82.52,1.36.17,3.92-1,5.01-1.69.78-.49,1.29-.91,1.96-1.46,1.06-.87,2.23-2.4,2.99-3.77.61-1.09,1.66-3.69,1.58-5.21-2.27,2.32-4.99,1.61-7.27,3.38-.73.57-1.25,1.15-1.96,1.67-2.69,1.98-6.49,1.02-8.96,3.51-.24.24-.78.63-.78,1.06"/><path class="cls-2" d="m42.17,54.21c-1.89-.76-4.55-1.87-5.85-3.38-.31-.36-1.19-1.47-1.12-1.9h.09s.03,0,.04,0c.26.12.56,1.19,2.88,2.44,1.17.63,2.68,1.08,3.99,1.58,2.27.86,3.61,1.53,5,3.39.39.52.93,1.62,1.05,1.72.26-6.13-6.22-5.17-8.87-8.82-1.36-1.88-.31-3.6-2.39-3.54-5.64.16-4.47-5.4-11.6-7.12.09.12.69.44,1.16.85,1.24,1.09,1.92,1.52,3.04,3.05,1.3,1.79,1.62,3.38,2.54,5.56,1.86,4.4,4.46,4.62,8.45,5.73.48.13,1.2.4,1.58.45"/><path class="cls-4" d="m26.66,28.06c1.17-.08,1.59-.1,2.45-.59.67-.37,1.17-.78,1.98-1.07,1.65-.58,3.5-.72,5.24-.3.4-.38,1.16-1.42,1.88-2.07,1.44-1.3,3.92-2.03,6-1.75.63.08.36.09,1.25-.5.4-.27.9-.46,1.3-.71-.76-.61-.8-.99-2.28-1.51-.99-.35-2.19-.46-3.35-.25-2.75.5-3.87,1.98-5.26,2.45-1.44.49-3.56-.4-6.15,1.57-.73.55-1.34,1.14-1.88,1.98-.45.7-.98,1.82-1.19,2.74m1.39-.97c.25-1.88,1.95-4.13,3.86-4.56.36-.08.35-.07.53.06-.08.25.05.13-.58.49-.62.36-1.52.88-1.98,1.36-.44.47-1.02,1.27-1.36,1.9l-.27.55c-.11.15-.05.09-.19.19Z"/><path class="cls-2" d="m23.66,60.65l2.73-.05c2.16.03,6.01.99,8.24,1.04,2,.05,3.36-.69,4.59-1.57,2.07-1.48,1.53-1.2,3.86-2.32-2.51-.17-6.34,3.42-9.42,2.45.1-.29-.01-.14.59-.13.16,0,.6-.05.79-.08.46-.08.87-.21,1.31-.39,2.86-1.15,3.47-2.69,7.1-3.15-2.94-1.89-5.73,1.19-9.34,2.02-2.63.61-5.2.28-8.14,1.28-.68.23-1.72.55-2.3.9"/><path class="cls-2" d="m66.7,56.91c-3.37.13-5.74-.04-9.1-.24,3.34.95,3.28,2.78,5.55,2.96,1.18.09,2.46-.5,3.3-.92,3.3-1.65-.48,1.97-3.51,1.59-2.39-.3-3.08-2.46-5.64-2.97-.98-.19-2.86-.07-3.48.51.49-.13.94-.13,1.53-.13,3.24,0,4.39,3.91,8.93,3.21,1.94-.3,2.92-1.06,4.11-2.05.57-.47,1.06-.93,1.63-1.41.57-.48,1.15-.87,1.73-1.35-.23.01-2.59.7-5.03.8"/><path class="cls-4" d="m45.63,17.95c.32.13.81.21,1.18.34.38.13.69.29,1.04.52.63.39,1.22.96,1.5,1.69,1.46-.06,2.46,0,3.91.48,1.37.46,1.67.76,2.31,1,.36-.25.82-.75,1.54-1.1.28-.14.41-.17.6-.35-.7-.87-1.5-1.57-2.62-2.26-1.34-.83-2.61-1.36-4.19-1.36-1.74,0-3.81.47-5.26,1.05"/><path class="cls-3" d="m70.16,28.8c-.35-.49-.44-.7-.8-.74.07.55,1.3,1.92,1.74,4.55.66,4.01-.9,7.51-3.57,10.18l-1.57,1.55c-.37.46-.07.75.45.45,4.64-2.67,7.67-10.52,3.76-15.99"/><path class="cls-3" d="m20.39,37.82c-.1.1-.12.13-.16.39-.52,3.59,1.07,8.29,3.06,11.1,1.12,1.58,2.17,2.69,3.58,3.84.51.42,3.69,2.9,4.82,2.45.03-.43-.57-.66-.93-.85-1.37-.74-2.11-1.06-3.4-2.09-.64-.51-1.42-1.16-1.91-1.73-.62-.73-1.02-1.06-1.66-1.98-2.35-3.43-3.16-6.22-3.4-11.13"/><path class="cls-3" d="m69.3,35.68c-.05-.31-.11-.83-.37-1.01-.13.18-.06.33,0,.55.27,1.24-.12,2.73-.72,3.8-.43.77-1.61,2.49-2.29,3.06-.25.21-.45.41-.68.66-1.14,1.22-3.17,2.59-4.55,3.47-.56.35-.67.27-.67.69.74.19,3.68-1.91,4.36-2.5.74-.65,1.45-1.22,2.09-2l.66-.75c1.42-1.6,2.53-3.74,2.19-5.97"/><path class="cls-3" d="m47.16,24.01c.39.17,5.08-1.05,7.53,3.33.24.43.42.85.6,1.25.25.55.26,1.11.88.93.37-1.66-1.46-3.85-2.85-4.83-2.49-1.76-6.01-1.27-6.16-.68"/><path class="cls-3" d="m34.68,28.97c.33.21.9-.38,2.68,1.14,2.19,1.87,2.81,2.82,3.96,5.48.47,1.1.43,1.11.9,1.06.28-1.09-1.03-3.27-1.72-4.18l-.92-1.09c-.32-.39-.62-.69-1.01-1-.19-.15-.31-.3-.51-.46-.24-.19-.35-.27-.6-.44-.37-.26-.79-.53-1.32-.69-.31-.09-1.5-.23-1.46.17"/><path class="cls-3" d="m50.44,49.11c0,1.35.34,2.61.89,3.78.16.34.29.88.68.69l.04-.12s.08-.02-.03-.45c-.05-.2-.09-.32-.15-.52-.11-.36-.22-.71-.33-1.08-.88-2.95-.37-4.77,1.64-7.12.32-.37.92-.95.97-1.27-.45.2-2.02,1.95-2.42,2.5-.66.91-1.31,2.14-1.31,3.59"/><path class="cls-3" d="m28.05,27.09c.14-.1.08-.04.19-.19l.27-.55c.35-.63.93-1.43,1.36-1.9.45-.48,1.36-1.01,1.98-1.36.63-.36.51-.24.58-.49-.18-.13-.17-.14-.53-.06-1.9.42-3.61,2.68-3.86,4.56"/><path class="cls-3" d="m43.34,30.05c-.06-1.25-2.68-3.35-4.19-3.48.26.44,1.98,1,3.15,2.54.38.5.62.91,1.04.94"/></g><g><path class="cls-1" d="m12.4,53.88l.47,1.86-2.75.7.52,2.06,2.75-.7.48,1.87-7.25,1.84-.48-1.87,2.79-.71-.52-2.06-2.79.71-.47-1.86,7.25-1.84Z"/><path class="cls-1" d="m14.35,60.66l.73,1.78-6.92,2.84-.73-1.78,6.92-2.84Z"/><path class="cls-1" d="m9.56,66.17l1.72.2c-.14.78-.09,1.55.26,2.18.25.45.58.57.86.41h0c.26-.15.31-.44.15-1.35-.28-1.46-.32-2.58.86-3.25l.03-.02c1.18-.67,2.52-.23,3.32,1.19.49.87.69,1.78.52,2.77l-1.72-.14c.09-.64.04-1.32-.26-1.85-.22-.38-.52-.49-.76-.35h0c-.29.17-.32.46-.16,1.46.3,1.46.23,2.52-.87,3.14h-.02c-1.26.73-2.6.19-3.39-1.2-.55-.97-.77-2.06-.54-3.19Z"/><path class="cls-1" d="m18.03,70.8l-1.16-1.44,1.35-1.08,3.52,4.38-1.35,1.08-1.16-1.44-4.48,3.6-1.21-1.5,4.48-3.6Z"/><path class="cls-1" d="m19.34,75.73l.11-.12c1.46-1.68,3.6-1.91,5.11-.59,1.52,1.32,1.6,3.44.12,5.13l-.11.12c-1.46,1.68-3.6,1.91-5.11.59-1.52-1.32-1.6-3.44-.12-5.13Zm3.76,3.24l.08-.09c.85-.98.9-1.98.23-2.56-.67-.58-1.64-.39-2.49.58l-.08.09c-.85.98-.9,1.98-.23,2.56.68.59,1.64.39,2.49-.58Z"/><path class="cls-1" d="m27.74,77.78l2.55,1.46c.87.5,1.39,1.11,1.57,1.78.15.57.07,1.19-.31,1.84l-.03.05c-.55.96-1.37,1.29-2.25,1.24l-.02,3.12-1.88-1.08.05-2.64-.59-.34-1.16,2.01-1.66-.95,3.73-6.48Zm.67,4.58c.56.32,1.08.19,1.38-.33v-.02c.33-.56.14-1.04-.42-1.36l-.81-.47-.97,1.69.82.47Z"/><path class="cls-1" d="m33.59,80.92l1.78.73-2.83,6.92-1.78-.73,2.83-6.92Z"/><path class="cls-1" d="m35.14,85.72l.03-.12c.58-2.23,2.42-3.31,4.32-2.81,1.14.3,1.8.94,2.2,1.79l-1.53.96c-.21-.45-.52-.87-1.09-1.01-.85-.22-1.68.37-2,1.6v.04c-.35,1.29.1,2.17.94,2.39.62.16,1.08-.07,1.51-.37l.86,1.51c-.78.57-1.72.87-2.93.56-1.85-.48-2.92-2.28-2.33-4.53Z"/><path class="cls-1" d="m44.67,83.77l1.94.13,2.12,7.68-2.01-.14-.35-1.37-2.34-.16-.52,1.31-1.97-.13,3.13-7.32Zm1.33,4.74l-.54-2.23-.84,2.14,1.39.09Z"/><path class="cls-1" d="m49.68,84l1.91-.2.6,5.72,2.92-.3.18,1.72-4.83.5-.78-7.44Z"/><path class="cls-1" d="m59.15,89.11l.51-1.66c.74.28,1.51.37,2.19.14.48-.17.66-.47.56-.77h0c-.1-.29-.37-.39-1.3-.4-1.49,0-2.6-.16-3.04-1.44v-.03c-.45-1.28.22-2.52,1.76-3.05.95-.33,1.88-.35,2.82-.01l-.45,1.67c-.61-.21-1.29-.28-1.87-.08-.41.14-.58.42-.49.69h0c.11.32.39.41,1.4.43,1.49-.03,2.52.23,2.93,1.43v.02c.48,1.37-.29,2.59-1.8,3.11-1.05.36-2.16.38-3.24-.05Z"/><path class="cls-1" d="m64.75,84.33l-.08-.14c-1.1-1.94-.6-4.03,1.15-5.02,1.76-.99,3.77-.36,4.88,1.59l.08.14c1.1,1.94.6,4.03-1.15,5.02-1.76.99-3.77.36-4.88-1.59Zm4.31-2.47l-.06-.1c-.64-1.12-1.57-1.51-2.34-1.07s-.92,1.42-.28,2.54l.06.1c.64,1.12,1.57,1.51,2.34,1.07.78-.44.92-1.42.28-2.54Z"/><path class="cls-1" d="m71.73,80.18l-.08-.1c-1.5-1.76-1.32-3.88.17-5.15.9-.76,1.8-.93,2.73-.78l-.09,1.8c-.49-.09-1.01-.07-1.46.31-.67.57-.66,1.58.17,2.55l.03.03c.86,1.02,1.85,1.15,2.51.59.49-.42.56-.92.56-1.45l1.73.15c.02.96-.27,1.91-1.22,2.72-1.46,1.24-3.54,1.09-5.04-.69Z"/><path class="cls-1" d="m74.19,72.86l1.29-1.42,5.53,5.03-1.29,1.42-5.53-5.03Z"/><path class="cls-1" d="m76.24,70.65l2.96-4.21,1.38.97-1.87,2.66,1,.71,1.68-2.39,1.3.92-1.68,2.39,1.05.74,1.89-2.69,1.38.97-2.99,4.25-6.12-4.3Z"/><path class="cls-1" d="m81.99,64.77l-.78,1.67-1.57-.73,2.38-5.09,1.57.73-.78,1.67,5.2,2.44-.82,1.74-5.2-2.44Z"/><path class="cls-1" d="m87.49,58.61l-5.12,1.21.51-2.06,2.92-.56-2.32-1.87.5-2.03,3.94,3.45,2.74.68-.46,1.87-2.72-.67Z"/></g><g><path class="cls-1" d="m7.72,34.1l.86-1.87,4.44.88-3.52-2.93.7-1.53,4.51.77-3.55-2.81.85-1.83,6.06,5.12-.75,1.63-4.33-.65,3.3,2.87-.75,1.63-7.83-1.28Z"/><path class="cls-1" d="m14.26,21.94l1.21-1.56,7.68,2.58-1.26,1.62-1.35-.49-1.47,1.88.81,1.18-1.23,1.58-4.39-6.81Zm4.75,1.58l-2.19-.81,1.32,1.92.87-1.11Z"/><path class="cls-1" d="m22.4,22.37l-.16-1.76c.8-.02,1.56-.23,2.12-.72.39-.34.45-.69.23-.94h0c-.2-.24-.49-.22-1.37.13-1.4.58-2.5.85-3.41-.18l-.02-.02c-.91-1.04-.76-2.46.49-3.55.77-.67,1.63-1.06,2.65-1.1l.22,1.75c-.66.04-1.32.24-1.79.65-.33.29-.38.62-.19.83h0c.22.26.52.23,1.48-.13,1.39-.6,2.46-.76,3.31.21v.02c.99,1.11.73,2.55-.49,3.62-.85.75-1.89,1.19-3.06,1.2Z"/><path class="cls-1" d="m24,12.4l1.68-1,1.48,2.48,1.86-1.11-1.48-2.48,1.69-1.01,3.89,6.53-1.69,1.01-1.5-2.52-1.86,1.11,1.5,2.52-1.68,1-3.89-6.53Z"/><path class="cls-1" d="m31.13,8.5l1.81-.75,2.91,7.03-1.81.75-2.91-7.03Z"/><path class="cls-1" d="m34.85,6.95l1.78-.44,3.38,3.1-.93-3.71,1.87-.47,1.84,7.38-1.69.42-3.52-3.23.97,3.87-1.87.47-1.84-7.38Z"/><path class="cls-1" d="m43.17,9.01v-.15c-.11-2.28,1.39-3.93,3.48-4.02,1.09-.05,1.89.24,2.66.81l-1.02,1.53c-.42-.34-.86-.59-1.51-.56-.97.04-1.67.92-1.61,2.18v.11c.07,1.39.85,2.13,1.82,2.08.38-.02.66-.12.87-.27l-.05-1.13-1.2.05-.07-1.51,3.04-.13.16,3.62c-.69.56-1.6,1.02-2.75,1.07-2.07.09-3.71-1.31-3.81-3.68Z"/><path class="cls-1" d="m52.11,6.88l-1.87-.23.21-1.75,5.67.7-.21,1.75-1.87-.23-.71,5.8-1.94-.24.71-5.8Z"/><path class="cls-1" d="m56.14,9.5l.05-.16c.67-2.17,2.57-3.25,4.52-2.64,1.96.61,2.89,2.55,2.21,4.73l-.05.16c-.67,2.17-2.57,3.25-4.52,2.64-1.96-.61-2.89-2.55-2.21-4.73Zm4.83,1.48l.04-.11c.39-1.26.03-2.21-.83-2.48-.86-.27-1.69.3-2.08,1.56l-.04.11c-.39,1.26-.03,2.21.83,2.48.87.27,1.69-.3,2.08-1.56Z"/><path class="cls-1" d="m65.98,8.77l1.6.9.33,4.57,1.87-3.33,1.68.94-3.72,6.63-1.52-.85-.34-4.76-1.95,3.48-1.68-.94,3.72-6.63Z"/><path class="cls-1" d="m72.76,17.66l.09-.09c1.64-1.67,3.81-1.69,5.24-.29.85.84,1.11,1.74,1.04,2.69l-1.84.07c.04-.51-.02-1.03-.45-1.45-.64-.62-1.66-.52-2.57.4l-.03.03c-.95.97-1,1.98-.37,2.59.47.46.99.48,1.52.44v1.77c-.97.11-1.96-.1-2.87-.99-1.39-1.36-1.42-3.48.24-5.17Z"/><path class="cls-1" d="m80.73,20.37l1.2,1.54-5.99,4.68-1.2-1.54,5.99-4.68Z"/><path class="cls-1" d="m82.12,25.28l-.98-1.61,1.5-.91,2.97,4.88-1.5.91-.98-1.61-4.99,3.03-1.02-1.67,4.99-3.03Z"/><path class="cls-1" d="m82.45,32.27l3.51-4.04.8,2.01-2.08,2.2,3.03.17.79,1.98-5.3-.51-2.66,1.06-.73-1.82,2.64-1.06Z"/></g></g></g></svg>