<?xml version="1.0" encoding="UTF-8"?><svg xmlns="http://www.w3.org/2000/svg" xmlns:xlink="http://www.w3.org/1999/xlink" viewBox="0 0 86.07 86.15"><defs><style>.cls-1{fill:#f28547;}.cls-2{fill:#fff;}.cls-3{fill:#7e8569;}.cls-4{fill:#7e99be;mix-blend-mode:multiply;}.cls-5{clip-path:url(#clippath-1);}.cls-6{isolation:isolate;}.cls-7{clip-path:url(#clippath);fill:none;}</style><clipPath id="clippath"><circle class="cls-2" cx="43.04" cy="43.12" r="43.03"/></clipPath><clipPath id="clippath-1"><circle class="cls-7" cx="43.04" cy="43.12" r="43.03"/></clipPath></defs><g class="cls-6"><g id="Layer_2"><g id="Outlined_Logos"><g><circle class="cls-2" cx="43.04" cy="43.12" r="43.03"/><g class="cls-5"><polygon class="cls-1" points="58.66 .08 44.18 29.12 37.03 43.45 30.01 57.53 0 .08 58.66 .08"/><polygon class="cls-4" points="86.07 0 58.34 57.52 29.66 .07 86.07 0"/><polygon class="cls-3" points="86.07 0 86.07 86.15 0 86.15 0 .08 30.01 57.53 37.03 43.45 44.18 29.12 51.33 43.45 58.34 57.52 86.07 0"/><polygon class="cls-2" points="86.07 0 86.07 28.62 65.48 71.85 58.35 86.13 58.33 86.14 58.3 86.13 51.19 71.86 44.17 57.78 37.16 71.85 30.04 86.13 30.02 86.14 29.99 86.13 22.86 71.86 0 27.98 0 .08 30.01 57.53 37.03 43.45 44.18 29.12 51.33 43.45 58.34 57.52 86.07 0"/></g></g></g></g></g></svg>