<?xml version="1.0" encoding="UTF-8"?><svg xmlns="http://www.w3.org/2000/svg" viewBox="0 0 209.1 95.56"><defs><style>.cls-1{letter-spacing:0em;}.cls-2{letter-spacing:.09em;}.cls-3{letter-spacing:.09em;}.cls-4{letter-spacing:.09em;}.cls-5{fill:#f28547;}.cls-6{fill:#fff;}.cls-7{fill:#7e8569;}.cls-8{letter-spacing:0em;}.cls-9{font-family:AvenirNextCondensed-Medium, 'Avenir Next Condensed';font-size:15.68px;font-weight:500;}.cls-9,.cls-10,.cls-11{fill:#231f20;}.cls-12{letter-spacing:0em;}.cls-13{letter-spacing:.09em;}.cls-14{fill:#7e99be;mix-blend-mode:multiply;}.cls-15{letter-spacing:.08em;}.cls-16{letter-spacing:.08em;}.cls-17{letter-spacing:.07em;}.cls-18{letter-spacing:.08em;}.cls-19{letter-spacing:.08em;}.cls-20{letter-spacing:.07em;}.cls-21{letter-spacing:-.02em;}.cls-10{font-size:54.99px;}.cls-10,.cls-11{font-family:AvenirNextCondensed-Bold, 'Avenir Next Condensed';font-weight:700;}.cls-22{letter-spacing:0em;}.cls-23{letter-spacing:0em;}.cls-11{font-size:31.18px;}.cls-24{letter-spacing:0em;}.cls-25{letter-spacing:.08em;}.cls-26{isolation:isolate;}.cls-27{letter-spacing:.12em;}.cls-28{letter-spacing:0em;}.cls-29{letter-spacing:.08em;}.cls-30{letter-spacing:.08em;}.cls-31{letter-spacing:0em;}</style></defs><g class="cls-26"><g id="Layer_2"><g id="Outlined_Logos"><g><polygon class="cls-5" points="59.66 .9 44.93 30.43 37.66 45 30.52 59.32 0 .9 59.66 .9"/><polygon class="cls-14" points="87.53 .82 59.33 59.31 30.16 .89 87.53 .82"/><polygon class="cls-7" points="87.53 .82 87.53 88.43 0 88.43 0 .9 30.52 59.32 37.66 45 44.93 30.43 52.2 45 59.33 59.31 87.53 .82"/><polygon class="cls-6" points="87.53 .82 87.53 29.92 66.59 73.88 59.34 88.4 59.32 88.41 59.29 88.4 52.05 73.89 44.92 59.58 37.79 73.88 30.55 88.4 30.53 88.41 30.5 88.4 23.25 73.89 0 29.28 0 .9 30.52 59.32 37.66 45 44.93 30.43 52.2 45 59.33 59.31 87.53 .82"/></g><g><text class="cls-9" transform="translate(100.2 13.39)"><tspan class="cls-4" x="0" y="0">w</tspan><tspan class="cls-3" x="10.78" y="0">a</tspan><tspan class="cls-29" x="18.68" y="0">s</tspan><tspan class="cls-17" x="25.44" y="0">h</tspan><tspan class="cls-20" x="34.17" y="0">i</tspan><tspan class="cls-25" x="38.94" y="0">n</tspan><tspan class="cls-18" x="47.8" y="0">g</tspan><tspan class="cls-19" x="56.64" y="0">t</tspan><tspan class="cls-30" x="62.09" y="0">o</tspan><tspan class="cls-16" x="70.44" y="0">n </tspan><tspan class="cls-2" x="83.66" y="0">c</tspan><tspan class="cls-15" x="90.46" y="0">i</tspan><tspan class="cls-27" x="95.41" y="0">t</tspan><tspan class="cls-13" x="101.36" y="0">y</tspan></text><text class="cls-10" transform="translate(100.75 60.65)"><tspan class="cls-8" x="0" y="0">A</tspan><tspan class="cls-1" x="29.36" y="0">R</tspan><tspan class="cls-31" x="59.26" y="0">T</tspan><tspan x="82.11" y="0">S</tspan></text><text class="cls-11" transform="translate(93.36 87.77)"><tspan x="0" y="0"> </tspan><tspan class="cls-21" x="6.24" y="0">C</tspan><tspan class="cls-22" x="21.43" y="0">O</tspan><tspan class="cls-23" x="40.39" y="0">U</tspan><tspan class="cls-24" x="58.4" y="0">N</tspan><tspan class="cls-12" x="77" y="0">C</tspan><tspan class="cls-28" x="92.75" y="0">I</tspan><tspan x="101.44" y="0">L</tspan></text></g></g></g></g></svg>