<?xml version="1.0" encoding="UTF-8"?><svg id="Layer_2" xmlns="http://www.w3.org/2000/svg" viewBox="0 0 152.54 80"><defs><style>.cls-1{fill:#f28547;}.cls-2{fill:#fff;}.cls-3{fill:#7e8569;}.cls-4{fill:#7e99be;}.cls-5{fill:#8d614e;}.cls-6{fill:#231f20;}</style></defs><g id="Outlined_Logos"><g><g><polygon class="cls-1" points="27.7 32.5 33.03 21.79 22.18 .06 0 .06 22.44 43.03 27.7 32.5"/><polygon class="cls-1" points="0 .06 0 .06 0 .06 0 .06"/><polygon class="cls-4" points="33.04 21.78 33.04 21.78 33.04 21.78 38.39 32.5 43.63 43.02 64.37 0 22.18 .05 22.18 .06 43.87 .06 33.04 21.78"/><polygon class="cls-5" points="33.04 21.78 43.87 .06 22.18 .06 33.03 21.79 33.04 21.78"/><polygon class="cls-3" points="64.37 64.43 64.37 0 64.37 21.4 48.97 53.73 43.64 64.41 43.63 64.42 43.6 64.41 38.28 53.74 33.03 43.21 27.79 53.73 22.46 64.41 22.45 64.42 22.43 64.41 17.1 53.74 0 20.93 0 64.43 64.37 64.43"/><polygon class="cls-2" points="22.43 64.41 22.45 64.42 22.46 64.41 27.79 53.73 33.03 43.21 38.28 53.74 43.6 64.41 43.63 64.42 43.64 64.41 48.97 53.73 64.37 21.4 64.37 0 43.63 43.02 43.63 43.02 38.39 32.5 33.04 21.78 33.04 21.78 33.03 21.79 27.7 32.5 22.44 43.03 22.44 43.03 0 .06 0 .06 0 20.93 0 20.93 17.1 53.74 22.43 64.41"/></g><g><g><path class="cls-6" d="m80.05,9.3h-1.13l-.89-4.38h-.01l-.9,4.38h-1.09l-1.2-5.79h1l.81,4.66h.02l.93-4.66h.91l.96,4.66h.01l.82-4.66h.99l-1.23,5.79Z"/><path class="cls-6" d="m85.7,9.3c-.03-.18-.05-.35-.07-.53-.02-.18-.02-.32-.02-.43h-.02c-.08.35-.24.62-.46.81-.22.2-.52.29-.9.29-.16,0-.33-.03-.5-.09s-.32-.16-.46-.3c-.13-.14-.25-.31-.33-.53-.09-.21-.13-.48-.13-.8,0-.41.07-.75.22-1.02s.34-.47.56-.62c.23-.15.48-.25.75-.31.28-.05.54-.08.8-.08h.38v-.25c0-.45-.09-.78-.26-.99-.17-.2-.41-.31-.7-.31-.22,0-.41.05-.6.16-.18.11-.34.25-.47.43l-.5-.61c.19-.26.44-.46.75-.61.31-.14.61-.21.91-.21.33,0,.61.05.84.16.23.11.41.27.55.47s.24.46.29.77c.06.3.09.65.09,1.03v2.34c0,.2,0,.42.02.65.02.23.03.42.06.56h-.81Zm-.15-2.85h-.43c-.18,0-.35.02-.51.05-.17.03-.31.09-.44.18-.13.09-.24.21-.32.36-.08.15-.12.35-.12.59,0,.35.08.61.23.78.15.17.33.25.53.25s.37-.06.5-.18c.13-.12.24-.27.33-.46.08-.18.14-.39.18-.61.03-.22.05-.43.05-.63v-.33Z"/><path class="cls-6" d="m91.15,4.61c-.1-.15-.23-.27-.39-.36-.16-.1-.34-.14-.56-.14s-.41.08-.55.24c-.15.16-.22.37-.22.64s.07.46.22.59c.15.12.38.24.69.36.16.06.32.14.48.22.16.09.3.2.43.34.13.14.23.3.31.49.08.19.12.41.12.67,0,.3-.04.56-.13.8-.09.23-.21.42-.37.58-.16.15-.34.27-.56.35-.22.08-.45.12-.7.12-.35,0-.66-.07-.95-.21-.28-.14-.52-.33-.71-.57l.58-.63c.13.16.28.3.46.42.18.12.4.18.66.18.25,0,.44-.09.58-.27.14-.18.21-.41.21-.69,0-.16-.03-.3-.08-.41s-.13-.21-.22-.29-.2-.15-.33-.21c-.13-.06-.26-.11-.41-.17-.15-.05-.29-.12-.43-.2-.14-.08-.27-.18-.39-.31s-.21-.28-.28-.46c-.07-.18-.1-.4-.1-.66s.04-.48.13-.69c.09-.21.21-.39.36-.54.15-.15.33-.27.54-.35.21-.08.43-.12.67-.12.35,0,.64.06.89.18.25.12.46.27.62.47l-.56.65Z"/><path class="cls-6" d="m94.65,9.3h-.99V.59h.99v3.91h.02c.1-.32.27-.6.52-.83.25-.23.55-.35.91-.35.31,0,.56.07.75.2.2.13.35.3.45.52.1.22.17.46.21.74.04.28.06.56.06.84v3.69h-.99v-3.7c0-.16,0-.33-.02-.5-.02-.17-.05-.32-.11-.46s-.14-.25-.25-.33c-.11-.08-.25-.13-.44-.13-.16,0-.31.04-.45.13s-.26.21-.36.37c-.1.16-.18.35-.23.57-.05.22-.08.46-.08.72v3.33Z"/><path class="cls-6" d="m101.01,1.8c0,.19-.06.35-.18.47-.12.12-.26.18-.43.18s-.32-.06-.44-.18c-.12-.12-.17-.28-.17-.47s.06-.34.17-.47.26-.19.44-.19.32.06.44.19.17.28.17.47Zm-1.11,7.5V3.52h.98v5.79h-.98Z"/><path class="cls-6" d="m106.19,9.3v-3.7c0-.16,0-.33-.02-.5s-.05-.32-.11-.46c-.06-.14-.14-.25-.25-.33-.11-.08-.25-.13-.44-.13-.16,0-.31.04-.45.13s-.26.21-.36.37c-.1.16-.18.35-.23.57-.05.22-.08.46-.08.72v3.33h-.98v-4.32c0-.23,0-.48-.01-.74s-.02-.51-.03-.72h.93c.02.19.04.38.05.58.01.19.02.33.02.43h.02c.11-.34.29-.62.54-.85.25-.23.56-.35.92-.35.31,0,.56.07.75.2.2.13.35.3.45.52.1.22.17.46.21.74s.06.56.06.84v3.69h-.99Z"/><path class="cls-6" d="m112.49,3.52h.96v5.79c0,.39-.04.75-.11,1.09s-.2.63-.37.88c-.17.25-.4.45-.68.59-.28.14-.62.21-1.03.21s-.76-.08-1.11-.25c-.35-.17-.64-.39-.86-.66l.61-.69c.17.21.37.38.61.51.24.13.5.2.78.2.24,0,.43-.05.59-.14.15-.1.28-.23.37-.4.09-.17.16-.37.19-.6.03-.23.05-.48.05-.74v-.91h-.02c-.09.32-.24.58-.44.79-.2.21-.51.32-.9.32-.29,0-.55-.08-.78-.24-.23-.16-.42-.37-.58-.65-.16-.28-.28-.61-.36-.99-.08-.38-.12-.8-.12-1.25s.04-.85.12-1.23c.08-.37.19-.7.35-.97.16-.27.35-.48.58-.63.23-.15.5-.22.8-.22.34,0,.62.1.86.29.23.19.39.44.48.74h.03v-.83Zm0,2.89c0-.31-.02-.61-.07-.88-.05-.27-.12-.51-.21-.71-.1-.2-.21-.36-.35-.47-.14-.12-.3-.17-.48-.17s-.36.06-.49.17c-.13.12-.25.27-.33.47-.09.2-.15.44-.2.71-.04.27-.06.57-.06.88s.02.61.06.88c.04.27.11.5.2.7.09.2.2.36.33.47.13.12.3.17.49.17s.35-.06.49-.17c.14-.12.26-.27.35-.47.09-.2.16-.43.21-.7.05-.27.07-.56.07-.88Z"/><path class="cls-6" d="m117.66,9.41c-.14.03-.28.05-.41.05-.45,0-.76-.14-.95-.43-.19-.28-.28-.68-.28-1.19v-3.53h-.74v-.8h.73v-1.54h.96v1.54h1.03v.8h-1.03v3.32c0,.34.05.58.15.73.1.15.25.22.45.22.07,0,.14,0,.22-.03.08-.02.14-.04.2-.06l.02.78c-.08.05-.2.08-.33.12Z"/><path class="cls-6" d="m123.66,6.42c0,.46-.05.88-.14,1.26-.1.38-.23.7-.41.97-.18.27-.4.48-.66.63-.26.15-.56.22-.89.22s-.61-.07-.88-.22c-.26-.15-.48-.36-.66-.63-.18-.27-.32-.59-.41-.97-.1-.38-.14-.8-.14-1.26s.05-.88.14-1.27c.1-.38.23-.71.41-.98.18-.27.4-.48.66-.63.26-.15.56-.22.89-.22s.63.07.89.22c.26.15.48.36.66.63.18.27.32.6.41.98.1.38.14.81.14,1.27Zm-1.01,0c0-.31-.02-.61-.06-.88-.04-.27-.11-.51-.2-.71s-.21-.36-.35-.47c-.14-.11-.3-.17-.48-.17s-.35.06-.48.17c-.14.11-.25.27-.34.47s-.15.43-.2.71c-.04.27-.06.57-.06.88s.02.61.06.87c.04.27.11.5.2.7s.2.36.34.47.3.17.48.17.36-.06.5-.17.25-.27.34-.47c.09-.2.15-.43.2-.7.04-.27.06-.56.06-.87Z"/><path class="cls-6" d="m128.69,9.3v-3.7c0-.16,0-.33-.02-.5s-.05-.32-.11-.46c-.06-.14-.14-.25-.25-.33-.11-.08-.25-.13-.44-.13-.16,0-.31.04-.45.13s-.26.21-.36.37c-.1.16-.18.35-.23.57-.05.22-.08.46-.08.72v3.33h-.98v-4.32c0-.23,0-.48-.01-.74s-.02-.51-.03-.72h.93c.02.19.04.38.05.58.01.19.02.33.02.43h.02c.11-.34.29-.62.54-.85.25-.23.56-.35.92-.35.31,0,.56.07.75.2.2.13.35.3.45.52.1.22.17.46.21.74s.06.56.06.84v3.69h-.99Z"/><path class="cls-6" d="m137.23,9.5c-.35,0-.65-.07-.91-.22-.26-.15-.48-.36-.65-.63-.17-.27-.3-.6-.39-.97-.09-.38-.13-.8-.13-1.26s.04-.88.13-1.26c.09-.38.22-.7.4-.97.18-.27.4-.48.66-.63.26-.15.56-.22.91-.22.31,0,.57.05.78.16.21.1.38.22.5.34l-.5.74c-.09-.11-.2-.2-.32-.27-.12-.07-.27-.1-.45-.1s-.35.06-.48.17c-.14.11-.25.27-.34.46-.09.2-.16.43-.2.7-.05.27-.07.57-.07.89s.02.62.06.88c.04.27.11.5.2.69.09.19.21.34.36.45.15.11.32.16.53.16.18,0,.33-.03.46-.1.13-.07.24-.16.33-.28l.44.76c-.32.35-.75.53-1.3.53Z"/><path class="cls-6" d="m141.41,1.8c0,.19-.06.35-.18.47-.12.12-.26.18-.43.18s-.32-.06-.44-.18c-.12-.12-.17-.28-.17-.47s.06-.34.17-.47.26-.19.44-.19.32.06.44.19.17.28.17.47Zm-1.11,7.5V3.52h.98v5.79h-.98Z"/><path class="cls-6" d="m145.51,9.41c-.14.03-.28.05-.41.05-.45,0-.76-.14-.95-.43-.19-.28-.28-.68-.28-1.19v-3.53h-.74v-.8h.73v-1.54h.96v1.54h1.03v.8h-1.03v3.32c0,.34.05.58.15.73.1.15.25.22.45.22.07,0,.14,0,.22-.03.08-.02.14-.04.2-.06l.02.78c-.08.05-.2.08-.33.12Z"/><path class="cls-6" d="m149.8,10.35c-.07.26-.15.5-.24.71-.09.21-.2.39-.32.54s-.28.27-.46.35c-.18.08-.38.12-.62.12-.13,0-.26,0-.38-.03-.12-.02-.22-.04-.3-.06l.13-.89c.15.05.3.08.46.08.22,0,.39-.07.5-.21.11-.14.2-.33.26-.58l.22-.91-1.71-5.96h1.04l1.14,4.63h.02l1.04-4.63h1l-1.79,6.83Z"/></g><g><path class="cls-6" d="m89.55,44.02l-1.17-5.21h-6.42l-1.17,5.21h-6.46l6.95-28.6h8.12l6.91,28.6h-6.75Zm-4.28-22.38h-.16l-2.42,12.16h4.89l-2.3-12.16Z"/><path class="cls-6" d="m110.19,44.02l-3.82-11.39h-1.89v11.39h-6.22V15.42h9.15c2.77,0,4.92.72,6.45,2.16,1.53,1.44,2.3,3.59,2.3,6.44,0,1.05-.12,1.99-.36,2.83-.24.84-.56,1.55-.95,2.14-.39.59-.83,1.08-1.31,1.45-.48.38-.95.65-1.41.81l4.87,12.77h-6.81Zm-.38-19.64c0-.73-.1-1.32-.3-1.78-.2-.46-.46-.82-.79-1.09-.32-.27-.68-.45-1.07-.55-.39-.09-.77-.14-1.15-.14h-2.02v7.23h1.9c.92,0,1.72-.29,2.4-.87.69-.58,1.03-1.52,1.03-2.81Z"/><path class="cls-6" d="m129.07,20.91v23.11h-6.34v-23.11h-5.25v-5.49h16.85v5.49h-5.25Z"/><path class="cls-6" d="m148.52,22.25c-.48-.57-1.05-1-1.7-1.31-.65-.31-1.32-.46-2.02-.46s-1.38.23-1.96.69c-.58.46-.87,1.21-.87,2.27,0,.89.3,1.59.89,2.08.59.5,1.47,1.05,2.63,1.64.65.32,1.34.71,2.05,1.15.72.45,1.38.99,1.97,1.64.6.65,1.09,1.42,1.48,2.33.39.9.59,1.98.59,3.22,0,1.54-.24,2.89-.73,4.07s-1.15,2.14-1.97,2.91c-.83.77-1.78,1.35-2.86,1.74-1.08.39-2.2.59-3.36.59-1.72,0-3.29-.32-4.71-.97-1.41-.65-2.55-1.4-3.41-2.26l3.31-4.85c.62.65,1.33,1.17,2.14,1.56.81.39,1.63.59,2.46.59.78,0,1.44-.26,1.98-.77.54-.51.81-1.23.81-2.14s-.32-1.69-.97-2.24c-.65-.55-1.59-1.14-2.83-1.76-.78-.38-1.52-.79-2.2-1.25-.69-.46-1.29-1.01-1.82-1.66-.53-.65-.94-1.4-1.23-2.26-.3-.86-.44-1.89-.44-3.07,0-1.59.26-2.96.79-4.1.53-1.14,1.21-2.08,2.06-2.81.85-.73,1.79-1.27,2.83-1.62,1.04-.35,2.08-.53,3.13-.53,1.56,0,2.96.25,4.2.76,1.24.51,2.28,1.2,3.11,2.09l-3.35,4.75Z"/></g><g><path class="cls-6" d="m83.82,63.75c-.72.42-1.63.63-2.75.63-.95,0-1.81-.21-2.58-.63-.77-.42-1.43-1.01-1.98-1.76s-.98-1.66-1.28-2.7c-.31-1.05-.46-2.2-.46-3.45s.15-2.43.46-3.48c.31-1.05.73-1.96,1.28-2.7.55-.75,1.21-1.33,1.98-1.74.77-.41,1.63-.62,2.58-.62,1.08,0,1.99.19,2.72.58.73.39,1.31.87,1.75,1.45l-1.97,2.66c-.27-.37-.58-.66-.93-.87-.34-.21-.78-.32-1.29-.32-.49,0-.91.13-1.27.39-.36.26-.66.62-.92,1.07-.25.45-.44.99-.56,1.6-.12.62-.18,1.28-.18,1.98s.06,1.36.18,1.97c.12.61.31,1.15.56,1.6.25.46.56.82.93,1.08.37.26.79.39,1.28.39s.92-.12,1.28-.37c.37-.24.66-.53.87-.87l2.04,2.54c-.44.63-1.02,1.15-1.74,1.57Z"/><path class="cls-6" d="m98.11,55.79c0,1.28-.15,2.46-.44,3.52-.29,1.06-.7,1.97-1.24,2.72-.53.75-1.19,1.33-1.96,1.74-.77.41-1.64.62-2.6.62s-1.83-.21-2.6-.62c-.77-.41-1.42-.99-1.96-1.74-.53-.75-.95-1.65-1.24-2.72-.29-1.06-.44-2.23-.44-3.52s.14-2.45.42-3.49c.28-1.05.69-1.94,1.23-2.68.53-.74,1.19-1.31,1.96-1.72.77-.4,1.65-.61,2.62-.61s1.83.2,2.6.61c.77.4,1.42.98,1.96,1.72.53.74.95,1.63,1.24,2.68.29,1.05.44,2.21.44,3.49Zm-3.76,0c0-.7-.05-1.36-.16-1.96-.11-.6-.26-1.13-.47-1.57-.21-.44-.46-.79-.77-1.04-.31-.25-.66-.38-1.08-.38s-.78.13-1.09.38c-.31.25-.57.6-.78,1.04-.21.44-.36.97-.46,1.57-.1.6-.15,1.26-.15,1.96s.05,1.36.15,1.97c.1.61.25,1.14.46,1.58.21.44.47.79.78,1.05.31.26.68.39,1.09.39s.77-.13,1.08-.39c.31-.26.56-.61.77-1.05.21-.44.36-.97.47-1.58.11-.61.16-1.27.16-1.97Z"/><path class="cls-6" d="m110.39,60.46c-.21.78-.53,1.46-.97,2.04-.44.58-1.02,1.04-1.72,1.37-.7.34-1.55.5-2.54.5s-1.83-.17-2.52-.5-1.25-.79-1.68-1.37c-.44-.58-.75-1.26-.94-2.04-.19-.78-.29-1.62-.29-2.52v-10.22h3.69v9.9c0,.46.03.89.08,1.28.05.4.15.74.29,1.02.14.28.32.51.55.68.23.17.53.25.89.25s.66-.08.89-.25c.23-.17.41-.39.55-.68.14-.28.23-.62.29-1.02.05-.4.08-.82.08-1.28v-9.9h3.67v10.22c0,.9-.1,1.74-.31,2.52Z"/><path class="cls-6" d="m119.99,63.95l-3.76-9.87h-.07l.09,9.87h-3.28v-16.22h4.03l3.73,10.01h.07l-.07-10.01h3.16v16.22h-3.92Z"/><path class="cls-6" d="m134.77,63.75c-.72.42-1.63.63-2.75.63-.95,0-1.81-.21-2.58-.63-.77-.42-1.43-1.01-1.98-1.76s-.98-1.66-1.28-2.7c-.31-1.05-.46-2.2-.46-3.45s.15-2.43.46-3.48c.31-1.05.73-1.96,1.28-2.7.55-.75,1.21-1.33,1.98-1.74.77-.41,1.63-.62,2.58-.62,1.08,0,1.99.19,2.72.58.73.39,1.31.87,1.75,1.45l-1.97,2.66c-.27-.37-.58-.66-.93-.87-.34-.21-.78-.32-1.29-.32-.49,0-.91.13-1.27.39-.36.26-.66.62-.92,1.07-.25.45-.44.99-.56,1.6-.12.62-.18,1.28-.18,1.98s.06,1.36.18,1.97c.12.61.31,1.15.56,1.6.25.46.56.82.93,1.08.37.26.79.39,1.28.39s.92-.12,1.28-.37c.37-.24.66-.53.87-.87l2.04,2.54c-.44.63-1.02,1.15-1.74,1.57Z"/><path class="cls-6" d="m137.71,63.95v-16.22h3.69v16.22h-3.69Z"/><path class="cls-6" d="m143.83,63.95v-16.22h3.71v12.83h4.33v3.39h-8.04Z"/></g></g><g><g><path class="cls-6" d="m21.33,75.67c0-1.88.92-3.68,2.59-3.68.33,0,.74.1,1.08.3.24-.19.57-.31.78-.31.18,0,.26.06.26.18,0,.26-.28,2.4-.28,3.73,0,.98.11,1.23.43,1.43-.28.26-.59.41-.87.41-.42,0-.67-.21-.67-.9,0-.24.04-.75.1-1.21-.73,1.45-1.56,2.11-2.2,2.11-.83,0-1.22-.68-1.22-2.06Zm3.52-2.54c0-.39-.62-.64-.81-.64-.85,0-1.56,1.39-1.56,3.18,0,.81.2,1.16.58,1.16.69,0,1.79-1.92,1.79-3.7Z"/><path class="cls-6" d="m27.39,77.3c0-.31.17-2.56.17-3.51s-.04-1.28-.23-1.58c.24-.14.55-.22.77-.22.44,0,.59.21.59.8,0,.33-.11,1.77-.18,2.22.62-2.1,1.29-3.03,1.85-3.03.22,0,.57.52.94.67-.23.58-.48.79-.64.79-.18,0-.36-.1-.63-.41-.35,0-1.39,1.78-1.54,4.56-.11.07-.35.1-.53.1-.41,0-.55-.13-.57-.4Z"/><path class="cls-6" d="m32.62,76.42c0-.2.08-2.37.14-3.7h-.78c-.03-.06-.04-.17-.04-.23,0-.21.13-.32.37-.33h.47c.01-.28.03-.95.06-1.17.04-.44.3-.63,1.2-.7-.08.47-.14,1.27-.18,1.85l1.47-.06c-.07.37-.2.64-.66.64h-.84c-.06,1.14-.1,2.44-.1,3.35,0,.68.23.89.63.89.18,0,.42-.07.69-.18,0,.2-.03.33-.15.43-.39.33-.88.52-1.24.52-.78,0-1.05-.37-1.05-1.31Z"/><path class="cls-6" d="m37.85,79.25c.75,0,1.18-.18,1.31-1.75.07-.88.11-2.98.19-4.78h-.78c-.03-.06-.06-.17-.06-.23,0-.2.13-.32.39-.33h.47c.07-1.65.96-2.76,2.26-2.76.52,0,.74.2.74.47,0,.18-.1.4-.24.58-.11-.11-.45-.24-.74-.24-.58,0-.86.36-.89,1.17-.01.41.01.67.01.76l1.46-.06c-.07.37-.2.64-.66.64h-.81l-.12,2.43c-.19,3.48-.83,4.84-1.86,4.84-.37,0-.65-.21-.66-.75Z"/><path class="cls-6" d="m42.08,75.36c0-1.93,1.07-3.37,2.71-3.37,1.36,0,2.05.96,2.05,2.38,0,1.93-1.07,3.37-2.71,3.37-1.36,0-2.05-.96-2.05-2.38Zm3.55-.86c0-1.21-.3-1.95-1.06-1.95-.88,0-1.3,1.12-1.3,2.69,0,1.2.3,1.94,1.06,1.94.88,0,1.3-1.12,1.3-2.67Z"/><path class="cls-6" d="m47.47,76.96c0-.11.02-.22.06-.34.63.37,1.14.48,1.49.48.64,0,.98-.23.98-.75,0-1.01-2.28-1.16-2.28-2.61,0-1.03.94-1.76,2.09-1.76.85,0,1.22.22,1.22.66,0,.12-.03.26-.09.37-.53-.3-1-.42-1.34-.42-.54,0-.84.26-.84.73,0,.96,2.31,1.17,2.31,2.69,0,.89-.81,1.72-2.25,1.72-.94,0-1.35-.25-1.35-.77Z"/><path class="cls-6" d="m52.5,76.42c0-.2.08-2.37.14-3.7h-.78c-.03-.06-.04-.17-.04-.23,0-.21.13-.32.37-.33h.47c.01-.28.03-.95.06-1.17.04-.44.3-.63,1.2-.7-.08.47-.14,1.27-.18,1.85l1.47-.06c-.07.37-.2.64-.66.64h-.84c-.06,1.14-.1,2.44-.1,3.35,0,.68.23.89.63.89.18,0,.42-.07.69-.18,0,.2-.03.33-.15.43-.39.33-.88.52-1.24.52-.78,0-1.05-.37-1.05-1.31Z"/><path class="cls-6" d="m55.65,75.48c0-2.2,1.21-3.49,2.66-3.49.85,0,1.45.42,1.45,1.28,0,1.11-1.07,1.69-2.51,1.69-.13,0-.35-.01-.47-.02v.17c0,1.28.53,1.79,1.3,1.79.43,0,.84-.26,1.45-.83.06.06.08.14.08.22,0,.12-.03.23-.1.34-.5.75-1.17,1.1-1.77,1.1-1.3,0-2.09-.91-2.09-2.26Zm3.04-2.17c0-.52-.17-.84-.62-.84-.58,0-1.1.68-1.28,2.05.11.01.26.02.4.02.92,0,1.5-.34,1.5-1.23Z"/><path class="cls-6" d="m60.84,77.3c0-.31.17-2.56.17-3.51s-.04-1.28-.23-1.58c.24-.14.55-.22.77-.22.44,0,.59.21.59.8,0,.33-.11,1.77-.18,2.22.62-2.1,1.29-3.03,1.85-3.03.22,0,.57.52.94.67-.23.58-.48.79-.64.79-.18,0-.36-.1-.63-.41-.35,0-1.39,1.78-1.54,4.56-.11.07-.35.1-.53.1-.41,0-.55-.13-.57-.4Z"/><path class="cls-6" d="m65.13,76.96c0-.11.02-.22.06-.34.63.37,1.14.48,1.49.48.64,0,.98-.23.98-.75,0-1.01-2.28-1.16-2.28-2.61,0-1.03.94-1.76,2.09-1.76.85,0,1.22.22,1.22.66,0,.12-.03.26-.09.37-.53-.3-1-.42-1.34-.42-.54,0-.84.26-.84.73,0,.96,2.31,1.17,2.31,2.69,0,.89-.81,1.72-2.25,1.72-.94,0-1.35-.25-1.35-.77Z"/><path class="cls-6" d="m72.21,75.48c0-2.31,1.29-3.49,2.67-3.49.9,0,1.49.4,1.49.88,0,.31-.2.51-.56.58-.43-.66-.84-.88-1.14-.88-.73,0-1.29,1.07-1.29,2.45,0,1.31.48,1.87,1.29,1.87.44,0,.91-.31,1.44-.8.13.14.1.39-.02.57-.45.66-1.12,1.07-1.75,1.07-1.34,0-2.12-.92-2.12-2.26Z"/><path class="cls-6" d="m77.01,75.36c0-1.93,1.07-3.37,2.71-3.37,1.36,0,2.05.96,2.05,2.38,0,1.93-1.07,3.37-2.71,3.37-1.36,0-2.05-.96-2.05-2.38Zm3.55-.86c0-1.21-.3-1.95-1.06-1.95-.88,0-1.3,1.12-1.3,2.69,0,1.2.3,1.94,1.06,1.94.88,0,1.3-1.12,1.3-2.67Z"/><path class="cls-6" d="m89.12,76.91c0-.75.15-2.21.15-3.03,0-.75-.12-.92-.41-.92-.54,0-1.58,1.65-1.78,4.46-.02.28-.02.3-.44.3s-.66-.09-.66-.59c0-.77.12-2.3.12-3.11,0-.75-.12-.95-.42-.95-.53,0-1.61,1.56-1.78,4.52-.12.09-.29.12-.55.12-.4,0-.55-.12-.55-.4,0-.3.2-2.45.2-3.63,0-.79-.02-1.24-.22-1.56.24-.17.54-.25.77-.25.39,0,.59.17.59.73,0,.33-.1,1.72-.17,2.21.63-1.78,1.53-2.7,2.32-2.7.65,0,.92.5.92,1.36,0,.35-.06.85-.1,1.34.63-1.77,1.55-2.82,2.34-2.82.66,0,.92.48.92,1.36,0,.74-.11,2.12-.11,2.94,0,.51.08.88.42,1.07-.24.23-.62.37-.94.37-.5,0-.65-.25-.65-.83Z"/><path class="cls-6" d="m98.16,76.91c0-.75.15-2.21.15-3.03,0-.75-.12-.92-.41-.92-.54,0-1.58,1.65-1.78,4.46-.02.28-.02.3-.44.3s-.66-.09-.66-.59c0-.77.12-2.3.12-3.11,0-.75-.12-.95-.42-.95-.53,0-1.61,1.56-1.78,4.52-.12.09-.29.12-.55.12-.4,0-.55-.12-.55-.4,0-.3.2-2.45.2-3.63,0-.79-.02-1.24-.22-1.56.24-.17.54-.25.77-.25.39,0,.59.17.59.73,0,.33-.1,1.72-.17,2.21.63-1.78,1.53-2.7,2.32-2.7.65,0,.92.5.92,1.36,0,.35-.06.85-.1,1.34.63-1.77,1.55-2.82,2.34-2.82.66,0,.92.48.92,1.36,0,.74-.11,2.12-.11,2.94,0,.51.08.88.42,1.07-.24.23-.62.37-.94.37-.5,0-.65-.25-.65-.83Z"/><path class="cls-6" d="m101.04,75.08c0-.86.09-2.82.09-3.45,0-.56-.01-1.07-.16-1.35.39-.15.74-.22.97-.22.4,0,.49.23.49.63,0,.75-.13,3.04-.13,4.36,0,1.17.53,1.77,1.73,1.77s1.76-.55,1.83-1.97c.04-.89.07-2.61.07-3.63-.01-.68-.04-.85-.15-.99.19-.11.47-.18.72-.18.32,0,.49.11.49.53,0,.81-.08,3.35-.16,4.38-.13,1.69-1.01,2.77-2.89,2.77-2.25,0-2.9-1.19-2.9-2.65Z"/><path class="cls-6" d="m108.63,77.1c0-.34.21-4.61.21-5.53,0-.7-.06-1.16-.16-1.4.29-.08.56-.12.75-.12.39,0,.58.13.87.53.86,1.17,1.9,2.75,3.36,4.98.02-1.04.04-3.01.04-3.9s-.05-1.23-.19-1.49c.23-.08.49-.12.66-.12.39,0,.54.15.54.6,0,.89-.19,4.27-.19,5.18,0,.23.02,1.04.02,1.3,0,.32-.02.42-.2.48-.09.05-.36.09-.46.09s-.14-.04-.2-.13c-.23-.31-.66-1-1.07-1.63-.55-.83-1.97-2.92-2.92-4.27-.01.87-.05,4.11-.05,4.84,0,.59.07.92.18,1.08-.25.08-.5.13-.69.13-.35,0-.49-.19-.49-.62Z"/><path class="cls-6" d="m116.43,77.15c0-.47.19-4.48.19-5.28,0-1.03-.05-1.39-.16-1.57.22-.12.67-.23.95-.23.43,0,.53.15.53.68,0,.33-.22,4.79-.22,5.24,0,1.07.04,1.32.15,1.51-.2.15-.56.25-.82.25-.45,0-.61-.16-.61-.59Z"/><path class="cls-6" d="m121.11,77.15c0-.45.2-4.94.22-6.14h-.75c-.93,0-1.36.08-1.56.21-.01-.73.21-1.02,1.02-1.03l4.71-.11c0,.68-.26.93-.94.93h-1.22c-.02.93-.2,4.57-.2,4.97,0,1.07.04,1.32.14,1.51-.2.15-.55.25-.82.25-.43,0-.6-.16-.6-.59Z"/><path class="cls-6" d="m127.64,77.15c0-.39.08-2.04.09-2.68l-1.5-3.03c-.35-.7-.58-.97-.74-1.08.27-.2.55-.31.87-.31.41,0,.69.16.97.75l1.31,2.78.93-1.63c.47-.83.6-1.35.6-1.61,0-.08,0-.19-.02-.23.16-.04.43-.07.59-.07.38,0,.55.13.55.41,0,.2-.13.52-.42.97l-1.89,3.04c-.02.52-.06,1.51-.06,2.04s.05.81.15.97c-.2.15-.56.25-.82.25-.45,0-.61-.16-.61-.59Z"/></g><polygon class="cls-4" points="12.71 71.6 18.07 74.18 12.72 76.85 12.71 71.6"/><polygon class="cls-1" points="6.42 71.6 11.78 74.18 6.43 76.85 6.42 71.6"/><polygon class="cls-3" points=".13 71.6 5.49 74.18 .14 76.85 .13 71.6"/><polygon class="cls-4" points="139.96 76.85 134.6 74.27 139.95 71.6 139.96 76.85"/><polygon class="cls-1" points="146.25 76.85 140.89 74.27 146.24 71.6 146.25 76.85"/><polygon class="cls-3" points="152.54 76.85 147.18 74.27 152.53 71.6 152.54 76.85"/></g></g></g></svg>