<?xml version="1.0" encoding="UTF-8"?><svg id="Layer_2" xmlns="http://www.w3.org/2000/svg" viewBox="0 0 170 170.16"><defs><style>.cls-1{fill:#f28547;}.cls-2{fill:#fff;}.cls-3{fill:#7e8569;}.cls-4{fill:#7e99be;}.cls-5{fill:#8d614e;}</style></defs><g id="Outlined_Logos"><g><polygon class="cls-1" points="73.15 85.82 87.24 57.55 58.59 .16 0 .16 59.27 113.64 73.15 85.82"/><polygon class="cls-1" points="0 .16 0 .16 0 .16 0 .16"/><polygon class="cls-4" points="87.26 57.51 87.26 57.51 87.26 57.51 101.38 85.82 115.24 113.62 170 0 58.58 .14 58.59 .16 115.87 .16 87.26 57.51"/><polygon class="cls-5" points="87.26 57.51 115.87 .16 58.59 .16 87.24 57.55 87.26 57.51"/><polygon class="cls-3" points="170 170.16 170 0 170 56.52 129.33 141.91 115.26 170.12 115.22 170.14 115.16 170.12 101.1 141.93 87.24 114.13 73.4 141.91 59.33 170.12 59.29 170.14 59.23 170.12 45.15 141.93 0 55.28 0 170.16 170 170.16"/><polygon class="cls-2" points="59.23 170.12 59.29 170.14 59.33 170.12 73.4 141.91 87.24 114.13 101.1 141.93 115.16 170.12 115.22 170.14 115.26 170.12 129.33 141.91 170 56.52 170 0 115.24 113.62 115.24 113.62 101.38 85.82 87.26 57.51 87.26 57.51 87.24 57.55 73.15 85.82 59.27 113.64 59.27 113.64 0 .16 0 .16 0 55.27 0 55.28 45.15 141.93 59.23 170.12"/></g></g></svg>