<?xml version="1.0" encoding="UTF-8"?><svg id="Layer_2" xmlns="http://www.w3.org/2000/svg" viewBox="0 0 849.38 361.07"><defs><style>.cls-1{fill:#f28547;}.cls-2{fill:#fff;}.cls-3{fill:#7e8569;}.cls-4{fill:#7e99be;}.cls-5{fill:#8d614e;}</style></defs><g id="Outlined_Logos"><g><polygon class="cls-1" points="154.9 181.74 184.75 121.87 124.07 .33 0 .33 125.51 240.64 154.9 181.74"/><polygon class="cls-1" points="0 .33 0 .33 0 .34 0 .33"/><polygon class="cls-4" points="184.79 121.79 184.79 121.79 184.79 121.79 214.69 181.74 244.03 240.6 360 0 124.05 .29 124.07 .33 245.37 .33 184.79 121.79"/><polygon class="cls-5" points="184.79 121.79 245.37 .33 124.07 .33 184.75 121.87 184.79 121.79"/><polygon class="cls-3" points="360 360.33 360 0 360 119.69 273.88 300.51 244.07 360.25 243.99 360.29 243.86 360.25 214.1 300.55 184.75 241.69 155.45 300.51 125.64 360.25 125.55 360.29 125.43 360.25 95.62 300.55 0 117.05 0 360.33 360 360.33"/><polygon class="cls-2" points="125.43 360.25 125.55 360.29 125.64 360.25 155.45 300.51 184.75 241.69 214.1 300.55 243.86 360.25 243.99 360.29 244.07 360.25 273.88 300.51 360 119.69 360 0 244.03 240.6 244.03 240.6 214.68 181.74 184.79 121.79 184.79 121.79 184.75 121.87 154.9 181.74 125.51 240.64 125.51 240.64 0 .34 0 .33 0 117.05 0 117.05 95.62 300.55 125.43 360.25"/></g><g><g><path class="cls-2" d="m447.72,53.03h-6.32l-4.96-24.49h-.06l-5.03,24.49h-6.12l-6.7-32.35h5.61l4.51,26.04h.13l5.22-26.04h5.09l5.35,26.04h.06l4.58-26.04h5.54l-6.9,32.35Z"/><path class="cls-2" d="m479.29,53.03c-.17-.99-.3-1.98-.39-2.96-.09-.99-.13-1.78-.13-2.39h-.13c-.47,1.93-1.32,3.45-2.55,4.54-1.23,1.1-2.91,1.64-5.06,1.64-.9,0-1.83-.17-2.77-.52s-1.79-.9-2.54-1.68c-.75-.77-1.38-1.76-1.87-2.97-.49-1.2-.74-2.68-.74-4.45,0-2.32.42-4.22,1.26-5.7s1.89-2.64,3.16-3.48c1.27-.84,2.67-1.41,4.22-1.71,1.55-.3,3.03-.45,4.45-.45h2.13v-1.42c0-2.53-.48-4.37-1.45-5.51-.97-1.14-2.27-1.71-3.9-1.71-1.2,0-2.32.3-3.35.9-1.03.6-1.91,1.4-2.64,2.38l-2.77-3.42c1.07-1.46,2.47-2.59,4.19-3.38,1.72-.79,3.42-1.19,5.09-1.19,1.85,0,3.41.3,4.67.9,1.27.6,2.29,1.48,3.06,2.64.77,1.16,1.32,2.59,1.64,4.29.32,1.7.48,3.62.48,5.77v13.08c0,1.12.04,2.33.13,3.64.09,1.31.19,2.35.32,3.13h-4.51Zm-.84-15.92h-2.39c-.99,0-1.94.09-2.87.26-.92.17-1.75.51-2.48,1-.73.49-1.32,1.17-1.77,2.03-.45.86-.68,1.96-.68,3.29,0,1.98.43,3.43,1.29,4.35.86.92,1.85,1.39,2.96,1.39s2.05-.33,2.8-1c.75-.67,1.36-1.51,1.84-2.55.47-1.03.81-2.16,1-3.38.19-1.22.29-2.39.29-3.51v-1.87Z"/><path class="cls-2" d="m509.8,26.79c-.56-.82-1.28-1.49-2.16-2.03-.88-.54-1.92-.81-3.13-.81s-2.28.44-3.09,1.32c-.82.88-1.23,2.07-1.23,3.58s.42,2.6,1.26,3.29c.84.69,2.12,1.35,3.83,2,.9.34,1.79.76,2.67,1.26.88.49,1.68,1.13,2.38,1.9.71.77,1.28,1.69,1.71,2.74.43,1.05.64,2.31.64,3.77,0,1.68-.25,3.16-.74,4.45-.49,1.29-1.18,2.36-2.06,3.22-.88.86-1.92,1.51-3.13,1.97-1.2.45-2.51.68-3.93.68-1.93,0-3.7-.4-5.29-1.19-1.59-.79-2.92-1.86-4-3.19l3.22-3.55c.73.9,1.59,1.69,2.58,2.35.99.67,2.21,1,3.67,1,1.38,0,2.46-.49,3.26-1.48.79-.99,1.19-2.28,1.19-3.87,0-.9-.15-1.68-.45-2.32s-.71-1.19-1.22-1.64-1.13-.84-1.84-1.16c-.71-.32-1.47-.63-2.29-.93-.82-.3-1.62-.67-2.42-1.1-.8-.43-1.51-1-2.16-1.71s-1.16-1.57-1.55-2.58c-.39-1.01-.58-2.24-.58-3.71s.25-2.71.74-3.87c.49-1.16,1.17-2.16,2.03-3,.86-.84,1.87-1.48,3.03-1.93,1.16-.45,2.41-.68,3.74-.68,1.93,0,3.6.33,4.99,1,1.4.67,2.55,1.54,3.45,2.61l-3.16,3.61Z"/><path class="cls-2" d="m529.35,53.03h-5.54V4.3h5.54v21.85h.13c.56-1.81,1.52-3.35,2.9-4.64,1.37-1.29,3.07-1.93,5.09-1.93,1.72,0,3.13.37,4.22,1.1,1.1.73,1.93,1.7,2.51,2.9.58,1.2.98,2.58,1.19,4.13.21,1.55.32,3.12.32,4.7v20.62h-5.54v-20.67c0-.9-.04-1.83-.13-2.78-.09-.95-.29-1.81-.61-2.58s-.78-1.4-1.39-1.87c-.6-.47-1.42-.71-2.45-.71-.9,0-1.74.25-2.51.74s-1.44,1.18-2,2.07c-.56.88-.99,1.94-1.29,3.16-.3,1.23-.45,2.57-.45,4.04v18.6Z"/><path class="cls-2" d="m564.95,11.07c0,1.07-.33,1.96-1,2.64-.67.69-1.47,1.03-2.42,1.03s-1.8-.34-2.45-1.03c-.64-.69-.97-1.57-.97-2.64s.32-1.9.97-2.61,1.46-1.06,2.45-1.06,1.81.35,2.45,1.06c.64.71.97,1.58.97,2.61Zm-6.19,41.96V20.67h5.48v32.35h-5.48Z"/><path class="cls-2" d="m593.88,53.03v-20.67c0-.9-.04-1.83-.13-2.78s-.29-1.81-.61-2.58c-.32-.78-.79-1.4-1.39-1.87-.6-.47-1.42-.71-2.45-.71-.9,0-1.74.25-2.51.74s-1.44,1.18-2,2.07c-.56.88-.99,1.94-1.29,3.16-.3,1.23-.45,2.57-.45,4.04v18.6h-5.48v-24.17c0-1.29-.02-2.67-.06-4.16-.04-1.48-.11-2.82-.19-4.03h5.22c.13,1.07.22,2.15.29,3.22.06,1.07.1,1.87.1,2.39h.13c.6-1.89,1.6-3.48,3-4.77,1.4-1.29,3.1-1.93,5.12-1.93,1.72,0,3.13.37,4.22,1.1,1.1.73,1.93,1.7,2.51,2.9.58,1.2.98,2.58,1.19,4.13.22,1.55.32,3.12.32,4.7v20.62h-5.54Z"/><path class="cls-2" d="m629.11,20.67h5.35v32.35c0,2.19-.2,4.22-.61,6.09-.41,1.87-1.1,3.5-2.06,4.9-.97,1.4-2.23,2.49-3.8,3.29-1.57.79-3.49,1.19-5.77,1.19s-4.26-.46-6.22-1.39c-1.96-.92-3.56-2.16-4.8-3.71l3.42-3.87c.94,1.16,2.08,2.12,3.42,2.87,1.33.75,2.79,1.13,4.38,1.13,1.33,0,2.43-.27,3.29-.81.86-.54,1.55-1.28,2.06-2.22.52-.95.87-2.06,1.06-3.35.19-1.29.29-2.66.29-4.13v-5.09h-.13c-.52,1.76-1.34,3.23-2.48,4.41-1.14,1.18-2.83,1.77-5.06,1.77-1.63,0-3.09-.44-4.38-1.32-1.29-.88-2.37-2.09-3.25-3.64-.88-1.55-1.55-3.38-2-5.51-.45-2.13-.68-4.46-.68-6.99s.21-4.78.64-6.86c.43-2.08,1.08-3.89,1.97-5.41.88-1.52,1.97-2.71,3.26-3.55,1.29-.84,2.77-1.26,4.45-1.26,1.89,0,3.49.54,4.8,1.61,1.31,1.07,2.2,2.45,2.67,4.13h.19v-4.64Zm0,16.18c0-1.76-.13-3.41-.39-4.93-.26-1.52-.66-2.85-1.19-3.96-.54-1.12-1.19-2-1.97-2.64-.77-.64-1.68-.97-2.71-.97s-1.99.32-2.74.97c-.75.64-1.38,1.53-1.87,2.64-.49,1.12-.86,2.44-1.1,3.96-.24,1.53-.35,3.17-.35,4.93s.12,3.39.35,4.9c.24,1.5.6,2.81,1.1,3.93.49,1.12,1.12,2,1.87,2.64.75.64,1.66.97,2.74.97s1.94-.32,2.74-.97c.79-.64,1.45-1.52,1.97-2.64.52-1.12.9-2.43,1.16-3.93.26-1.5.39-3.14.39-4.9Z"/><path class="cls-2" d="m658.04,53.61c-.77.17-1.55.26-2.32.26-2.49,0-4.26-.8-5.32-2.38-1.05-1.59-1.58-3.8-1.58-6.64v-19.72h-4.12v-4.45h4.06v-8.64h5.35v8.64h5.74v4.45h-5.74v18.58c0,1.89.28,3.25.84,4.08.56.84,1.4,1.25,2.51,1.25.39,0,.79-.05,1.22-.14.43-.09.79-.2,1.1-.31l.13,4.38c-.47.26-1.1.47-1.87.64Z"/><path class="cls-2" d="m691.59,36.91c0,2.58-.27,4.92-.81,7.03-.54,2.11-1.31,3.91-2.32,5.41-1.01,1.5-2.25,2.67-3.71,3.51-1.46.84-3.12,1.26-4.96,1.26s-3.44-.42-4.9-1.26c-1.46-.84-2.7-2.01-3.71-3.51-1.01-1.5-1.78-3.31-2.32-5.41-.54-2.1-.81-4.45-.81-7.03s.27-4.94.81-7.09c.54-2.15,1.3-3.97,2.29-5.48.99-1.5,2.21-2.67,3.67-3.51,1.46-.84,3.11-1.26,4.96-1.26s3.5.42,4.96,1.26c1.46.84,2.7,2.01,3.71,3.51,1.01,1.5,1.78,3.33,2.32,5.48.54,2.15.81,4.51.81,7.09Zm-5.67-.03c0-1.76-.12-3.4-.35-4.92-.24-1.52-.61-2.84-1.13-3.95-.52-1.11-1.16-1.99-1.93-2.64-.77-.64-1.68-.97-2.71-.97s-1.93.32-2.71.97c-.77.64-1.41,1.52-1.9,2.64-.49,1.11-.86,2.43-1.1,3.95-.24,1.52-.35,3.16-.35,4.92s.12,3.39.35,4.89c.24,1.5.6,2.81,1.1,3.92s1.13,1.99,1.9,2.64,1.68.96,2.71.96,2-.32,2.77-.96,1.41-1.52,1.9-2.64c.49-1.11.86-2.42,1.1-3.92.24-1.5.35-3.13.35-4.89Z"/><path class="cls-2" d="m719.71,53.03v-20.67c0-.9-.04-1.83-.13-2.78s-.29-1.81-.61-2.58c-.32-.78-.79-1.4-1.39-1.87-.6-.47-1.42-.71-2.45-.71-.9,0-1.74.25-2.51.74s-1.44,1.18-2,2.07c-.56.88-.99,1.94-1.29,3.16-.3,1.23-.45,2.57-.45,4.04v18.6h-5.48v-24.17c0-1.29-.02-2.67-.06-4.16-.04-1.48-.11-2.82-.19-4.03h5.22c.13,1.07.22,2.15.29,3.22.06,1.07.1,1.87.1,2.39h.13c.6-1.89,1.6-3.48,3-4.77,1.4-1.29,3.1-1.93,5.12-1.93,1.72,0,3.13.37,4.22,1.1,1.1.73,1.93,1.7,2.51,2.9.58,1.2.98,2.58,1.19,4.13s.32,3.12.32,4.7v20.62h-5.54Z"/><path class="cls-2" d="m767.46,54.12c-1.93,0-3.63-.42-5.09-1.26-1.46-.84-2.67-2.02-3.64-3.54-.97-1.52-1.7-3.34-2.19-5.45-.49-2.1-.74-4.45-.74-7.03s.25-4.92.74-7.03c.49-2.1,1.24-3.92,2.22-5.45.99-1.52,2.21-2.71,3.67-3.55,1.46-.84,3.16-1.26,5.09-1.26,1.72,0,3.17.29,4.35.87,1.18.58,2.12,1.21,2.8,1.9l-2.77,4.13c-.52-.62-1.12-1.12-1.8-1.5-.69-.38-1.53-.57-2.51-.57s-1.93.31-2.71.94c-.77.62-1.41,1.49-1.9,2.58-.49,1.1-.87,2.4-1.13,3.91-.26,1.51-.39,3.17-.39,4.98s.12,3.46.35,4.94c.24,1.49.61,2.77,1.13,3.84.52,1.08,1.18,1.92,2,2.52.82.6,1.8.9,2.96.9.99,0,1.84-.19,2.55-.58.71-.39,1.32-.9,1.84-1.55l2.45,4.25c-1.76,1.98-4.19,2.96-7.28,2.96Z"/><path class="cls-2" d="m790.89,11.07c0,1.07-.33,1.96-1,2.64-.67.69-1.47,1.03-2.42,1.03s-1.8-.34-2.45-1.03c-.64-.69-.97-1.57-.97-2.64s.32-1.9.97-2.61,1.46-1.06,2.45-1.06,1.81.35,2.45,1.06.97,1.58.97,2.61Zm-6.19,41.96V20.67h5.48v32.35h-5.48Z"/><path class="cls-2" d="m813.8,53.61c-.77.17-1.55.26-2.32.26-2.49,0-4.26-.8-5.32-2.38-1.05-1.59-1.58-3.8-1.58-6.64v-19.72h-4.12v-4.45h4.06v-8.64h5.35v8.64h5.74v4.45h-5.74v18.58c0,1.89.28,3.25.84,4.08.56.84,1.4,1.25,2.51,1.25.39,0,.79-.05,1.22-.14.43-.09.79-.2,1.1-.31l.13,4.38c-.47.26-1.1.47-1.87.64Z"/><path class="cls-2" d="m837.77,58.89c-.39,1.46-.83,2.78-1.32,3.96-.49,1.18-1.1,2.19-1.8,3.03s-1.56,1.48-2.55,1.93c-.99.45-2.15.68-3.48.68-.73,0-1.44-.05-2.13-.16-.69-.11-1.25-.23-1.68-.35l.71-4.96c.81.3,1.68.45,2.58.45,1.25,0,2.18-.39,2.8-1.16.62-.77,1.11-1.85,1.45-3.22l1.23-5.09-9.54-33.32h5.8l6.38,25.91h.13l5.8-25.91h5.61l-9.99,38.22Z"/></g><g><path class="cls-2" d="m500.8,247.21l-6.55-29.15h-35.93l-6.55,29.15h-36.15l38.86-159.98h45.42l38.64,159.98h-37.73Zm-23.95-125.18h-.9l-13.56,68.01h27.34l-12.88-68.01Z"/><path class="cls-2" d="m616.27,247.21l-21.39-63.72h-10.59v63.72h-34.8V87.23h51.18c15.48,0,27.5,4.03,36.07,12.09,8.57,8.06,12.85,20.08,12.85,36.04,0,5.88-.68,11.15-2.03,15.82-1.35,4.67-3.12,8.66-5.29,11.98-2.18,3.32-4.62,6.03-7.32,8.13-2.7,2.11-5.33,3.62-7.88,4.52l27.26,71.4h-38.07Zm-2.15-109.82c0-4.07-.57-7.38-1.69-9.94-1.13-2.56-2.6-4.59-4.41-6.1-1.81-1.5-3.81-2.52-5.99-3.05-2.19-.53-4.33-.79-6.44-.79h-11.3v40.45h10.62c5.12,0,9.6-1.62,13.44-4.86,3.84-3.24,5.76-8.47,5.76-15.7Z"/><path class="cls-2" d="m721.83,117.96v129.25h-35.48V117.96h-29.37v-30.73h94.22v30.73h-29.37Z"/><path class="cls-2" d="m830.63,125.42c-2.71-3.16-5.87-5.61-9.49-7.34-3.62-1.73-7.38-2.6-11.3-2.6s-7.72,1.29-10.96,3.85c-3.24,2.57-4.86,6.79-4.86,12.68,0,4.98,1.66,8.87,4.97,11.65,3.31,2.79,8.21,5.85,14.69,9.17,3.64,1.81,7.47,3.96,11.49,6.45,4.02,2.49,7.7,5.54,11.03,9.17,3.34,3.62,6.1,7.96,8.3,13.01,2.2,5.06,3.3,11.05,3.3,18,0,8.6-1.37,16.18-4.1,22.75-2.73,6.56-6.4,11.99-11.03,16.29-4.63,4.3-9.96,7.55-16.01,9.73-6.06,2.19-12.32,3.28-18.8,3.28-9.64,0-18.42-1.81-26.32-5.42-7.91-3.62-14.28-7.83-19.09-12.65l18.53-27.11c3.46,3.62,7.46,6.52,11.98,8.7,4.52,2.19,9.11,3.28,13.78,3.28,4.37,0,8.06-1.43,11.07-4.29,3.01-2.86,4.52-6.85,4.52-11.98s-1.81-9.45-5.42-12.54c-3.62-3.09-8.89-6.36-15.82-9.83-4.37-2.11-8.47-4.44-12.32-7-3.84-2.56-7.23-5.65-10.17-9.26-2.94-3.62-5.24-7.83-6.89-12.65-1.66-4.82-2.49-10.54-2.49-17.17,0-8.89,1.47-16.53,4.41-22.93,2.94-6.4,6.78-11.64,11.52-15.7,4.75-4.07,10.02-7.08,15.82-9.04,5.8-1.96,11.64-2.94,17.51-2.94,8.73,0,16.57,1.42,23.5,4.26,6.93,2.84,12.73,6.73,17.4,11.67l-18.76,26.55Z"/></g><g><path class="cls-2" d="m468.77,357.55c-4.02,2.35-9.14,3.52-15.38,3.52-5.3,0-10.1-1.18-14.42-3.52-4.31-2.35-8.01-5.64-11.08-9.87s-5.47-9.27-7.18-15.12c-1.71-5.85-2.56-12.28-2.56-19.28s.85-13.58,2.56-19.48c1.71-5.89,4.1-10.93,7.18-15.12,3.08-4.18,6.77-7.43,11.08-9.74,4.31-2.31,9.12-3.46,14.42-3.46,6.06,0,11.13,1.09,15.18,3.27,4.06,2.18,7.32,4.89,9.8,8.14l-11.02,14.86c-1.54-2.05-3.27-3.67-5.19-4.87-1.92-1.2-4.34-1.79-7.24-1.79-2.74,0-5.11.73-7.11,2.18-2.01,1.45-3.72,3.44-5.13,5.96-1.41,2.52-2.46,5.51-3.14,8.97-.68,3.46-1.03,7.16-1.03,11.08s.34,7.6,1.03,11.02c.68,3.42,1.73,6.41,3.14,8.97,1.41,2.56,3.14,4.57,5.19,6.02,2.05,1.45,4.44,2.18,7.18,2.18s5.13-.68,7.18-2.05c2.05-1.37,3.67-2.99,4.87-4.87l11.4,14.22c-2.48,3.5-5.72,6.43-9.74,8.78Z"/><path class="cls-2" d="m548.71,313.02c0,7.18-.81,13.73-2.44,19.67-1.62,5.94-3.93,11-6.92,15.18-2.99,4.19-6.64,7.43-10.96,9.74-4.31,2.31-9.16,3.46-14.54,3.46s-10.23-1.15-14.54-3.46c-4.31-2.31-7.97-5.55-10.96-9.74-2.99-4.18-5.3-9.25-6.92-15.18-1.62-5.94-2.43-12.49-2.43-19.67s.79-13.69,2.37-19.54c1.58-5.85,3.86-10.85,6.86-14.99,2.99-4.14,6.64-7.35,10.96-9.61,4.31-2.26,9.2-3.4,14.67-3.4s10.23,1.13,14.54,3.4c4.31,2.26,7.96,5.47,10.96,9.61,2.99,4.14,5.3,9.14,6.92,14.99,1.62,5.85,2.44,12.37,2.44,19.54Zm-21.01,0c0-3.93-.3-7.58-.9-10.96-.6-3.37-1.47-6.3-2.63-8.78-1.15-2.48-2.59-4.42-4.29-5.83-1.71-1.41-3.72-2.11-6.02-2.11s-4.34.7-6.09,2.11c-1.75,1.41-3.2,3.35-4.36,5.83-1.15,2.48-2.01,5.4-2.56,8.78-.56,3.38-.83,7.03-.83,10.96s.28,7.6.83,11.02c.55,3.42,1.41,6.37,2.56,8.84,1.15,2.48,2.6,4.44,4.36,5.89,1.75,1.45,3.78,2.18,6.09,2.18s4.31-.72,6.02-2.18c1.71-1.45,3.14-3.42,4.29-5.89,1.15-2.48,2.03-5.42,2.63-8.84.6-3.42.9-7.09.9-11.02Z"/><path class="cls-2" d="m617.35,339.16c-1.15,4.36-2.97,8.16-5.45,11.4-2.48,3.25-5.68,5.81-9.61,7.69-3.93,1.88-8.67,2.82-14.22,2.82s-10.25-.94-14.1-2.82c-3.84-1.88-6.98-4.44-9.42-7.69-2.44-3.25-4.19-7.05-5.25-11.4-1.07-4.36-1.6-9.05-1.6-14.1v-57.15h20.63v55.36c0,2.56.15,4.96.45,7.18.3,2.22.83,4.12,1.6,5.7.77,1.58,1.79,2.84,3.08,3.78,1.28.94,2.95,1.41,5,1.41s3.72-.47,5-1.41c1.28-.94,2.31-2.2,3.08-3.78.77-1.58,1.3-3.48,1.6-5.7.3-2.22.45-4.61.45-7.18v-55.36h20.5v57.15c0,5.04-.58,9.74-1.73,14.1Z"/><path class="cls-2" d="m671.06,358.64l-21.01-55.23h-.38l.51,55.23h-18.32v-90.72h22.55l20.89,56h.38l-.38-56h17.68v90.72h-21.91Z"/><path class="cls-2" d="m753.74,357.55c-4.02,2.35-9.14,3.52-15.38,3.52-5.3,0-10.1-1.18-14.42-3.52-4.31-2.35-8.01-5.64-11.08-9.87-3.08-4.23-5.47-9.27-7.18-15.12-1.71-5.85-2.56-12.28-2.56-19.28s.85-13.58,2.56-19.48c1.71-5.89,4.1-10.93,7.18-15.12,3.08-4.18,6.77-7.43,11.08-9.74,4.31-2.31,9.12-3.46,14.42-3.46,6.06,0,11.13,1.09,15.18,3.27,4.06,2.18,7.32,4.89,9.8,8.14l-11.02,14.86c-1.54-2.05-3.27-3.67-5.19-4.87-1.92-1.2-4.34-1.79-7.24-1.79-2.74,0-5.11.73-7.11,2.18-2.01,1.45-3.72,3.44-5.13,5.96-1.41,2.52-2.46,5.51-3.14,8.97-.68,3.46-1.03,7.16-1.03,11.08s.34,7.6,1.03,11.02c.68,3.42,1.73,6.41,3.14,8.97,1.41,2.56,3.14,4.57,5.19,6.02,2.05,1.45,4.44,2.18,7.18,2.18s5.13-.68,7.18-2.05c2.05-1.37,3.67-2.99,4.87-4.87l11.4,14.22c-2.48,3.5-5.72,6.43-9.74,8.78Z"/><path class="cls-2" d="m770.16,358.64v-90.72h20.63v90.72h-20.63Z"/><path class="cls-2" d="m804.38,358.64v-90.72h20.76v71.76h24.22v18.96h-44.98Z"/></g></g></g></svg>