<?xml version="1.0" encoding="UTF-8"?><svg id="Layer_2" xmlns="http://www.w3.org/2000/svg" viewBox="0 0 360 296.1"><defs><style>.cls-1{fill:#f28547;}.cls-2{fill:#fff;}.cls-3{fill:#7e8569;}.cls-4{fill:#8d614e;}.cls-5{fill:#5b738b;}</style></defs><g id="Outlined_Logos"><g><g><path class="cls-2" d="m25.64,40.44h-5.24l-4.12-20.33h-.05l-4.17,20.33h-5.08L1.41,13.59h4.65l3.74,21.61h.11l4.33-21.61h4.23l4.44,21.61h.05l3.8-21.61h4.6l-5.72,26.85Z"/><path class="cls-2" d="m52,40.44c-.14-.82-.25-1.64-.32-2.46s-.11-1.48-.11-1.98h-.11c-.39,1.6-1.1,2.86-2.11,3.77-1.02.91-2.42,1.36-4.2,1.36-.75,0-1.52-.14-2.3-.43-.79-.28-1.49-.75-2.11-1.39s-1.14-1.46-1.55-2.46c-.41-1-.62-2.23-.62-3.69,0-1.93.35-3.5,1.04-4.73.69-1.23,1.57-2.19,2.62-2.89,1.05-.7,2.22-1.17,3.5-1.42,1.28-.25,2.51-.38,3.69-.38h1.77v-1.18c0-2.1-.4-3.63-1.2-4.57-.8-.94-1.88-1.42-3.24-1.42-1,0-1.92.25-2.78.75-.86.5-1.59,1.16-2.19,1.98l-2.3-2.84c.89-1.21,2.05-2.15,3.48-2.81,1.43-.66,2.84-.99,4.23-.99,1.53,0,2.83.25,3.88.75,1.05.5,1.9,1.23,2.54,2.19.64.96,1.1,2.15,1.36,3.56.27,1.41.4,3,.4,4.79v10.86c0,.93.04,1.93.11,3.02.07,1.09.16,1.95.27,2.59h-3.74Zm-.69-13.21h-1.98c-.82,0-1.61.07-2.38.21-.77.14-1.45.42-2.06.83-.61.41-1.1.97-1.47,1.69-.38.71-.56,1.62-.56,2.73,0,1.64.36,2.84,1.07,3.61.71.77,1.53,1.15,2.46,1.15s1.7-.28,2.33-.83c.62-.55,1.13-1.26,1.52-2.11.39-.86.67-1.79.83-2.81.16-1.02.24-1.99.24-2.92v-1.55Z"/><path class="cls-2" d="m77.49,18.67c-.46-.68-1.06-1.24-1.79-1.69-.73-.45-1.6-.67-2.59-.67s-1.89.37-2.57,1.1c-.68.73-1.02,1.72-1.02,2.97s.35,2.16,1.04,2.73c.7.57,1.76,1.12,3.18,1.66.75.29,1.49.63,2.22,1.04.73.41,1.39.94,1.98,1.58s1.06,1.4,1.42,2.27c.36.87.53,1.92.53,3.13,0,1.39-.2,2.62-.62,3.69-.41,1.07-.98,1.96-1.71,2.68s-1.6,1.26-2.59,1.63-2.09.56-3.26.56c-1.6,0-3.07-.33-4.39-.99-1.32-.66-2.42-1.54-3.32-2.65l2.67-2.94c.61.75,1.32,1.4,2.14,1.95.82.55,1.84.83,3.05.83,1.14,0,2.04-.41,2.7-1.23.66-.82.99-1.89.99-3.21,0-.75-.13-1.39-.38-1.93s-.59-.99-1.02-1.36c-.43-.37-.94-.69-1.53-.96-.59-.27-1.22-.53-1.9-.78-.68-.25-1.35-.55-2.01-.91-.66-.36-1.26-.83-1.79-1.42s-.96-1.3-1.28-2.14c-.32-.84-.48-1.86-.48-3.08s.2-2.25.62-3.21c.41-.96.97-1.79,1.69-2.49.71-.7,1.55-1.23,2.51-1.61.96-.37,2-.56,3.1-.56,1.61,0,2.99.28,4.15.83,1.16.55,2.11,1.28,2.86,2.17l-2.62,3Z"/><path class="cls-2" d="m93.89,40.44h-4.6V0h4.6v18.13h.11c.46-1.5,1.27-2.78,2.41-3.85,1.14-1.07,2.55-1.61,4.23-1.61,1.43,0,2.59.3,3.5.91.91.61,1.6,1.41,2.09,2.41.48,1,.81,2.14.99,3.42.18,1.28.27,2.59.27,3.9v17.12h-4.6v-17.16c0-.75-.04-1.52-.11-2.31s-.24-1.5-.51-2.14-.65-1.16-1.15-1.55c-.5-.39-1.18-.59-2.03-.59-.75,0-1.44.21-2.09.62s-1.19.98-1.66,1.71c-.46.73-.82,1.61-1.07,2.63-.25,1.02-.38,2.14-.38,3.35v15.44Z"/><path class="cls-2" d="m123.6,5.62c0,.89-.28,1.62-.83,2.19s-1.22.85-2.01.85-1.5-.28-2.03-.85c-.53-.57-.8-1.3-.8-2.19s.27-1.58.8-2.17c.54-.59,1.21-.88,2.03-.88s1.5.29,2.03.88c.54.59.8,1.31.8,2.17Zm-5.14,34.82V13.59h4.55v26.85h-4.55Z"/><path class="cls-2" d="m147.8,40.44v-17.16c0-.75-.04-1.52-.11-2.31s-.24-1.5-.51-2.14-.65-1.16-1.15-1.55c-.5-.39-1.18-.59-2.03-.59-.75,0-1.44.21-2.09.62s-1.19.98-1.66,1.71c-.46.73-.82,1.61-1.07,2.63-.25,1.02-.37,2.14-.37,3.35v15.44h-4.55v-20.06c0-1.07-.02-2.22-.05-3.45-.04-1.23-.09-2.34-.16-3.34h4.33c.11.89.19,1.78.24,2.68s.08,1.55.08,1.98h.11c.5-1.57,1.33-2.89,2.49-3.96,1.16-1.07,2.58-1.61,4.25-1.61,1.43,0,2.59.3,3.5.91.91.61,1.6,1.41,2.09,2.41s.81,2.14.99,3.42c.18,1.28.27,2.59.27,3.9v17.12h-4.6Z"/><path class="cls-2" d="m177.19,13.59h4.44v26.85c0,1.82-.17,3.5-.51,5.05-.34,1.55-.91,2.91-1.71,4.07-.8,1.16-1.85,2.07-3.15,2.73-1.3.66-2.9.99-4.79.99s-3.54-.38-5.16-1.15c-1.62-.77-2.95-1.79-3.99-3.08l2.84-3.21c.78.96,1.73,1.76,2.84,2.38,1.11.62,2.32.94,3.64.94,1.1,0,2.01-.22,2.73-.67.71-.45,1.28-1.06,1.71-1.85.43-.78.72-1.71.88-2.78.16-1.07.24-2.21.24-3.42v-4.23h-.11c-.43,1.46-1.11,2.68-2.06,3.66-.95.98-2.34,1.47-4.2,1.47-1.36,0-2.57-.37-3.64-1.1-1.07-.73-1.97-1.74-2.7-3.02-.73-1.28-1.28-2.81-1.66-4.57-.37-1.77-.56-3.7-.56-5.8s.18-3.97.54-5.7c.36-1.73.9-3.23,1.63-4.49.73-1.27,1.63-2.25,2.7-2.94,1.07-.7,2.3-1.04,3.69-1.04,1.57,0,2.9.45,3.99,1.34,1.09.89,1.83,2.03,2.22,3.42h.16v-3.85Zm0,13.43c0-1.46-.11-2.83-.32-4.09-.21-1.27-.54-2.36-.99-3.29-.45-.93-.99-1.66-1.63-2.19-.64-.54-1.39-.8-2.25-.8s-1.65.27-2.27.8c-.62.54-1.14,1.27-1.55,2.19-.41.93-.71,2.02-.91,3.29-.2,1.27-.29,2.63-.29,4.09s.1,2.82.29,4.07c.2,1.25.5,2.34.91,3.26.41.93.93,1.66,1.55,2.19.62.53,1.38.8,2.27.8s1.61-.27,2.27-.8c.66-.54,1.2-1.27,1.63-2.19.43-.93.75-2.01.96-3.26.21-1.25.32-2.6.32-4.07Z"/><path class="cls-2" d="m201.38,40.92c-.64.14-1.28.21-1.93.21-2.07,0-3.54-.66-4.41-1.98-.87-1.32-1.31-3.16-1.31-5.51v-16.37h-3.42v-3.69h3.37v-7.17h4.44v7.17h4.76v3.69h-4.76v15.42c0,1.57.23,2.69.69,3.39s1.16,1.04,2.09,1.04c.32,0,.66-.04,1.02-.12.36-.08.66-.16.91-.26l.11,3.64c-.39.21-.91.39-1.55.54Z"/><path class="cls-2" d="m229.38,27.07c0,2.14-.22,4.08-.67,5.83-.45,1.75-1.09,3.25-1.92,4.49-.84,1.25-1.86,2.22-3.08,2.92-1.21.69-2.59,1.04-4.12,1.04s-2.85-.35-4.07-1.04c-1.21-.7-2.24-1.67-3.08-2.92-.84-1.25-1.48-2.74-1.92-4.49-.45-1.75-.67-3.69-.67-5.83s.22-4.1.67-5.88c.45-1.78,1.08-3.3,1.9-4.55.82-1.25,1.84-2.22,3.05-2.92,1.21-.7,2.58-1.04,4.12-1.04s2.91.35,4.12,1.04c1.21.69,2.24,1.67,3.08,2.92.84,1.25,1.48,2.76,1.92,4.55.45,1.78.67,3.74.67,5.88Zm-4.71-.03c0-1.46-.1-2.82-.29-4.08-.2-1.26-.51-2.36-.94-3.28-.43-.92-.96-1.65-1.6-2.19-.64-.53-1.39-.8-2.25-.8s-1.61.27-2.25.8c-.64.53-1.17,1.26-1.58,2.19-.41.93-.71,2.02-.91,3.28-.2,1.26-.29,2.62-.29,4.08s.1,2.81.29,4.05c.2,1.25.5,2.33.91,3.26.41.92.94,1.65,1.58,2.19s1.39.8,2.25.8,1.66-.27,2.3-.8,1.17-1.26,1.58-2.19c.41-.92.71-2.01.91-3.26.2-1.24.29-2.6.29-4.05Z"/><path class="cls-2" d="m252.89,40.44v-17.16c0-.75-.04-1.52-.11-2.31s-.24-1.5-.51-2.14-.65-1.16-1.15-1.55c-.5-.39-1.18-.59-2.03-.59-.75,0-1.44.21-2.09.62-.64.41-1.19.98-1.66,1.71-.46.73-.82,1.61-1.07,2.63-.25,1.02-.37,2.14-.37,3.35v15.44h-4.55v-20.06c0-1.07-.02-2.22-.05-3.45-.04-1.23-.09-2.34-.16-3.34h4.33c.11.89.19,1.78.24,2.68s.08,1.55.08,1.98h.11c.5-1.57,1.33-2.89,2.49-3.96,1.16-1.07,2.58-1.61,4.25-1.61,1.43,0,2.59.3,3.5.91.91.61,1.6,1.41,2.09,2.41s.81,2.14.99,3.42c.18,1.28.27,2.59.27,3.9v17.12h-4.6Z"/><path class="cls-2" d="m292.53,41.35c-1.61,0-3.01-.35-4.23-1.04-1.21-.7-2.22-1.68-3.02-2.94-.8-1.27-1.41-2.77-1.82-4.52-.41-1.75-.62-3.69-.62-5.83s.2-4.08.62-5.83,1.03-3.25,1.85-4.52c.82-1.27,1.84-2.25,3.05-2.94,1.21-.7,2.62-1.04,4.23-1.04,1.43,0,2.63.24,3.61.72.98.48,1.76,1.01,2.33,1.58l-2.3,3.42c-.43-.51-.93-.93-1.5-1.24s-1.27-.47-2.09-.47-1.6.26-2.25.78c-.64.52-1.17,1.23-1.58,2.14-.41.91-.72,1.99-.94,3.24-.21,1.25-.32,2.63-.32,4.13s.1,2.87.29,4.1c.2,1.23.51,2.3.94,3.19.43.89.98,1.59,1.66,2.09.68.5,1.5.75,2.46.75.82,0,1.52-.16,2.11-.48s1.1-.75,1.53-1.28l2.03,3.53c-1.46,1.64-3.48,2.46-6.04,2.46Z"/><path class="cls-2" d="m312.13,5.62c0,.89-.28,1.62-.83,2.19s-1.22.85-2.01.85-1.5-.28-2.03-.85c-.53-.57-.8-1.3-.8-2.19s.27-1.58.8-2.17c.54-.59,1.21-.88,2.03-.88s1.5.29,2.03.88c.54.59.8,1.31.8,2.17Zm-5.14,34.82V13.59h4.55v26.85h-4.55Z"/><path class="cls-2" d="m331.31,40.92c-.64.14-1.28.21-1.93.21-2.07,0-3.54-.66-4.41-1.98-.87-1.32-1.31-3.16-1.31-5.51v-16.37h-3.42v-3.69h3.37v-7.17h4.44v7.17h4.76v3.69h-4.76v15.42c0,1.57.23,2.69.69,3.39s1.16,1.04,2.09,1.04c.32,0,.66-.04,1.02-.12.36-.08.66-.16.91-.26l.11,3.64c-.39.21-.91.39-1.55.54Z"/><path class="cls-2" d="m351.35,45.31c-.32,1.21-.69,2.31-1.1,3.29-.41.98-.91,1.82-1.5,2.51-.59.69-1.29,1.23-2.11,1.6-.82.38-1.78.56-2.89.56-.61,0-1.2-.04-1.77-.13-.57-.09-1.03-.19-1.39-.29l.59-4.12c.68.25,1.39.37,2.14.37,1.03,0,1.81-.32,2.33-.96.52-.64.92-1.53,1.2-2.68l1.02-4.23-7.92-27.66h4.81l5.3,21.5h.11l4.81-21.5h4.65l-8.29,31.72Z"/></g><g><path class="cls-3" d="m70.7,201.6l-5.44-24.19h-29.82l-5.44,24.19H0L32.26,68.83h37.69l32.07,132.77h-31.32Zm-19.88-103.89h-.75l-11.25,56.45h22.69l-10.69-56.45Z"/><path class="cls-1" d="m166.53,201.6l-17.75-52.88h-8.78v52.88h-28.88V68.83h42.47c12.85,0,22.83,3.35,29.94,10.03,7.11,6.69,10.67,16.66,10.67,29.91,0,4.88-.56,9.25-1.68,13.13-1.12,3.88-2.59,7.19-4.39,9.94-1.81,2.75-3.83,5-6.07,6.75-2.24,1.75-4.42,3-6.54,3.75l22.63,59.26h-31.6Zm-1.78-91.14c0-3.38-.47-6.12-1.41-8.25-.94-2.12-2.16-3.81-3.66-5.06-1.5-1.25-3.16-2.09-4.97-2.53-1.81-.44-3.6-.66-5.34-.66h-9.38v33.57h8.81c4.25,0,7.97-1.34,11.16-4.03,3.19-2.69,4.78-7.03,4.78-13.03Z"/><path class="cls-5" d="m254.14,94.33v107.27h-29.44v-107.27h-24.38v-25.5h78.2v25.5h-24.38Z"/><path class="cls-4" d="m344.43,100.52c-2.25-2.63-4.88-4.66-7.88-6.09-3-1.44-6.13-2.16-9.38-2.16s-6.41,1.07-9.1,3.19c-2.69,2.13-4.03,5.64-4.03,10.52,0,4.13,1.37,7.36,4.13,9.67,2.75,2.32,6.81,4.86,12.19,7.61,3.02,1.5,6.2,3.29,9.53,5.35,3.33,2.07,6.39,4.6,9.16,7.61,2.77,3.01,5.07,6.6,6.89,10.8,1.82,4.2,2.74,9.17,2.74,14.93,0,7.14-1.13,13.43-3.4,18.88-2.26,5.45-5.32,9.95-9.15,13.52-3.84,3.57-8.27,6.26-13.29,8.08-5.03,1.81-10.23,2.72-15.6,2.72-8,0-15.28-1.5-21.85-4.5-6.56-3-11.85-6.5-15.85-10.5l15.38-22.5c2.87,3,6.19,5.41,9.94,7.22,3.75,1.81,7.56,2.72,11.44,2.72,3.63,0,6.69-1.19,9.19-3.56,2.5-2.37,3.75-5.69,3.75-9.94s-1.5-7.84-4.5-10.41c-3-2.56-7.38-5.28-13.13-8.16-3.63-1.75-7.03-3.69-10.22-5.81-3.19-2.12-6-4.69-8.44-7.69-2.44-3-4.35-6.5-5.72-10.5-1.38-4-2.06-8.75-2.06-14.25,0-7.37,1.22-13.72,3.66-19.03,2.44-5.31,5.63-9.66,9.56-13.03,3.94-3.38,8.31-5.88,13.13-7.5,4.81-1.62,9.66-2.44,14.53-2.44,7.25,0,13.75,1.18,19.5,3.54,5.75,2.36,10.56,5.59,14.44,9.68l-15.57,22.03Z"/></g><g><path class="cls-2" d="m44.11,293.17c-3.33,1.95-7.59,2.92-12.76,2.92-4.4,0-8.38-.98-11.96-2.92-3.58-1.95-6.65-4.68-9.2-8.19-2.55-3.51-4.54-7.69-5.96-12.55-1.42-4.86-2.13-10.19-2.13-16.01s.71-11.27,2.13-16.16c1.42-4.89,3.4-9.07,5.96-12.55,2.55-3.47,5.62-6.17,9.2-8.08,3.58-1.91,7.57-2.87,11.96-2.87,5.03,0,9.23.9,12.6,2.71,3.37,1.81,6.08,4.06,8.14,6.75l-9.15,12.34c-1.28-1.7-2.71-3.05-4.31-4.04-1.6-.99-3.6-1.49-6.01-1.49-2.27,0-4.24.6-5.9,1.81-1.67,1.21-3.08,2.86-4.25,4.95-1.17,2.09-2.04,4.57-2.6,7.44-.57,2.87-.85,5.94-.85,9.2s.28,6.31.85,9.15c.57,2.84,1.44,5.32,2.6,7.45,1.17,2.13,2.61,3.79,4.31,5,1.7,1.21,3.69,1.81,5.96,1.81s4.25-.57,5.96-1.7c1.7-1.13,3.05-2.48,4.04-4.04l9.46,11.8c-2.06,2.91-4.75,5.34-8.08,7.29Z"/><path class="cls-2" d="m110.46,256.22c0,5.96-.67,11.4-2.02,16.32-1.35,4.93-3.26,9.13-5.74,12.6-2.48,3.47-5.51,6.17-9.09,8.08-3.58,1.91-7.6,2.87-12.07,2.87s-8.49-.96-12.07-2.87c-3.58-1.91-6.61-4.61-9.09-8.08-2.48-3.47-4.4-7.67-5.74-12.6-1.35-4.93-2.02-10.37-2.02-16.32s.66-11.36,1.97-16.22c1.31-4.86,3.21-9,5.69-12.44,2.48-3.44,5.51-6.1,9.09-7.98,3.58-1.88,7.64-2.82,12.18-2.82s8.49.94,12.07,2.82c3.58,1.88,6.61,4.54,9.09,7.98,2.48,3.44,4.4,7.59,5.74,12.44,1.35,4.86,2.02,10.26,2.02,16.22Zm-17.44,0c0-3.26-.25-6.29-.75-9.09-.5-2.8-1.22-5.23-2.18-7.28-.96-2.06-2.15-3.67-3.56-4.84-1.42-1.17-3.08-1.75-5-1.75s-3.6.59-5.05,1.75c-1.45,1.17-2.66,2.78-3.62,4.84-.96,2.06-1.67,4.49-2.13,7.28-.46,2.8-.69,5.83-.69,9.09s.23,6.31.69,9.15c.46,2.84,1.17,5.28,2.13,7.34.96,2.06,2.16,3.69,3.62,4.89,1.45,1.21,3.14,1.81,5.05,1.81s3.58-.6,5-1.81c1.42-1.2,2.6-2.84,3.56-4.89.96-2.05,1.68-4.5,2.18-7.34.5-2.84.75-5.88.75-9.15Z"/><path class="cls-2" d="m167.43,277.91c-.96,3.62-2.46,6.77-4.52,9.46-2.06,2.7-4.72,4.82-7.98,6.38-3.26,1.56-7.2,2.34-11.8,2.34s-8.51-.78-11.7-2.34c-3.19-1.56-5.8-3.69-7.82-6.38-2.02-2.69-3.47-5.85-4.36-9.46-.89-3.62-1.33-7.51-1.33-11.7v-47.43h17.12v45.94c0,2.13.12,4.11.37,5.96.25,1.84.69,3.42,1.33,4.73.64,1.31,1.49,2.36,2.55,3.14,1.06.78,2.45,1.17,4.15,1.17s3.08-.39,4.15-1.17c1.06-.78,1.91-1.82,2.55-3.14.64-1.31,1.08-2.89,1.33-4.73.25-1.84.37-3.83.37-5.96v-45.94h17.02v47.43c0,4.18-.48,8.08-1.44,11.7Z"/><path class="cls-2" d="m212,294.08l-17.44-45.84h-.32l.43,45.84h-15.21v-75.29h18.72l17.33,46.47h.32l-.32-46.47h14.68v75.29h-18.18Z"/><path class="cls-2" d="m280.62,293.17c-3.33,1.95-7.59,2.92-12.76,2.92-4.4,0-8.38-.98-11.96-2.92-3.58-1.95-6.65-4.68-9.2-8.19-2.55-3.51-4.54-7.69-5.96-12.55-1.42-4.86-2.13-10.19-2.13-16.01s.71-11.27,2.13-16.16c1.42-4.89,3.4-9.07,5.96-12.55,2.55-3.47,5.62-6.17,9.2-8.08,3.58-1.91,7.57-2.87,11.96-2.87,5.03,0,9.23.9,12.6,2.71,3.37,1.81,6.08,4.06,8.14,6.75l-9.15,12.34c-1.28-1.7-2.71-3.05-4.31-4.04-1.6-.99-3.6-1.49-6.01-1.49-2.27,0-4.24.6-5.9,1.81-1.67,1.21-3.08,2.86-4.25,4.95-1.17,2.09-2.04,4.57-2.6,7.44-.57,2.87-.85,5.94-.85,9.2s.28,6.31.85,9.15c.57,2.84,1.44,5.32,2.6,7.45,1.17,2.13,2.61,3.79,4.31,5,1.7,1.21,3.69,1.81,5.96,1.81s4.25-.57,5.96-1.7c1.7-1.13,3.05-2.48,4.04-4.04l9.46,11.8c-2.06,2.91-4.75,5.34-8.08,7.29Z"/><path class="cls-2" d="m294.24,294.08v-75.29h17.12v75.29h-17.12Z"/><path class="cls-2" d="m322.65,294.08v-75.29h17.23v59.55h20.1v15.74h-37.33Z"/></g></g></g></svg>